<?xml version="1.0" standalone="no"?>
<!DOCTYPE svg PUBLIC "-//W3C//DTD SVG 20010904//EN"
 "http://www.w3.org/TR/2001/REC-SVG-20010904/DTD/svg10.dtd">
<svg version="1.0" xmlns="http://www.w3.org/2000/svg"
 width="400.000000pt" height="319.000000pt" viewBox="0 0 400.000000 319.000000"
 preserveAspectRatio="xMidYMid meet">

<g transform="translate(0.000000,319.000000) scale(0.100000,-0.100000)"
fill="#000000" stroke="none">
<path d="M728 3170 c-31 -10 -72 -27 -91 -39 -54 -33 -126 -116 -155 -179 -25
-55 -27 -66 -33 -297 -4 -132 -15 -288 -24 -347 -54 -362 -174 -558 -370 -603
l-50 -12 0 -98 0 -98 51 -12 c158 -36 272 -182 334 -429 38 -152 50 -262 58
-532 l7 -230 33 -65 c55 -109 132 -176 241 -209 67 -20 91 -20 1274 -20 1166
0 1207 1 1268 19 87 28 161 82 209 153 59 89 67 132 74 383 8 306 38 495 103
647 70 163 156 249 283 281 l55 14 0 98 0 98 -55 14 c-127 32 -213 118 -283
281 -65 152 -95 343 -103 647 -6 251 -15 294 -74 383 -48 71 -122 125 -209
153 -61 18 -101 19 -1274 18 -1134 -1 -1216 -2 -1269 -19z m1500 -736 c232
-47 372 -205 372 -418 0 -141 -103 -292 -236 -347 l-54 -23 52 -13 c126 -32
226 -112 280 -221 32 -65 33 -70 33 -192 0 -125 0 -126 -38 -202 -64 -130
-181 -216 -345 -255 -68 -16 -127 -18 -492 -18 l-415 0 -3 853 -2 852 385 0
c313 0 400 -3 463 -16z"/>
<path d="M1670 1976 l0 -246 185 0 c101 0 208 5 237 11 145 31 221 111 222
234 0 76 -16 123 -57 165 -66 68 -95 75 -354 78 l-233 4 0 -246z"/>
<path d="M1670 1240 l0 -272 248 4 c229 4 251 6 305 27 118 47 170 122 170
247 0 118 -55 195 -173 241 -37 14 -88 18 -297 21 l-253 4 0 -272z"/>
</g>
</svg>
