<?xml version="1.0" encoding="UTF-8"?>
<svg version="1.1" xmlns="http://www.w3.org/2000/svg" width="400" height="400">
<path d="M0 0 C94.05 0 188.1 0 285 0 C285 9.96812911 284.75200434 19.35744741 283.6875 29.1875 C283.40302772 31.94225388 283.1251376 34.69765915 282.84765625 37.453125 C282.77597229 38.15960678 282.70428833 38.86608856 282.63043213 39.59397888 C281.86531099 47.20068257 281.24186073 54.81759591 280.625 62.4375 C279.33617126 78.27873258 277.9258808 94.10806706 276.5 109.9375 C275.10330113 125.453627 273.72569654 140.96936702 272.5 156.5 C271.19682445 173.00286599 269.72202873 189.48916379 268.23840332 205.97668457 C266.7012217 223.06441098 265.19858033 240.15452487 263.75 257.25 C263.62578171 258.715513 263.62578171 258.715513 263.49905396 260.21063232 C262.65823013 270.13976785 261.82371043 280.06942892 261 290 C253.45028379 293.26015327 245.81302602 295.57239806 237.875 297.6875 C235.95699402 298.20746367 234.03899504 298.7274543 232.12133789 299.248703 C230.78801847 299.61101762 229.45452005 299.97267411 228.12084961 300.33369446 C220.64935251 302.35831068 213.19973631 304.45950573 205.75 306.5625 C203.72913454 307.1321177 201.70819702 307.70147922 199.68725586 308.27082825 C198.36578197 308.64313558 197.04432992 309.01552047 195.72290039 309.38798523 C188.33854007 311.46915338 180.95299035 313.5462475 173.56152344 315.60205078 C168.95544708 316.88388035 164.35698572 318.18258282 159.7734375 319.54296875 C158.96181152 319.77983398 158.15018555 320.01669922 157.31396484 320.26074219 C155.84521503 320.69030269 154.37900692 321.12873152 152.91650391 321.57910156 C143.63059801 324.26887544 136.08106305 322.80164323 127 319.9375 C124.85457893 319.28640042 122.70873212 318.63670233 120.5625 317.98828125 C118.92474609 317.48868896 118.92474609 317.48868896 117.25390625 316.97900391 C112.18928895 315.45521074 107.09639608 314.03814415 102 312.625 C99.91660342 312.04449777 97.83327194 311.46376187 95.75 310.8828125 C94.12771484 310.43083496 94.12771484 310.43083496 92.47265625 309.96972656 C86.66501242 308.34796326 80.86104074 306.71315409 75.05685425 305.07907104 C63.33300223 301.77842724 51.60696166 298.48574455 39.87695312 295.20703125 C38.05127085 294.6964909 36.22618003 294.18382787 34.40185547 293.66845703 C32.87367713 293.24315186 31.34169045 292.83113884 29.80517578 292.43701172 C28.18768518 292.01429111 26.59028659 291.5157103 25 291 C23.33275018 287.66550035 23.44396629 283.90051448 23.1328125 280.2265625 C23.05364594 279.3290477 22.97447937 278.4315329 22.89291382 277.50682068 C22.63292204 274.54654975 22.3788885 271.58580013 22.125 268.625 C21.94494217 266.55913893 21.76460096 264.49330253 21.58398438 262.42749023 C20.40217488 248.86465873 19.26103637 235.2984341 18.14282227 221.73022461 C17.15121536 209.71287544 16.11196455 197.69992355 15.0625 185.6875 C13.68870664 169.95996297 12.33391171 154.23097008 11 138.5 C9.28214838 118.25021791 7.53015089 98.00353622 5.76359558 77.75794983 C5.13881188 70.59659839 4.51625021 63.43505561 3.89453125 56.2734375 C3.7115907 54.16674786 3.52864801 52.0600584 3.34570312 49.95336914 C3.0823423 46.92057105 2.81903019 43.88776878 2.5559082 40.85494995 C2.39247683 38.97142735 2.22889767 37.08791756 2.06515503 35.204422 C1.91196613 33.44014275 1.75938024 31.67581102 1.60745239 29.91142273 C1.23348939 25.58668039 0.82620437 21.26787695 0.38671875 16.94921875 C-0.05350987 11.31518175 0 5.65120997 0 0 Z M54 61 C54.99 72.55 55.98 84.1 57 96 C69.39257584 96.02907181 69.39257584 96.02907181 81.78515625 96.04882812 C86.83741299 96.05481269 91.88965165 96.06190274 96.94189453 96.07543945 C101.01376672 96.0862815 105.08561953 96.09227964 109.15750504 96.09487724 C110.71328156 96.09672911 112.26905698 96.10034518 113.82482529 96.10573006 C115.99896307 96.11295795 118.17302016 96.1139902 120.34716797 96.11352539 C122.20581985 96.11685631 122.20581985 96.11685631 124.10202026 96.12025452 C126.93998046 96.2007372 126.93998046 96.2007372 129 95 C129 95.99 129 96.98 129 98 C127.79408203 98.35884277 126.58816406 98.71768555 125.34570312 99.08740234 C118.7563801 101.29010331 112.65668765 104.47509512 106.46875 107.6015625 C105.18386911 108.24553475 103.89874926 108.88903044 102.61340332 109.53207397 C99.93898341 110.87157025 97.26656161 112.21494031 94.59570312 113.56152344 C91.16744855 115.28989413 87.73568442 117.01115056 84.30260468 118.72991371 C81.65783233 120.05437268 79.01419997 121.38109233 76.37098694 122.70866013 C75.10485008 123.34457994 73.83852367 123.98012249 72.57200623 124.61528397 C70.81192268 125.4987473 69.05338138 126.3852812 67.29492188 127.27197266 C65.7934259 128.02784164 65.7934259 128.02784164 64.26159668 128.79898071 C62.0936136 129.80876507 62.0936136 129.80876507 61 131 C60.40801219 138.88858177 61.15807106 146.77761601 61.9375 154.625 C62.02427002 155.50196533 62.11104004 156.37893066 62.20043945 157.2824707 C62.56225439 160.71252972 62.90458069 163.71374207 64 167 C104.26 167 144.52 167 186 167 C185.67 168.65 185.34 170.3 185 172 C184.8002797 174.37635951 184.63740258 176.75594298 184.5 179.13671875 C184.45939453 179.81620071 184.41878906 180.49568268 184.37695312 181.195755 C184.24801447 183.35949132 184.1236459 185.52345529 184 187.6875 C183.8358665 190.52489368 183.66942508 193.36213603 183.5 196.19921875 C183.43921265 197.21748245 183.43921265 197.21748245 183.37719727 198.25631714 C183.05249642 203.52105194 182.58104058 208.75822165 182 214 C176.8823464 215.46169542 171.75962183 216.9034056 166.63134766 218.32739258 C164.88992965 218.81388447 163.14998151 219.30567167 161.41162109 219.80297852 C158.90315677 220.51957993 156.38990865 221.21655818 153.875 221.91015625 C153.10696045 222.13405533 152.3389209 222.35795441 151.54760742 222.58863831 C144.1362765 224.59409226 138.18698252 223.49075767 130.8125 221.40625 C129.70132813 221.09816406 128.59015625 220.79007813 127.4453125 220.47265625 C124 219.5 124 219.5 120.5546875 218.52734375 C119.44351563 218.21925781 118.33234375 217.91117188 117.1875 217.59375 C116.19105469 217.31208984 115.19460937 217.03042969 114.16796875 216.74023438 C110.49921106 215.88298458 106.73848643 215.4673108 103 215 C102.01 200.645 102.01 200.645 101 186 C89.12 186 77.24 186 65 186 C65.28875 189.42375 65.5775 192.8475 65.875 196.375 C66.4607094 203.32865871 67.02736461 210.28294034 67.54296875 217.2421875 C67.6301416 218.41346191 67.71731445 219.58473633 67.80712891 220.79150391 C67.97514888 223.06700191 68.14026833 225.34271626 68.30224609 227.61865234 C68.37910645 228.65715332 68.4559668 229.6956543 68.53515625 230.765625 C68.600979 231.68118164 68.66680176 232.59673828 68.73461914 233.54003906 C68.97688438 235.78572862 69.42934188 237.82054385 70 240 C76.29052475 241.74213406 82.58123881 243.48358335 88.87207031 245.22460938 C91.00134327 245.81397883 93.1305766 246.40349146 95.25976562 246.99316406 C96.79407227 247.41807129 96.79407227 247.41807129 98.359375 247.8515625 C99.38415955 248.13537781 100.40894409 248.41919312 101.46478271 248.71160889 C104.57770592 249.57235684 107.69167328 250.42925632 110.80566406 251.28613281 C114.94872332 252.42763289 119.08498431 253.59043962 123.21777344 254.76855469 C124.21090546 255.04819061 125.20403748 255.32782654 126.2272644 255.61593628 C128.09611682 256.14217206 129.96307931 256.67518727 131.82766724 257.21633911 C138.58778944 259.10559524 144.38088456 259.69349807 151.24609375 257.78515625 C152.23279053 257.51541992 153.2194873 257.24568359 154.23608398 256.96777344 C155.29255127 256.6690332 156.34901855 256.37029297 157.4375 256.0625 C158.55261963 255.75473633 159.66773926 255.44697266 160.81665039 255.12988281 C163.88624025 254.27987494 166.95328886 253.42140371 170.01904297 252.55767822 C172.06688728 251.98116992 174.11538297 251.40702894 176.1640625 250.83349609 C181.76836586 249.2642526 187.37227278 247.69366907 192.97241211 246.10961914 C193.61795547 245.9270607 194.26349884 245.74450226 194.92860413 245.55641174 C196.79087675 245.02948025 198.65300866 244.50205152 200.51513672 243.97460938 C204.6749007 242.81125098 208.84690866 241.69764478 213.02563477 240.60449219 C214.98203275 240.17433942 214.98203275 240.17433942 216 239 C216.23310991 237.16864359 216.39978976 235.32885352 216.54296875 233.48828125 C216.69511841 231.59384277 216.69511841 231.59384277 216.8503418 229.66113281 C216.9319606 228.60762634 216.9319606 228.60762634 217.01522827 227.53283691 C217.32315772 223.5640655 217.64709042 219.5965844 217.96875 215.62890625 C218.080196 214.24727798 218.080196 214.24727798 218.19389343 212.83773804 C219.4666149 197.13698679 220.83801545 181.44428771 222.1875 165.75 C223.115625 154.9425 224.04375 144.135 225 133 C202.56 133 180.12 133 157 133 C160.48922208 130.38308344 163.61622466 128.57382929 167.49682617 126.64599609 C168.13953964 126.32529648 168.78225311 126.00459686 169.44444275 125.67417908 C171.55879944 124.62023355 173.67588734 123.57189747 175.79296875 122.5234375 C177.26479556 121.79066043 178.73641647 121.05746965 180.20783997 120.32388306 C184.07402607 118.3974304 187.94241659 116.47545021 191.8114624 114.55474854 C198.01549016 111.47432899 204.2168066 108.38846881 210.4168644 105.3000679 C212.58582254 104.22071418 214.75611886 103.14408748 216.92655945 102.06771851 C218.24820408 101.41030837 219.56980579 100.75281192 220.89135742 100.09521484 C222.0495549 99.52024261 223.20775238 98.94527039 224.40104675 98.35287476 C226.86376989 97.23647063 226.86376989 97.23647063 228 96 C228.30084426 93.76000388 228.54018737 91.51169966 228.75390625 89.26171875 C228.81907944 88.584543 228.88425262 87.90736725 228.95140076 87.20967102 C229.08876391 85.77319974 229.22395984 84.33651984 229.35717773 82.8996582 C229.56071777 80.70670193 229.77097327 78.51447198 229.98242188 76.32226562 C230.73422756 68.67507626 230.73422756 68.67507626 231 61 C172.59 61 114.18 61 54 61 Z " fill="#026EB9" transform="translate(58,77)"/>
<path d="M0 0 C37.29 0 74.58 0 113 0 C113 10.65067397 112.7632193 20.89402503 111.75 31.4375 C111.61460209 32.906769 111.479773 34.3760905 111.34545898 35.84545898 C110.61538108 43.7675573 109.83709636 51.6848772 109.05078125 59.6015625 C108.80481169 62.0800306 108.55886738 64.55850115 108.31307983 67.0369873 C108.14544219 68.72655267 107.97749162 70.41608702 107.80923462 72.10559082 C106.35159245 86.78691391 105.11112178 101.48097011 103.9375 116.1875 C102.80603478 130.36410961 101.61678444 144.52135773 100.14428711 158.66723633 C98.98397695 169.89345173 97.98856813 181.13254034 97 192.375 C95.78448218 206.1908743 94.5527353 220.00454605 93.25 233.8125 C93.18506348 234.50083923 93.12012695 235.18917847 93.05322266 235.89837646 C92.70373835 239.59906941 92.35268887 243.29961114 92 247 C67.61411391 253.85986908 43.17684699 260.50579224 18.69580078 267.01660156 C12.46314352 268.67502034 6.23159186 270.33758292 0 272 C-0.0740324 266.62486811 -0.12854569 261.25003146 -0.16479492 255.87451172 C-0.17990251 254.04503207 -0.20038968 252.21558875 -0.22631836 250.38623047 C-0.26261585 247.76000008 -0.27970615 245.13424751 -0.29296875 242.5078125 C-0.30845261 241.68693146 -0.32393646 240.86605042 -0.33988953 240.02029419 C-0.34057617 237.71533203 -0.34057617 237.71533203 0 234 C2.84167038 232.10555308 4.61494456 231.42991296 7.85546875 230.58984375 C8.85505615 230.32655273 9.85464355 230.06326172 10.88452148 229.79199219 C11.97450439 229.51000977 13.0644873 229.22802734 14.1875 228.9375 C24.80018386 226.13964492 35.37688276 223.23736336 45.9375 220.25 C54.61497184 217.79579835 63.2938962 215.35122564 72 213 C72.05945801 212.27079346 72.11891602 211.54158691 72.18017578 210.7902832 C74.98540728 176.51531385 78.01225712 142.25945164 81 108 C58.56 108 36.12 108 13 108 C14 105 14 105 16.75753784 103.519104 C17.99783948 102.98190852 19.24301957 102.45589929 20.49169922 101.93847656 C21.89785468 101.33290726 23.30358647 100.7263535 24.70895386 100.11895752 C25.45765621 99.7986985 26.20635857 99.47843948 26.97774887 99.14847565 C31.78825771 97.06493361 36.54261896 94.85527711 41.30729485 92.66948318 C45.48822373 90.76012991 49.67946672 88.89763239 53.92138672 87.12744141 C71.67856425 80.57661366 71.67856425 80.57661366 85.01826477 68.15670776 C88.25341772 59.85388965 87.94803789 50.72811977 87.16848755 41.99432373 C87 39 87 39 88 35 C58.96 35 29.92 35 0 35 C0 23.45 0 11.9 0 0 Z " fill="#0197D8" transform="translate(201,103)"/>
<path d="M0 0 C17.16 0 34.32 0 52 0 C52 4.95 52 9.9 52 15 C40.12 15 28.24 15 16 15 C16 16.65 16 18.3 16 20 C27.88 20 39.76 20 52 20 C52 31.22 52 42.44 52 54 C34.84 54 17.68 54 0 54 C0 49.05 0 44.1 0 39 C11.88 39 23.76 39 36 39 C36 37.35 36 35.7 36 34 C24.12 34 12.24 34 0 34 C0 22.78 0 11.56 0 0 Z " fill="#090909" transform="translate(231,0)"/>
<path d="M0 0 C17.16 0 34.32 0 52 0 C52 4.95 52 9.9 52 15 C40.12 15 28.24 15 16 15 C16 16.65 16 18.3 16 20 C27.88 20 39.76 20 52 20 C52 31.22 52 42.44 52 54 C34.84 54 17.68 54 0 54 C0 49.05 0 44.1 0 39 C11.88 39 23.76 39 36 39 C36 37.35 36 35.7 36 34 C24.12 34 12.24 34 0 34 C0 22.78 0 11.56 0 0 Z " fill="#080808" transform="translate(173,0)"/>
<path d="M0 0 C14.19 0 28.38 0 43 0 C42.690625 5.73375 42.38125 11.4675 42.0625 17.375 C41.96718994 19.16341309 41.87187988 20.95182617 41.77368164 22.79443359 C41.35263611 30.55331356 40.87310211 38.27579931 40 46 C32.83035027 48.4553595 25.60350695 50.62221772 18.3125 52.6875 C17.21099609 53.00783203 16.10949219 53.32816406 14.97460938 53.65820312 C13.90662109 53.96048828 12.83863281 54.26277344 11.73828125 54.57421875 C10.77962158 54.84838623 9.82096191 55.12255371 8.83325195 55.4050293 C6 56 6 56 0 56 C0 37.52 0 19.04 0 0 Z " fill="#0297D8" transform="translate(201,245)"/>
<path d="M0 0 C17.16 0 34.32 0 52 0 C52 4.95 52 9.9 52 15 C40.12 15 28.24 15 16 15 C16 22.92 16 30.84 16 39 C27.88 39 39.76 39 52 39 C52 43.95 52 48.9 52 54 C34.84 54 17.68 54 0 54 C0 36.18 0 18.36 0 0 Z " fill="#070707" transform="translate(115,0)"/>
<path d="M0 0 C94.05 0 188.1 0 285 0 C284.67 0.99 284.34 1.98 284 3 C283.404056 2.99962028 282.80811199 2.99924056 282.19410908 2.99884933 C246.90498433 2.97649069 211.61586079 2.95932328 176.32673044 2.94893467 C172.09330856 2.9476839 167.8598867 2.94638959 163.62646484 2.94506836 C162.36222173 2.94467489 162.36222173 2.94467489 161.07243834 2.94427348 C147.41001685 2.93991742 133.74759954 2.93203022 120.08518054 2.9228472 C106.0752774 2.91350888 92.06537647 2.90794401 78.05547035 2.90591151 C69.40461461 2.90453665 60.75377071 2.90018807 52.10291861 2.89208353 C46.17765162 2.88681388 40.25239079 2.88519621 34.32712163 2.88649862 C30.90416533 2.88714166 27.48122978 2.88612837 24.05827713 2.88079453 C20.3542744 2.8758588 16.65032338 2.87700129 12.94631958 2.87974548 C11.85489784 2.87683264 10.76347611 2.8739198 9.63898098 2.87091869 C8.65268134 2.87290974 7.66638169 2.87490079 6.65019417 2.87695217 C5.79430454 2.87657245 4.93841492 2.87619273 4.05658925 2.8758015 C1.93513649 2.86889691 1.93513649 2.86889691 0 4 C0 2.68 0 1.36 0 0 Z " fill="#3578A0" transform="translate(58,77)"/>
</svg>
