<svg xmlns="http://www.w3.org/2000/svg" width="400" height="400"><path d="M58 77h285l-1 29-1 8v3l-2 22-4 48-4 47-5 49-4 51-1 3-2 30-23 8-6 1-4 1-22 7-6 1-4 1-22 7-14 4h-3l-4 2c-9 2-17 1-26-2l-6-2-4-1-15-4-6-2-4-1-17-5-35-10-6-1-4-2-5-1c-2-3-2-7-2-11v-2l-1-9v-7l-4-40-3-36-4-47-5-61-2-22-1-6v-9l-1-6v-5l-2-13V77zm54 61l3 35h67l5-1v3l-4 1-19 9-3 2-8 4-11 5-8 4-3 2-6 2-3 2-3 2c-1 8 0 16 1 24v2l2 10h122l-1 5v7l-1 2v15l-1 2-1 16-15 4-6 2-7 2-2 1c-8 2-14 0-21-2l-4-1-6-1-4-1-3-1-11-2-2-29h-36l1 10 2 21v11l1 3v3l1 6 19 5 6 2 3 1 3 1 10 2 12 4 3 1 6 1c7 2 12 3 19 1l3-1 3-1 4-1 9-2 6-2 17-5h2l6-2 12-3 3-2 1-6v-3-2l1-12v-3l4-47 3-33h-68c3-3 7-4 10-6l2-1 7-3 4-3 12-5 18-10 7-3 4-2 3-2 4-2 1-7v-2-4l1-7 1-15H112z" fill="#026EB9"/><path d="M201 103h113l-1 31-1 5-2 24-1 7v5l-4 44-4 43-3 33-4 42v2l-1 11-73 20-19 5v-16-6-7-3-6c3-2 5-3 8-3l3-1 3-1 32-9 26-7v-2l9-103h-68c1-3 1-3 4-4l3-2 5-2 2-1 14-6 13-6c18-6 18-6 31-19 3-8 3-17 2-26l1-7h-88v-35z" fill="#0197D8"/><path d="M231 0h52v15h-36v5h36v34h-52V39h36v-5h-36V0z" fill="#090909"/><path d="M173 0h52v15h-36v5h36v34h-52V39h36v-5h-36V0z" fill="#080808"/><path d="M201 245h43l-1 17v6l-2 23-22 7-3 1-3 1h-3l-9 1v-56z" fill="#0297D8"/><path d="M115 0h52v15h-36v24h36v15h-52V0z" fill="#070707"/><path d="M58 77h285l-1 3H62l-4 1v-4z" fill="#3578A0"/></svg>