<svg width="256" height="256" xmlns="http://www.w3.org/2000/svg"><path stroke="#000" opacity=".937" d="M120 24l17 1h-17v-1zM112 25l2 1h-2v-1zM143 25l2 1h-2v-1zM66 44l-1 2 1-2zM191 44l1 2-1-2zM62 47l-2 3 2-3zM195 47l2 3-2-3zM209 61l2 3-2-3zM47 62l-2 3 2-3zM43 67l-1 2 1-2zM73 67l5 1h-6v2l-1-1 2-2zM180 67l4 1h-4v-1zM41 70l-1 2 1-2zM216 70l1 2-1-2zM39 73l-1 2 1-2zM118 75l3 1h-3v-1zM136 75l4 1h-4v-1zM160 75l-1 2 1-2zM188 77v3h-1l1-3zM69 81v5h-1l1-5zM71 95v2l-2 1 2-3zM188 98l1 2-1-2zM23 116v4h-1l1-4zM61 116v3h-1l1-3zM234 116v4h-1l1-4zM197 119v14h-1l1-14zM61 134v3h-1l1-3zM23 142v3h-1l1-3zM234 142v3h-1l1-3zM67 155l1 2-1-2zM69 158l1 2-1-2zM187 160l-6 7 6-7zM78 167l1 2-1-2zM178 168l-1 2 1-2zM51 172l-1 2q0 4 3 5l-4-3 2-4zM65 175l1 2-1-2zM104 177l2 1h-2v-1zM108 178l-1 2 1-2zM149 178l2 3-2-3zM55 179l5 6-5-6zM70 180l1 2-1-2zM152 182l1 2-1-2zM74 186l3 4-3-4zM102 191l-1 2 1-2zM42 192l1 2-1-2zM89 194l5 1h-5v-1zM213 195l-2 3 2-3zM45 196l1 2-1-2zM69 200l3 4-3-4zM49 201l8 9-8-9zM208 201l-9 10 9-10zM86 208l8 1h-8v-1zM62 213l1 2-1-2zM195 213l-1 2 1-2zM66 216l1 2-1-2zM191 216l-1 2 1-2zM72 220l1 2-1-2zM180 223l-1 2 1-2zM101 229l-1 2 1-2zM95 231l3 1h-3v-1zM159 231l3 1h-3v-1z"/><path stroke="#000" d="M115 25h27l24 6q25 10 42 30 16 17 23 43l3 17v21l-4 20-9 21q-10 17-25 30l-22 14-10 4h-6l-3-3v-38q-1-8-6-11l20-5q11-4 18-13t9-21l1-20q-3-15-11-24 4-7 2-18l-4-11-12 2-16 9h-4l-12-3h-22l-17 3-16-9-7-2h-5l-4 9-1 10 2 11-9 16-1 4v20l6 19 13 13q11 7 28 10-5 3-5 12l-2 2q-6 2-14 1-10-2-14-9-2-7-7-10l-6-3h-8l-2 4 12 11 5 11 6 6q7 6 22 5l1-1h6v21l-2 2h-6l-24-12-23-20q-13-16-20-37l-4-20v-21l3-17 9-23q10-18 25-31 11-10 27-17l14-5 15-3z"/><path stroke="#000" opacity=".392" d="M115 24l4 1h-4v-1zM138 24l4 1h-4v-1zM109 25l2 1h-2v-1zM146 25l2 1h-2v-1zM104 26l2 1h-2v-1zM151 26l2 1h-2v-1zM76 37l-1 2 1-2zM181 37l1 2-1-2zM71 40l-1 2 1-2zM186 40l1 2-1-2zM68 42l-1 2 1-2zM189 42l1 2-1-2zM64 45l-1 2 1-2zM193 45l1 2-1-2zM60 48L47 62l13-14zM198 49l12 13-12-13zM212 64l2 3-2-3zM44 65l-1 2 1-2zM215 68l1 2-1-2zM95 74l1 2-1-2zM219 74l1 2-1-2zM122 75l13 1h-13v-1zM70 76v4h-1l1-4zM113 76l3 1h-3v-1zM141 76l3 1h-3v-1zM100 77l1 2-1-2zM108 77l2 1h-2v-1zM35 79l-1 2 1-2zM188 80v8h-1l1-8zM223 81l2 5h-1l-1-5zM70 87v4h-1l1-4zM186 95l1 3-2-1 1-2zM71 97l-2 3 2-3zM189 100l1 2-1-2zM68 101l-1 2 1-2zM23 113v3h-1l1-3zM234 113v3h-1l1-3zM61 119v15h-1l1-15zM22 120v21h-1l1-21zM235 120v21h-1l1-21zM196 134v4h-1l1-4zM62 138v3h-1l1-3zM23 145v4h-1l1-4zM234 145v4h-1l1-4zM24 151v3h-1l1-3zM233 151v3h-1l1-3zM67 154l1 2-1-2zM190 155l-1 2 1-2zM188 158l-1 2 1-2zM71 160l6 7-6-7zM180 166l-1 2 1-2zM79 167l1 2-1-2zM52 172l5 1h-5v-1zM96 175l2 1h-2v-1zM101 176l2 1h-2v-1zM155 176l2 1h-2v-1zM67 177l2 3-2-3zM107 177l2 1h-2v-1zM149 177l2 1h-2v-1zM108 179l-2 3 2-3zM35 182l1 2-1-2zM222 182l-1 2 1-2zM72 184l1 2-1-2zM61 185l1 2-1-2zM38 187l1 2-1-2zM219 187l-1 2 1-2zM63 188l1 2-1-2zM103 188v3h-1l1-3zM40 190l1 2-1-2zM78 190l1 2-1-2zM155 190v4h-1l1-4zM217 190l-1 2 1-2zM42 193l2 3-2-3zM215 193l-1 2 1-2zM86 194l2 1h-2v-1zM155 197v31h-1l1-31zM212 197l-3 4 3-4zM46 198l2 3-2-3zM68 198l1 2-1-2zM72 202l1 2-1-2zM75 204l2 2h-1l-1-2zM82 207l3 1h-3v-1zM96 207l3 1h-3v-1zM102 207v22h-1l1-22zM58 210l3 4-3-4zM198 211l-2 3 2-3zM64 215l1 2-1-2zM193 215l-2 3 2-3zM68 218l1 2-1-2zM189 218l-1 2 1-2zM186 220l-1 2 1-2z"/></svg>