<svg width="256" height="256" version="1.1" xmlns="http://www.w3.org/2000/svg"><path fill="rgb(0,0,0)" stroke="rgb(0,0,0)" stroke-width="1" opacity="0.9372549019607843" d="M 119.5 24 L 137 24.5 L 119.5 25 L 119.5 24 Z "></path><path fill="rgb(0,0,0)" stroke="rgb(0,0,0)" stroke-width="1" opacity="0.9372549019607843" d="M 111.5 25 L 114 25.5 L 111.5 26 L 111.5 25 Z "></path><path fill="rgb(0,0,0)" stroke="rgb(0,0,0)" stroke-width="1" opacity="0.9372549019607843" d="M 142.5 25 L 145 25.5 L 142.5 26 L 142.5 25 Z "></path><path fill="rgb(0,0,0)" stroke="rgb(0,0,0)" stroke-width="1" opacity="0.9372549019607843" d="M 65.5 44 L 64.5 46 L 65.5 44 Z "></path><path fill="rgb(0,0,0)" stroke="rgb(0,0,0)" stroke-width="1" opacity="0.9372549019607843" d="M 190.5 44 L 191.5 46 L 190.5 44 Z "></path><path fill="rgb(0,0,0)" stroke="rgb(0,0,0)" stroke-width="1" opacity="0.9372549019607843" d="M 61.5 47 L 59.5 50 L 61.5 47 Z "></path><path fill="rgb(0,0,0)" stroke="rgb(0,0,0)" stroke-width="1" opacity="0.9372549019607843" d="M 194.5 47 L 196.5 50 L 194.5 47 Z "></path><path fill="rgb(0,0,0)" stroke="rgb(0,0,0)" stroke-width="1" opacity="0.9372549019607843" d="M 208.5 61 L 210.5 64 L 208.5 61 Z "></path><path fill="rgb(0,0,0)" stroke="rgb(0,0,0)" stroke-width="1" opacity="0.9372549019607843" d="M 46.5 62 L 44.5 65 L 46.5 62 Z "></path><path fill="rgb(0,0,0)" stroke="rgb(0,0,0)" stroke-width="1" opacity="0.9372549019607843" d="M 42.5 67 L 41.5 69 L 42.5 67 Z "></path><path fill="rgb(0,0,0)" stroke="rgb(0,0,0)" stroke-width="1" opacity="0.9372549019607843" d="M 72.5 67 L 78 67.5 L 72 68 L 71.5 70 L 71 68.5 L 72.5 67 Z "></path><path fill="rgb(0,0,0)" stroke="rgb(0,0,0)" stroke-width="1" opacity="0.9372549019607843" d="M 179.5 67 L 184 67.5 L 179.5 68 L 179.5 67 Z "></path><path fill="rgb(0,0,0)" stroke="rgb(0,0,0)" stroke-width="1" opacity="0.9372549019607843" d="M 40.5 70 L 39.5 72 L 40.5 70 Z "></path><path fill="rgb(0,0,0)" stroke="rgb(0,0,0)" stroke-width="1" opacity="0.9372549019607843" d="M 215.5 70 L 216.5 72 L 215.5 70 Z "></path><path fill="rgb(0,0,0)" stroke="rgb(0,0,0)" stroke-width="1" opacity="0.9372549019607843" d="M 38.5 73 L 37.5 75 L 38.5 73 Z "></path><path fill="rgb(0,0,0)" stroke="rgb(0,0,0)" stroke-width="1" opacity="0.9372549019607843" d="M 117.5 75 L 121 75.5 L 117.5 76 L 117.5 75 Z "></path><path fill="rgb(0,0,0)" stroke="rgb(0,0,0)" stroke-width="1" opacity="0.9372549019607843" d="M 135.5 75 L 140 75.5 L 135.5 76 L 135.5 75 Z "></path><path fill="rgb(0,0,0)" stroke="rgb(0,0,0)" stroke-width="1" opacity="0.9372549019607843" d="M 159.5 75 L 158.5 77 L 159.5 75 Z "></path><path fill="rgb(0,0,0)" stroke="rgb(0,0,0)" stroke-width="1" opacity="0.9372549019607843" d="M 187.5 77 L 188 79.5 L 187 79.5 L 187.5 77 Z "></path><path fill="rgb(0,0,0)" stroke="rgb(0,0,0)" stroke-width="1" opacity="0.9372549019607843" d="M 68.5 81 L 69 85.5 L 68 85.5 L 68.5 81 Z "></path><path fill="rgb(0,0,0)" stroke="rgb(0,0,0)" stroke-width="1" opacity="0.9372549019607843" d="M 70.5 95 L 71 96.5 L 69 97.5 L 70.5 95 Z "></path><path fill="rgb(0,0,0)" stroke="rgb(0,0,0)" stroke-width="1" opacity="0.9372549019607843" d="M 187.5 98 L 188.5 100 L 187.5 98 Z "></path><path fill="rgb(0,0,0)" stroke="rgb(0,0,0)" stroke-width="1" opacity="0.9372549019607843" d="M 22.5 116 L 23 119.5 L 22 119.5 L 22.5 116 Z "></path><path fill="rgb(0,0,0)" stroke="rgb(0,0,0)" stroke-width="1" opacity="0.9372549019607843" d="M 60.5 116 L 61 118.5 L 60 118.5 L 60.5 116 Z "></path><path fill="rgb(0,0,0)" stroke="rgb(0,0,0)" stroke-width="1" opacity="0.9372549019607843" d="M 233.5 116 L 234 119.5 L 233 119.5 L 233.5 116 Z "></path><path fill="rgb(0,0,0)" stroke="rgb(0,0,0)" stroke-width="1" opacity="0.9372549019607843" d="M 196.5 119 L 197 132.5 L 196 132.5 L 196.5 119 Z "></path><path fill="rgb(0,0,0)" stroke="rgb(0,0,0)" stroke-width="1" opacity="0.9372549019607843" d="M 60.5 134 L 61 136.5 L 60 136.5 L 60.5 134 Z "></path><path fill="rgb(0,0,0)" stroke="rgb(0,0,0)" stroke-width="1" opacity="0.9372549019607843" d="M 22.5 142 L 23 144.5 L 22 144.5 L 22.5 142 Z "></path><path fill="rgb(0,0,0)" stroke="rgb(0,0,0)" stroke-width="1" opacity="0.9372549019607843" d="M 233.5 142 L 234 144.5 L 233 144.5 L 233.5 142 Z "></path><path fill="rgb(0,0,0)" stroke="rgb(0,0,0)" stroke-width="1" opacity="0.9372549019607843" d="M 66.5 155 L 67.5 157 L 66.5 155 Z "></path><path fill="rgb(0,0,0)" stroke="rgb(0,0,0)" stroke-width="1" opacity="0.9372549019607843" d="M 68.5 158 L 69.5 160 L 68.5 158 Z "></path><path fill="rgb(0,0,0)" stroke="rgb(0,0,0)" stroke-width="1" opacity="0.9372549019607843" d="M 186.5 160 L 180.5 167 L 186.5 160 Z "></path><path fill="rgb(0,0,0)" stroke="rgb(0,0,0)" stroke-width="1" opacity="0.9372549019607843" d="M 77.5 167 L 78.5 169 L 77.5 167 Z "></path><path fill="rgb(0,0,0)" stroke="rgb(0,0,0)" stroke-width="1" opacity="0.9372549019607843" d="M 177.5 168 L 176.5 170 L 177.5 168 Z "></path><path fill="rgb(0,0,0)" stroke="rgb(0,0,0)" stroke-width="1" opacity="0.9372549019607843" d="M 50.5 172 L 50 173.5 Q 49.5 178 53 178.5 L 49 175.5 L 50.5 172 Z "></path><path fill="rgb(0,0,0)" stroke="rgb(0,0,0)" stroke-width="1" opacity="0.9372549019607843" d="M 64.5 175 L 65.5 177 L 64.5 175 Z "></path><path fill="rgb(0,0,0)" stroke="rgb(0,0,0)" stroke-width="1" opacity="0.9372549019607843" d="M 103.5 177 L 106 177.5 L 103.5 178 L 103.5 177 Z "></path><path fill="rgb(0,0,0)" stroke="rgb(0,0,0)" stroke-width="1" opacity="0.9372549019607843" d="M 107.5 178 L 106.5 180 L 107.5 178 Z "></path><path fill="rgb(0,0,0)" stroke="rgb(0,0,0)" stroke-width="1" opacity="0.9372549019607843" d="M 148.5 178 L 150.5 181 L 148.5 178 Z "></path><path fill="rgb(0,0,0)" stroke="rgb(0,0,0)" stroke-width="1" opacity="0.9372549019607843" d="M 54.5 179 L 59.5 185 L 54.5 179 Z "></path><path fill="rgb(0,0,0)" stroke="rgb(0,0,0)" stroke-width="1" opacity="0.9372549019607843" d="M 69.5 180 L 70.5 182 L 69.5 180 Z "></path><path fill="rgb(0,0,0)" stroke="rgb(0,0,0)" stroke-width="1" opacity="0.9372549019607843" d="M 151.5 182 L 152.5 184 L 151.5 182 Z "></path><path fill="rgb(0,0,0)" stroke="rgb(0,0,0)" stroke-width="1" opacity="0.9372549019607843" d="M 73.5 186 L 76.5 190 L 73.5 186 Z "></path><path fill="rgb(0,0,0)" stroke="rgb(0,0,0)" stroke-width="1" opacity="0.9372549019607843" d="M 101.5 191 L 100.5 193 L 101.5 191 Z "></path><path fill="rgb(0,0,0)" stroke="rgb(0,0,0)" stroke-width="1" opacity="0.9372549019607843" d="M 41.5 192 L 42.5 194 L 41.5 192 Z "></path><path fill="rgb(0,0,0)" stroke="rgb(0,0,0)" stroke-width="1" opacity="0.9372549019607843" d="M 88.5 194 L 94 194.5 L 88.5 195 L 88.5 194 Z "></path><path fill="rgb(0,0,0)" stroke="rgb(0,0,0)" stroke-width="1" opacity="0.9372549019607843" d="M 212.5 195 L 210.5 198 L 212.5 195 Z "></path><path fill="rgb(0,0,0)" stroke="rgb(0,0,0)" stroke-width="1" opacity="0.9372549019607843" d="M 44.5 196 L 45.5 198 L 44.5 196 Z "></path><path fill="rgb(0,0,0)" stroke="rgb(0,0,0)" stroke-width="1" opacity="0.9372549019607843" d="M 68.5 200 L 71.5 204 L 68.5 200 Z "></path><path fill="rgb(0,0,0)" stroke="rgb(0,0,0)" stroke-width="1" opacity="0.9372549019607843" d="M 48.5 201 L 56.5 210 L 48.5 201 Z "></path><path fill="rgb(0,0,0)" stroke="rgb(0,0,0)" stroke-width="1" opacity="0.9372549019607843" d="M 207.5 201 L 198.5 211 L 207.5 201 Z "></path><path fill="rgb(0,0,0)" stroke="rgb(0,0,0)" stroke-width="1" opacity="0.9372549019607843" d="M 85.5 208 L 94 208.5 L 85.5 209 L 85.5 208 Z "></path><path fill="rgb(0,0,0)" stroke="rgb(0,0,0)" stroke-width="1" opacity="0.9372549019607843" d="M 61.5 213 L 62.5 215 L 61.5 213 Z "></path><path fill="rgb(0,0,0)" stroke="rgb(0,0,0)" stroke-width="1" opacity="0.9372549019607843" d="M 194.5 213 L 193.5 215 L 194.5 213 Z "></path><path fill="rgb(0,0,0)" stroke="rgb(0,0,0)" stroke-width="1" opacity="0.9372549019607843" d="M 65.5 216 L 66.5 218 L 65.5 216 Z "></path><path fill="rgb(0,0,0)" stroke="rgb(0,0,0)" stroke-width="1" opacity="0.9372549019607843" d="M 190.5 216 L 189.5 218 L 190.5 216 Z "></path><path fill="rgb(0,0,0)" stroke="rgb(0,0,0)" stroke-width="1" opacity="0.9372549019607843" d="M 71.5 220 L 72.5 222 L 71.5 220 Z "></path><path fill="rgb(0,0,0)" stroke="rgb(0,0,0)" stroke-width="1" opacity="0.9372549019607843" d="M 179.5 223 L 178.5 225 L 179.5 223 Z "></path><path fill="rgb(0,0,0)" stroke="rgb(0,0,0)" stroke-width="1" opacity="0.9372549019607843" d="M 100.5 229 L 99.5 231 L 100.5 229 Z "></path><path fill="rgb(0,0,0)" stroke="rgb(0,0,0)" stroke-width="1" opacity="0.9372549019607843" d="M 94.5 231 L 98 231.5 L 94.5 232 L 94.5 231 Z "></path><path fill="rgb(0,0,0)" stroke="rgb(0,0,0)" stroke-width="1" opacity="0.9372549019607843" d="M 158.5 231 L 162 231.5 L 158.5 232 L 158.5 231 Z "></path><path fill="rgb(0,0,0)" stroke="rgb(0,0,0)" stroke-width="1" opacity="1" d="M 114.5 25 L 141.5 25 L 165.5 31 Q 191.4 41.1 208 60.5 Q 223.8 77.7 231 103.5 L 234 120.5 L 234 141.5 L 230 161.5 L 221 182.5 Q 210.8 200.3 195.5 213 L 173.5 227 L 163.5 231 L 157.5 231 L 155 227.5 L 155 189.5 Q 153.7 182.3 149 178.5 L 168.5 174 Q 180 169.5 187 160.5 Q 193.7 152.2 196 139.5 L 197 119.5 Q 194.4 104.6 186 95.5 Q 189.5 89 188 77.5 L 183.5 67 L 171.5 69 L 155.5 78 L 151.5 78 L 139.5 75 L 117.5 75 L 100.5 78 L 84.5 69 L 77.5 67 L 72.5 67 L 69 75.5 L 68 85.5 L 70 96.5 L 61 112.5 L 60 116.5 L 60 136.5 L 66 155.5 L 78.5 169 Q 90.1 176.4 107 178.5 Q 102.3 182.3 102 190.5 L 99.5 193 Q 94.4 195.4 85.5 194 Q 76.4 191.5 72 184.5 Q 70.4 177.6 64.5 175 L 58.5 172 L 50.5 172 L 49 175.5 L 61 186.5 L 66 197.5 L 71.5 204 Q 79.3 209.7 93.5 209 L 94.5 208 L 101 208 L 101 228.5 L 98.5 231 L 92.5 231 L 68.5 219 L 46 198.5 Q 32.9 183.1 26 161.5 L 22 141.5 L 22 120.5 L 25 103.5 L 34 80.5 Q 43.7 62.7 58.5 50 Q 70.2 39.7 85.5 33 L 99.5 28 L 114.5 25 Z "></path><path fill="rgb(0,0,0)" stroke="rgb(0,0,0)" stroke-width="1" opacity="0" d="M 0 0 L 256 0 L 256 256 L 0 256 L 0 0 Z M 115 24 L 100 27 L 86 32 Q 71 38 60 48 Q 43 61 33 81 L 25 101 L 21 121 L 21 141 L 24 158 Q 31 182 45 199 Q 63 221 93 232 Q 99 233 101 231 L 102 229 L 102 207 L 96 207 L 95 208 L 80 207 L 71 202 L 62 187 L 53 178 Q 49 177 50 173 Q 60 172 65 176 Q 70 178 71 185 Q 76 192 86 195 Q 96 196 102 193 Q 103 183 109 178 Q 96 176 86 172 L 78 167 L 66 154 L 61 138 Q 58 109 71 98 L 69 87 L 70 75 L 74 68 Q 91 70 101 79 L 117 76 L 140 76 L 153 79 L 156 79 L 172 70 L 184 68 L 187 77 Q 189 89 185 96 L 194 111 L 196 119 L 195 141 Q 193 153 186 161 Q 174 176 148 177 L 152 184 L 155 195 L 154 198 L 154 228 L 158 232 L 164 232 L 174 228 L 196 214 Q 212 201 222 183 L 230 165 L 235 141 L 235 121 L 231 101 Q 224 77 210 62 Q 193 41 166 30 L 142 24 L 115 24 Z "></path><path fill="rgb(0,0,0)" stroke="rgb(0,0,0)" stroke-width="1" opacity="0.39215686274509803" d="M 114.5 24 L 119 24.5 L 114.5 25 L 114.5 24 Z "></path><path fill="rgb(0,0,0)" stroke="rgb(0,0,0)" stroke-width="1" opacity="0.39215686274509803" d="M 137.5 24 L 142 24.5 L 137.5 25 L 137.5 24 Z "></path><path fill="rgb(0,0,0)" stroke="rgb(0,0,0)" stroke-width="1" opacity="0.39215686274509803" d="M 108.5 25 L 111 25.5 L 108.5 26 L 108.5 25 Z "></path><path fill="rgb(0,0,0)" stroke="rgb(0,0,0)" stroke-width="1" opacity="0.39215686274509803" d="M 145.5 25 L 148 25.5 L 145.5 26 L 145.5 25 Z "></path><path fill="rgb(0,0,0)" stroke="rgb(0,0,0)" stroke-width="1" opacity="0.39215686274509803" d="M 103.5 26 L 106 26.5 L 103.5 27 L 103.5 26 Z "></path><path fill="rgb(0,0,0)" stroke="rgb(0,0,0)" stroke-width="1" opacity="0.39215686274509803" d="M 150.5 26 L 153 26.5 L 150.5 27 L 150.5 26 Z "></path><path fill="rgb(0,0,0)" stroke="rgb(0,0,0)" stroke-width="1" opacity="0.39215686274509803" d="M 75.5 37 L 74.5 39 L 75.5 37 Z "></path><path fill="rgb(0,0,0)" stroke="rgb(0,0,0)" stroke-width="1" opacity="0.39215686274509803" d="M 180.5 37 L 181.5 39 L 180.5 37 Z "></path><path fill="rgb(0,0,0)" stroke="rgb(0,0,0)" stroke-width="1" opacity="0.39215686274509803" d="M 70.5 40 L 69.5 42 L 70.5 40 Z "></path><path fill="rgb(0,0,0)" stroke="rgb(0,0,0)" stroke-width="1" opacity="0.39215686274509803" d="M 185.5 40 L 186.5 42 L 185.5 40 Z "></path><path fill="rgb(0,0,0)" stroke="rgb(0,0,0)" stroke-width="1" opacity="0.39215686274509803" d="M 67.5 42 L 66.5 44 L 67.5 42 Z "></path><path fill="rgb(0,0,0)" stroke="rgb(0,0,0)" stroke-width="1" opacity="0.39215686274509803" d="M 188.5 42 L 189.5 44 L 188.5 42 Z "></path><path fill="rgb(0,0,0)" stroke="rgb(0,0,0)" stroke-width="1" opacity="0.39215686274509803" d="M 63.5 45 L 62.5 47 L 63.5 45 Z "></path><path fill="rgb(0,0,0)" stroke="rgb(0,0,0)" stroke-width="1" opacity="0.39215686274509803" d="M 192.5 45 L 193.5 47 L 192.5 45 Z "></path><path fill="rgb(0,0,0)" stroke="rgb(0,0,0)" stroke-width="1" opacity="0.39215686274509803" d="M 59.5 48 L 46.5 62 L 59.5 48 Z "></path><path fill="rgb(0,0,0)" stroke="rgb(0,0,0)" stroke-width="1" opacity="0.39215686274509803" d="M 197.5 49 L 209.5 62 L 197.5 49 Z "></path><path fill="rgb(0,0,0)" stroke="rgb(0,0,0)" stroke-width="1" opacity="0.39215686274509803" d="M 211.5 64 L 213.5 67 L 211.5 64 Z "></path><path fill="rgb(0,0,0)" stroke="rgb(0,0,0)" stroke-width="1" opacity="0.39215686274509803" d="M 43.5 65 L 42.5 67 L 43.5 65 Z "></path><path fill="rgb(0,0,0)" stroke="rgb(0,0,0)" stroke-width="1" opacity="0.39215686274509803" d="M 214.5 68 L 215.5 70 L 214.5 68 Z "></path><path fill="rgb(0,0,0)" stroke="rgb(0,0,0)" stroke-width="1" opacity="0.39215686274509803" d="M 94.5 74 L 95.5 76 L 94.5 74 Z "></path><path fill="rgb(0,0,0)" stroke="rgb(0,0,0)" stroke-width="1" opacity="0.39215686274509803" d="M 218.5 74 L 219.5 76 L 218.5 74 Z "></path><path fill="rgb(0,0,0)" stroke="rgb(0,0,0)" stroke-width="1" opacity="0.39215686274509803" d="M 121.5 75 L 135 75.5 L 121.5 76 L 121.5 75 Z "></path><path fill="rgb(0,0,0)" stroke="rgb(0,0,0)" stroke-width="1" opacity="0.39215686274509803" d="M 69.5 76 L 70 79.5 L 69 79.5 L 69.5 76 Z "></path><path fill="rgb(0,0,0)" stroke="rgb(0,0,0)" stroke-width="1" opacity="0.39215686274509803" d="M 112.5 76 L 116 76.5 L 112.5 77 L 112.5 76 Z "></path><path fill="rgb(0,0,0)" stroke="rgb(0,0,0)" stroke-width="1" opacity="0.39215686274509803" d="M 140.5 76 L 144 76.5 L 140.5 77 L 140.5 76 Z "></path><path fill="rgb(0,0,0)" stroke="rgb(0,0,0)" stroke-width="1" opacity="0.39215686274509803" d="M 99.5 77 L 100.5 79 L 99.5 77 Z "></path><path fill="rgb(0,0,0)" stroke="rgb(0,0,0)" stroke-width="1" opacity="0.39215686274509803" d="M 107.5 77 L 110 77.5 L 107.5 78 L 107.5 77 Z "></path><path fill="rgb(0,0,0)" stroke="rgb(0,0,0)" stroke-width="1" opacity="0.39215686274509803" d="M 34.5 79 L 33.5 81 L 34.5 79 Z "></path><path fill="rgb(0,0,0)" stroke="rgb(0,0,0)" stroke-width="1" opacity="0.39215686274509803" d="M 187.5 80 L 188 87.5 L 187 87.5 L 187.5 80 Z "></path><path fill="rgb(0,0,0)" stroke="rgb(0,0,0)" stroke-width="1" opacity="0.39215686274509803" d="M 222.5 81 L 225 85.5 L 224 85.5 L 222.5 81 Z "></path><path fill="rgb(0,0,0)" stroke="rgb(0,0,0)" stroke-width="1" opacity="0.39215686274509803" d="M 69.5 87 L 70 90.5 L 69 90.5 L 69.5 87 Z "></path><path fill="rgb(0,0,0)" stroke="rgb(0,0,0)" stroke-width="1" opacity="0.39215686274509803" d="M 185.5 95 L 187 97.5 L 185 96.5 L 185.5 95 Z "></path><path fill="rgb(0,0,0)" stroke="rgb(0,0,0)" stroke-width="1" opacity="0.39215686274509803" d="M 70.5 97 L 68.5 100 L 70.5 97 Z "></path><path fill="rgb(0,0,0)" stroke="rgb(0,0,0)" stroke-width="1" opacity="0.39215686274509803" d="M 188.5 100 L 189.5 102 L 188.5 100 Z "></path><path fill="rgb(0,0,0)" stroke="rgb(0,0,0)" stroke-width="1" opacity="0.39215686274509803" d="M 67.5 101 L 66.5 103 L 67.5 101 Z "></path><path fill="rgb(0,0,0)" stroke="rgb(0,0,0)" stroke-width="1" opacity="0.39215686274509803" d="M 22.5 113 L 23 115.5 L 22 115.5 L 22.5 113 Z "></path><path fill="rgb(0,0,0)" stroke="rgb(0,0,0)" stroke-width="1" opacity="0.39215686274509803" d="M 233.5 113 L 234 115.5 L 233 115.5 L 233.5 113 Z "></path><path fill="rgb(0,0,0)" stroke="rgb(0,0,0)" stroke-width="1" opacity="0.39215686274509803" d="M 60.5 119 L 61 133.5 L 60 133.5 L 60.5 119 Z "></path><path fill="rgb(0,0,0)" stroke="rgb(0,0,0)" stroke-width="1" opacity="0.39215686274509803" d="M 21.5 120 L 22 140.5 L 21 140.5 L 21.5 120 Z "></path><path fill="rgb(0,0,0)" stroke="rgb(0,0,0)" stroke-width="1" opacity="0.39215686274509803" d="M 234.5 120 L 235 140.5 L 234 140.5 L 234.5 120 Z "></path><path fill="rgb(0,0,0)" stroke="rgb(0,0,0)" stroke-width="1" opacity="0.39215686274509803" d="M 195.5 134 L 196 137.5 L 195 137.5 L 195.5 134 Z "></path><path fill="rgb(0,0,0)" stroke="rgb(0,0,0)" stroke-width="1" opacity="0.39215686274509803" d="M 61.5 138 L 62 140.5 L 61 140.5 L 61.5 138 Z "></path><path fill="rgb(0,0,0)" stroke="rgb(0,0,0)" stroke-width="1" opacity="0.39215686274509803" d="M 22.5 145 L 23 148.5 L 22 148.5 L 22.5 145 Z "></path><path fill="rgb(0,0,0)" stroke="rgb(0,0,0)" stroke-width="1" opacity="0.39215686274509803" d="M 233.5 145 L 234 148.5 L 233 148.5 L 233.5 145 Z "></path><path fill="rgb(0,0,0)" stroke="rgb(0,0,0)" stroke-width="1" opacity="0.39215686274509803" d="M 23.5 151 L 24 153.5 L 23 153.5 L 23.5 151 Z "></path><path fill="rgb(0,0,0)" stroke="rgb(0,0,0)" stroke-width="1" opacity="0.39215686274509803" d="M 232.5 151 L 233 153.5 L 232 153.5 L 232.5 151 Z "></path><path fill="rgb(0,0,0)" stroke="rgb(0,0,0)" stroke-width="1" opacity="0.39215686274509803" d="M 66.5 154 L 67.5 156 L 66.5 154 Z "></path><path fill="rgb(0,0,0)" stroke="rgb(0,0,0)" stroke-width="1" opacity="0.39215686274509803" d="M 189.5 155 L 188.5 157 L 189.5 155 Z "></path><path fill="rgb(0,0,0)" stroke="rgb(0,0,0)" stroke-width="1" opacity="0.39215686274509803" d="M 187.5 158 L 186.5 160 L 187.5 158 Z "></path><path fill="rgb(0,0,0)" stroke="rgb(0,0,0)" stroke-width="1" opacity="0.39215686274509803" d="M 70.5 160 L 76.5 167 L 70.5 160 Z "></path><path fill="rgb(0,0,0)" stroke="rgb(0,0,0)" stroke-width="1" opacity="0.39215686274509803" d="M 179.5 166 L 178.5 168 L 179.5 166 Z "></path><path fill="rgb(0,0,0)" stroke="rgb(0,0,0)" stroke-width="1" opacity="0.39215686274509803" d="M 78.5 167 L 79.5 169 L 78.5 167 Z "></path><path fill="rgb(0,0,0)" stroke="rgb(0,0,0)" stroke-width="1" opacity="0.39215686274509803" d="M 51.5 172 L 57 172.5 L 51.5 173 L 51.5 172 Z "></path><path fill="rgb(0,0,0)" stroke="rgb(0,0,0)" stroke-width="1" opacity="0.39215686274509803" d="M 95.5 175 L 98 175.5 L 95.5 176 L 95.5 175 Z "></path><path fill="rgb(0,0,0)" stroke="rgb(0,0,0)" stroke-width="1" opacity="0.39215686274509803" d="M 100.5 176 L 103 176.5 L 100.5 177 L 100.5 176 Z "></path><path fill="rgb(0,0,0)" stroke="rgb(0,0,0)" stroke-width="1" opacity="0.39215686274509803" d="M 154.5 176 L 157 176.5 L 154.5 177 L 154.5 176 Z "></path><path fill="rgb(0,0,0)" stroke="rgb(0,0,0)" stroke-width="1" opacity="0.39215686274509803" d="M 66.5 177 L 68.5 180 L 66.5 177 Z "></path><path fill="rgb(0,0,0)" stroke="rgb(0,0,0)" stroke-width="1" opacity="0.39215686274509803" d="M 106.5 177 L 109 177.5 L 106.5 178 L 106.5 177 Z "></path><path fill="rgb(0,0,0)" stroke="rgb(0,0,0)" stroke-width="1" opacity="0.39215686274509803" d="M 148.5 177 L 151 177.5 L 148.5 178 L 148.5 177 Z "></path><path fill="rgb(0,0,0)" stroke="rgb(0,0,0)" stroke-width="1" opacity="0.39215686274509803" d="M 107.5 179 L 105.5 182 L 107.5 179 Z "></path><path fill="rgb(0,0,0)" stroke="rgb(0,0,0)" stroke-width="1" opacity="0.39215686274509803" d="M 34.5 182 L 35.5 184 L 34.5 182 Z "></path><path fill="rgb(0,0,0)" stroke="rgb(0,0,0)" stroke-width="1" opacity="0.39215686274509803" d="M 221.5 182 L 220.5 184 L 221.5 182 Z "></path><path fill="rgb(0,0,0)" stroke="rgb(0,0,0)" stroke-width="1" opacity="0.39215686274509803" d="M 71.5 184 L 72.5 186 L 71.5 184 Z "></path><path fill="rgb(0,0,0)" stroke="rgb(0,0,0)" stroke-width="1" opacity="0.39215686274509803" d="M 60.5 185 L 61.5 187 L 60.5 185 Z "></path><path fill="rgb(0,0,0)" stroke="rgb(0,0,0)" stroke-width="1" opacity="0.39215686274509803" d="M 37.5 187 L 38.5 189 L 37.5 187 Z "></path><path fill="rgb(0,0,0)" stroke="rgb(0,0,0)" stroke-width="1" opacity="0.39215686274509803" d="M 218.5 187 L 217.5 189 L 218.5 187 Z "></path><path fill="rgb(0,0,0)" stroke="rgb(0,0,0)" stroke-width="1" opacity="0.39215686274509803" d="M 62.5 188 L 63.5 190 L 62.5 188 Z "></path><path fill="rgb(0,0,0)" stroke="rgb(0,0,0)" stroke-width="1" opacity="0.39215686274509803" d="M 102.5 188 L 103 190.5 L 102 190.5 L 102.5 188 Z "></path><path fill="rgb(0,0,0)" stroke="rgb(0,0,0)" stroke-width="1" opacity="0.39215686274509803" d="M 39.5 190 L 40.5 192 L 39.5 190 Z "></path><path fill="rgb(0,0,0)" stroke="rgb(0,0,0)" stroke-width="1" opacity="0.39215686274509803" d="M 77.5 190 L 78.5 192 L 77.5 190 Z "></path><path fill="rgb(0,0,0)" stroke="rgb(0,0,0)" stroke-width="1" opacity="0.39215686274509803" d="M 154.5 190 L 155 193.5 L 154 193.5 L 154.5 190 Z "></path><path fill="rgb(0,0,0)" stroke="rgb(0,0,0)" stroke-width="1" opacity="0.39215686274509803" d="M 216.5 190 L 215.5 192 L 216.5 190 Z "></path><path fill="rgb(0,0,0)" stroke="rgb(0,0,0)" stroke-width="1" opacity="0.39215686274509803" d="M 41.5 193 L 43.5 196 L 41.5 193 Z "></path><path fill="rgb(0,0,0)" stroke="rgb(0,0,0)" stroke-width="1" opacity="0.39215686274509803" d="M 214.5 193 L 213.5 195 L 214.5 193 Z "></path><path fill="rgb(0,0,0)" stroke="rgb(0,0,0)" stroke-width="1" opacity="0.39215686274509803" d="M 85.5 194 L 88 194.5 L 85.5 195 L 85.5 194 Z "></path><path fill="rgb(0,0,0)" stroke="rgb(0,0,0)" stroke-width="1" opacity="0.39215686274509803" d="M 154.5 197 L 155 227.5 L 154 227.5 L 154.5 197 Z "></path><path fill="rgb(0,0,0)" stroke="rgb(0,0,0)" stroke-width="1" opacity="0.39215686274509803" d="M 211.5 197 L 208.5 201 L 211.5 197 Z "></path><path fill="rgb(0,0,0)" stroke="rgb(0,0,0)" stroke-width="1" opacity="0.39215686274509803" d="M 45.5 198 L 47.5 201 L 45.5 198 Z "></path><path fill="rgb(0,0,0)" stroke="rgb(0,0,0)" stroke-width="1" opacity="0.39215686274509803" d="M 67.5 198 L 68.5 200 L 67.5 198 Z "></path><path fill="rgb(0,0,0)" stroke="rgb(0,0,0)" stroke-width="1" opacity="0.39215686274509803" d="M 71.5 202 L 72.5 204 L 71.5 202 Z "></path><path fill="rgb(0,0,0)" stroke="rgb(0,0,0)" stroke-width="1" opacity="0.39215686274509803" d="M 74.5 204 L 77 205.5 L 75.5 206 L 74.5 204 Z "></path><path fill="rgb(0,0,0)" stroke="rgb(0,0,0)" stroke-width="1" opacity="0.39215686274509803" d="M 81.5 207 L 85 207.5 L 81.5 208 L 81.5 207 Z "></path><path fill="rgb(0,0,0)" stroke="rgb(0,0,0)" stroke-width="1" opacity="0.39215686274509803" d="M 95.5 207 L 99 207.5 L 95.5 208 L 95.5 207 Z "></path><path fill="rgb(0,0,0)" stroke="rgb(0,0,0)" stroke-width="1" opacity="0.39215686274509803" d="M 101.5 207 L 102 228.5 L 101 228.5 L 101.5 207 Z "></path><path fill="rgb(0,0,0)" stroke="rgb(0,0,0)" stroke-width="1" opacity="0.39215686274509803" d="M 57.5 210 L 60.5 214 L 57.5 210 Z "></path><path fill="rgb(0,0,0)" stroke="rgb(0,0,0)" stroke-width="1" opacity="0.39215686274509803" d="M 197.5 211 L 195.5 214 L 197.5 211 Z "></path><path fill="rgb(0,0,0)" stroke="rgb(0,0,0)" stroke-width="1" opacity="0.39215686274509803" d="M 63.5 215 L 64.5 217 L 63.5 215 Z "></path><path fill="rgb(0,0,0)" stroke="rgb(0,0,0)" stroke-width="1" opacity="0.39215686274509803" d="M 192.5 215 L 190.5 218 L 192.5 215 Z "></path><path fill="rgb(0,0,0)" stroke="rgb(0,0,0)" stroke-width="1" opacity="0.39215686274509803" d="M 67.5 218 L 68.5 220 L 67.5 218 Z "></path><path fill="rgb(0,0,0)" stroke="rgb(0,0,0)" stroke-width="1" opacity="0.39215686274509803" d="M 188.5 218 L 187.5 220 L 188.5 218 Z "></path><path fill="rgb(0,0,0)" stroke="rgb(0,0,0)" stroke-width="1" opacity="0.39215686274509803" d="M 185.5 220 L 184.5 222 L 185.5 220 Z "></path></svg>