<svg xmlns="http://www.w3.org/2000/svg" width="400" height="400"><path d="M58 78h284v17l-1 3v7l-1 8-2 22-1 2-4 47-8 92-6 65-1 18v3l-1 6-19 6-3 1-7 2-12 3-39 11-3 1-13 4-5 1h-2l-9 3c-9 1-16-1-24-4l-5-1-9-3-19-5-11-3-16-5-15-4-6-1-8-3h-2l-7-3-1-9v-2l-1-9v-6l-3-29-3-39-4-40-3-35-2-18v-3l-3-31v-4-2l-2-16-1-12v-6l-1-8v-3l-1-18z" fill="#E34D27"/><path d="M111 138h177l-2 35H150l2 13 1 7v16h129l-2 30v6l-1 3-1 13-5 58-9 3h-2l-5 1-14 4-11 3-15 5-3 1-5 1c-10 3-18 0-28-3l-7-2h-2l-23-7-6-2-6-1-10-3-1-12-2-21-1-23h35c4 8 2 20 2 28h3l3 1h4l8 3 6 1 9 3c6 2 11 1 17-1l2-1 7-2 7-1 5-2 8-1v-9l4-37H120l-2-23-1-13-1-7-1-11-4-53z" fill="#FEFDFD"/><path d="M200 102h116l-3 33v8l-2 23-3 27-4 47-3 31-1 11-1 8v6l-1 7-3 30-1 17-2 1-50 13-25 7-11 3-6 1v-36l39-12c3 0 7-1 10-3l12-3h4l3-1 5-1v-2l1-23 3-32 1-4v-10l2-14v-8-3l1-3 1-11H153l-3-36h136l1-19 1-16H111v-1l89-1v-34z" fill="#F0662B"/><path d="M111 138h177l-2 35H150l2 13 1 7v16h129v1h-82v35h-80l-2-23-1-13-1-7-1-11-4-53z" fill="#EBE9E9"/><path d="M123 263h35c4 8 2 20 2 28h3l3 1h4l8 3 6 1 9 3 8 2-1 37 2 1-20-4-8-3h-2l-23-7-6-2-6-1-10-3-1-12-2-21-1-23z" fill="#EBE8E8"/><path d="M200 138h88l-2 35h-86v-35z" fill="#FEFEFD"/><path d="M202 0h21c9 11 9 11 9 17h2l3-8 6-9h21v55h-19l-1-23-10 15c-4-2-6-5-8-9l-4-6-1 23h-19V0z" fill="#050505"/><path d="M84 0h20v17h14V0h20v55h-20V37h-14v18H84V0z" fill="#090909"/><path d="M200 247h43l-2 23v4l-1 3v4l-1 10-16 4-5 2-8 2-2 1h-8v-53z" fill="#F16528"/><path d="M151 174h134v1h-85v33h82v1H153l-2-35z" fill="#E54C20"/><path d="M144 0h52v19h-16v36h-20V19h-16V0z" fill="#070707"/><path d="M271 0h20l1 35h22l3 1v19h-46V0z" fill="#0B0B0B"/></svg>