<?xml version="1.0" encoding="UTF-8"?>
<svg version="1.1" xmlns="http://www.w3.org/2000/svg" width="400" height="400">
<path d="M0 0 C93.72 0 187.44 0 284 0 C284 12.37282349 284 12.37282349 283.54443359 17.02880859 C283.3929184 18.61983902 283.3929184 18.61983902 283.23834229 20.24301147 C283.12617371 21.36680206 283.01400513 22.49059265 282.8984375 23.6484375 C282.7817572 24.86367096 282.6650769 26.07890442 282.54486084 27.33096313 C282.29195843 29.96256958 282.037333 32.59394239 281.77984619 35.22509766 C281.07367861 42.44820611 280.38930338 49.67340802 279.703125 56.8984375 C279.5960919 58.02304508 279.5960919 58.02304508 279.48689651 59.17037201 C278.005853 74.74386598 276.64063305 90.32636623 275.30402756 105.91282654 C272.6579028 136.76238649 269.87728252 167.5989198 267.0513773 198.43250942 C265.0709777 220.04464206 263.14678981 241.66020777 261.31593323 263.28553772 C260.82250209 269.08686276 260.31817195 274.88723094 259.8125 280.6875 C259.72892746 281.64651215 259.64535492 282.60552429 259.55924988 283.59359741 C259.3730287 285.72908199 259.18655061 287.86454417 259 290 C252.83623904 292.42354451 246.63506317 294.31396699 240.25 296.0625 C239.17564697 296.35995117 238.10129395 296.65740234 236.99438477 296.96386719 C234.61463819 297.62263214 232.23449083 298.27995051 229.85400391 298.93603516 C225.8216184 300.04924535 221.79138685 301.16997359 217.76171875 302.29296875 C204.81547218 305.8992109 191.86537821 309.49107601 178.90625 313.05078125 C177.98767715 313.30312531 177.06910431 313.55546936 176.12269592 313.81546021 C171.63484366 315.04800946 167.14663847 316.27925583 162.65795898 317.50878906 C161.03108474 317.95506902 159.40421287 318.40135763 157.77734375 318.84765625 C157.03218506 319.0513533 156.28702637 319.25505035 155.51928711 319.46492004 C152.65456703 320.251334 149.8189391 321.06035363 147 322 C138.44298497 323.01330289 130.73717644 320.55615066 122.625 318.125 C121.21504351 317.71372576 119.80463026 317.30401468 118.39379883 316.89575195 C115.42637802 316.03647175 112.46058579 315.17185994 109.49560547 314.30419922 C102.97593454 312.40417681 96.4297391 310.60047043 89.88363647 308.7940979 C86.16865334 307.76797726 82.45558751 306.73495688 78.7421875 305.703125 C73.57266558 304.26755384 68.40249526 302.83435478 63.23144531 301.40429688 C58.23568596 300.02269084 53.24083265 298.6378489 48.24649048 297.25112915 C46.2957977 296.71017971 44.34476931 296.17043899 42.3934021 295.63192749 C39.67417115 294.88136948 36.95611035 294.12670959 34.23828125 293.37109375 C33.41719879 293.14552795 32.59611633 292.91996216 31.75015259 292.68756104 C26.11395829 291.11395829 26.11395829 291.11395829 25 290 C24.64758983 287.11153969 24.35387881 284.2373384 24.09765625 281.33984375 C24.01503036 280.44374893 23.93240448 279.54765411 23.84727478 278.62440491 C23.58149293 275.72913546 23.32203356 272.83333551 23.0625 269.9375 C22.89166461 268.07353205 22.72044465 266.20959931 22.54882812 264.34570312 C21.66243931 254.6625305 20.82513438 244.97601157 20.02734375 235.28515625 C18.93431719 222.01582326 17.71938038 208.75822513 16.5 195.5 C15.28721066 182.31343871 14.07843722 169.1276909 12.99609375 155.9296875 C12.04133387 144.29792584 10.97275164 132.67797261 9.88400269 121.05807495 C9.32849441 115.12623786 8.77739414 109.19399169 8.2265625 103.26171875 C8.06470711 101.51886345 8.06470711 101.51886345 7.89958191 99.74079895 C6.93638022 89.35004083 6.00408369 78.95690749 5.10058594 68.56079102 C4.9874707 67.25940186 4.87435547 65.9580127 4.7578125 64.6171875 C4.70057007 63.95857224 4.64332764 63.29995697 4.58435059 62.62138367 C4.14049111 57.54217812 3.67827464 52.4647643 3.21147156 47.38761902 C2.83510144 43.29071399 2.46243318 39.19347507 2.08987427 35.09622192 C1.90745079 33.10100405 1.72331566 31.10594179 1.537323 29.11105347 C1.27685097 26.3153164 1.02261147 23.51907085 0.76953125 20.72265625 C0.65259415 19.49344955 0.65259415 19.49344955 0.53329468 18.2394104 C-0.01483863 12.08564936 0 6.24600112 0 0 Z " fill="#E34D27" transform="translate(58,78)"/>
<path d="M0 0 C58.41 0 116.82 0 177 0 C177 16 177 16 175 35 C130.12 35 85.24 35 39 35 C39.66 39.29 40.32 43.58 41 48 C41.24496012 50.22543958 41.46400325 52.4544154 41.625 54.6875 C41.69976562 55.66074219 41.77453125 56.63398438 41.8515625 57.63671875 C42.04797835 62.08708836 42 66.54529812 42 71 C84.57 71 127.14 71 171 71 C169.8589259 92.68040798 169.8589259 92.68040798 169.125 100.875 C168.94854813 102.91140034 168.77281817 104.9478633 168.59765625 106.984375 C168.50242676 108.08845703 168.40719727 109.19253906 168.30908203 110.33007812 C167.96181431 114.45340231 167.63337155 118.57798037 167.30859375 122.703125 C165.77199469 142.16273664 164.04090604 161.58623679 162 181 C158.98056323 182.2648903 156.09668214 183.3050677 152.890625 183.96484375 C151.75753906 184.20557617 151.75753906 184.20557617 150.6015625 184.45117188 C149.04961287 184.77213156 147.497532 185.09245739 145.9453125 185.41210938 C141.2438099 186.41217476 136.76602843 187.6917796 132.22412109 189.26147461 C128.59399853 190.46686657 124.89486461 191.37821713 121.1875 192.3125 C115.94740629 193.64596113 110.75384048 195.0474779 105.6015625 196.69140625 C104.27475464 197.11135864 104.27475464 197.11135864 102.92114258 197.53979492 C101.22647034 198.08237552 99.53584895 198.63783689 97.8503418 199.20825195 C88.08925622 202.31868367 80.02487785 199.31577061 70.5 196.5 C68.01715302 195.77786857 65.53407003 195.0565482 63.05078125 194.3359375 C62.08311577 194.05398026 62.08311577 194.05398026 61.09590149 193.7663269 C53.30808597 191.49944206 45.4975431 189.31379614 37.6875 187.125 C35.65589448 186.55499662 33.62434953 185.98477824 31.59284973 185.41439819 C29.8246099 184.91801268 28.05623112 184.4221222 26.2878418 183.92626953 C22.85603947 182.95944262 19.42763154 181.98149595 16 181 C15.06776214 176.94746187 14.77125992 173.02463601 14.5625 168.875 C14.1915798 161.99815555 13.54120296 155.18175632 12.66040039 148.35107422 C11.73125637 140.44851536 12 133.16208235 12 125 C23.55 125 35.1 125 47 125 C50.82509125 132.6501825 49.10190792 144.60958095 49 153 C49.88042969 153.12117187 50.76085937 153.24234375 51.66796875 153.3671875 C53.41013672 153.61855469 53.41013672 153.61855469 55.1875 153.875 C56.91033203 154.11863281 56.91033203 154.11863281 58.66796875 154.3671875 C61.70511419 154.94399589 64.17317003 155.78986805 67 157 C68.93905512 157.48476378 70.8786665 157.96778873 72.82421875 158.42578125 C75.83424537 159.22016888 78.72217432 160.3041195 81.62890625 161.4140625 C87.63548198 162.89838929 93.19038867 161.6738043 99.015625 160.03125 C99.75327087 159.8314856 100.49091675 159.63172119 101.25091553 159.42590332 C103.58629557 158.79220449 105.9182332 158.14685546 108.25 157.5 C110.59648245 156.85493379 112.94360642 156.21242418 115.29193115 155.57409668 C116.74774584 155.17778646 118.2024341 154.77730919 119.65582275 154.37219238 C122.53580522 153.58340007 124.99779514 153 128 153 C128 150.03 128 147.06 128 144 C129.32 131.79 130.64 119.58 132 107 C91.41 107 50.82 107 9 107 C8.34 99.41 7.68 91.82 7 84 C6.59833565 79.58019342 6.19392179 75.16093829 5.78125 70.7421875 C5.5688435 68.44272375 5.35660934 66.14324407 5.14453125 63.84375 C4.82373156 60.36996153 4.50198896 56.89627377 4.17724609 53.42285156 C2.51535471 35.62371748 1.23047046 17.8418216 0 0 Z " fill="#FEFDFD" transform="translate(111,138)"/>
<path d="M0 0 C38.28 0 76.56 0 116 0 C114 27 114 27 113 33 C112.84840222 35.54347391 112.72596805 38.07972714 112.625 40.625 C112.24819371 48.60171226 111.45379357 56.50323963 110.5625 64.4375 C109.56836979 73.32786443 108.71868832 82.19912991 108.125 91.125 C107.07524892 106.76146466 105.39920014 122.33821088 103.76416016 137.92236328 C102.68840666 148.29420327 101.72543997 158.62979992 101.31919861 169.05236816 C101.16532549 172.81622291 100.75808601 176.31873719 100 180 C99.74130505 182.82018169 99.51335127 185.63265194 99.31640625 188.45703125 C99.19209253 190.14518489 99.06774232 191.83333584 98.94335938 193.52148438 C98.75352682 196.14924339 98.56502419 198.77709132 98.37768555 201.4050293 C97.6599317 211.41080313 96.77439312 221.33889105 95.45678711 231.28393555 C94.77358231 236.84195817 94.36353244 242.41308035 94 248 C92.8253418 248.30852905 92.8253418 248.30852905 91.62695312 248.62329102 C75.17717181 252.95300214 58.79301741 257.43285595 42.48242188 262.265625 C33.97277992 264.78303285 25.45172563 267.17518173 16.828125 269.2734375 C13.22632985 270.19876056 9.69227265 271.30001139 6.15625 272.44921875 C4 273 4 273 0 273 C0 261.12 0 249.24 0 237 C12.91853345 232.38623805 25.60537878 228.39371638 38.96411133 225.48217773 C42.43733296 224.70324287 45.71049298 223.7799947 49.02734375 222.48046875 C52.85051145 220.98947077 56.64784157 220.13061956 60.6875 219.375 C61.94949219 219.13523437 63.21148437 218.89546875 64.51171875 218.6484375 C65.66285156 218.43445313 66.81398438 218.22046875 68 218 C69.66702851 217.66848099 71.33376668 217.33549279 73 217 C72.98450104 216.28760666 72.96900208 215.57521332 72.95303345 214.8412323 C72.85847523 207.0435758 73.44885097 199.47939694 74.3359375 191.73828125 C75.48369756 181.20268448 76.49696064 170.66972483 77.3515625 160.10546875 C77.45764832 158.79442169 77.56373413 157.48337463 77.67303467 156.13259888 C77.93895373 152.82112086 78.20299843 149.50950316 78.46551514 146.19775391 C78.8419052 141.45348172 79.22152319 136.70946931 79.60360718 131.96565247 C79.80473039 129.46489793 80.00408244 126.96400005 80.20132446 124.4629364 C80.29166962 123.33587784 80.38201477 122.20881927 80.47509766 121.04760742 C80.55265289 120.06918381 80.63020813 119.09076019 80.71011353 118.08268738 C81.05831633 114.37985723 81.53869422 110.69044622 82 107 C39.43 107 -3.14 107 -47 107 C-48.04315872 95.00367473 -49.07645185 83.00612589 -50 71 C-5.12 71 39.76 71 86 71 C86.33 64.73 86.66 58.46 87 52 C87.33 46.72 87.66 41.44 88 36 C29.59 36 -28.82 36 -89 36 C-89 35.67 -89 35.34 -89 35 C-59.63 34.67 -30.26 34.34 0 34 C0 22.78 0 11.56 0 0 Z " fill="#F0662B" transform="translate(200,102)"/>
<path d="M0 0 C58.41 0 116.82 0 177 0 C177 16 177 16 175 35 C130.12 35 85.24 35 39 35 C39.66 39.29 40.32 43.58 41 48 C41.24496012 50.22543958 41.46400325 52.4544154 41.625 54.6875 C41.69976562 55.66074219 41.77453125 56.63398438 41.8515625 57.63671875 C42.04797835 62.08708836 42 66.54529812 42 71 C84.57 71 127.14 71 171 71 C171 71.33 171 71.66 171 72 C143.94 72 116.88 72 89 72 C89 83.55 89 95.1 89 107 C62.6 107 36.2 107 9 107 C8.34 99.41 7.68 91.82 7 84 C6.59833565 79.58019342 6.19392179 75.16093829 5.78125 70.7421875 C5.5688435 68.44272375 5.35660934 66.14324407 5.14453125 63.84375 C4.82373156 60.36996153 4.50198896 56.89627377 4.17724609 53.42285156 C2.51535471 35.62371748 1.23047046 17.8418216 0 0 Z " fill="#EBE9E9" transform="translate(111,138)"/>
<path d="M0 0 C11.55 0 23.1 0 35 0 C38.82509125 7.6501825 37.10190792 19.60958095 37 28 C37.88042969 28.12117188 38.76085937 28.24234375 39.66796875 28.3671875 C41.41013672 28.61855469 41.41013672 28.61855469 43.1875 28.875 C44.91033203 29.11863281 44.91033203 29.11863281 46.66796875 29.3671875 C49.70511419 29.94399589 52.17317003 30.78986805 55 32 C56.93812911 32.48453228 58.8767046 32.96762223 60.8203125 33.4296875 C63.85029389 34.22247833 66.77985931 35.25931756 69.7265625 36.31640625 C72.42169472 37.12679824 75.22395856 37.53732643 78 38 C77.67 50.21 77.34 62.42 77 75 C77.66 75.33 78.32 75.66 79 76 C71.87965288 75.37783375 65.3399923 73.52205736 58.5 71.5 C56.01715302 70.77786857 53.53407003 70.0565482 51.05078125 69.3359375 C50.40567093 69.147966 49.76056061 68.95999451 49.09590149 68.7663269 C41.30808597 66.49944206 33.4975431 64.31379614 25.6875 62.125 C23.65589448 61.55499662 21.62434953 60.98477824 19.59284973 60.41439819 C17.8246099 59.91801268 16.05623112 59.4221222 14.2878418 58.92626953 C10.85603947 57.95944262 7.42763154 56.98149595 4 56 C3.06776214 51.94746187 2.77125992 48.02463601 2.5625 43.875 C2.1915798 36.99815555 1.54120296 30.18175632 0.66040039 23.35107422 C-0.26874363 15.44851536 0 8.16208235 0 0 Z " fill="#EBE8E8" transform="translate(123,263)"/>
<path d="M0 0 C29.04 0 58.08 0 88 0 C88 16 88 16 86 35 C57.62 35 29.24 35 0 35 C0 23.45 0 11.9 0 0 Z " fill="#FEFEFD" transform="translate(200,138)"/>
<path d="M0 0 C6.93 0 13.86 0 21 0 C30 11.41935484 30 11.41935484 30 17 C30.66 17 31.32 17 32 17 C33.09246734 14.31123335 34.10951339 11.65501119 34.98828125 8.88671875 C36.3125 5.6875 36.3125 5.6875 41 0 C47.93 0 54.86 0 62 0 C62 18.15 62 36.3 62 55 C55.73 55 49.46 55 43 55 C42.67 47.41 42.34 39.82 42 32 C38.7 36.95 35.4 41.9 32 47 C27.54565072 44.77282536 26.12565619 42.49072896 23.75 38.375 C22.5125 36.27125 21.275 34.1675 20 32 C19.67 39.59 19.34 47.18 19 55 C12.73 55 6.46 55 0 55 C0 36.85 0 18.7 0 0 Z " fill="#050505" transform="translate(202,0)"/>
<path d="M0 0 C6.6 0 13.2 0 20 0 C20 5.61 20 11.22 20 17 C24.62 17 29.24 17 34 17 C34 11.39 34 5.78 34 0 C40.6 0 47.2 0 54 0 C54 18.15 54 36.3 54 55 C47.4 55 40.8 55 34 55 C34 49.06 34 43.12 34 37 C29.38 37 24.76 37 20 37 C20 42.94 20 48.88 20 55 C13.4 55 6.8 55 0 55 C0 36.85 0 18.7 0 0 Z " fill="#090909" transform="translate(84,0)"/>
<path d="M0 0 C14.19 0 28.38 0 43 0 C41.875 16.875 41.875 16.875 41.24609375 22.80859375 C41.11396484 24.06865234 40.98183594 25.32871094 40.84570312 26.62695312 C40.71099609 27.88443359 40.57628906 29.14191406 40.4375 30.4375 C40.29726399 31.76624841 40.15728918 33.09502441 40.01757812 34.42382812 C39.68093178 37.61616417 39.34171417 40.80820316 39 44 C33.76972649 45.45158875 28.5370037 46.8938403 23.30175781 48.32739258 C21.52012315 48.81667587 19.73919263 49.30853056 17.95898438 49.80297852 C15.40414052 50.51210416 12.84693015 51.21202806 10.2890625 51.91015625 C9.49005524 52.13405533 8.69104797 52.35795441 7.86782837 52.58863831 C2.22774341 54.11387171 2.22774341 54.11387171 0 53 C0 35.51 0 18.02 0 0 Z " fill="#F16528" transform="translate(200,247)"/>
<path d="M0 0 C44.22 0 88.44 0 134 0 C134 0.33 134 0.66 134 1 C105.95 1 77.9 1 49 1 C49 11.89 49 22.78 49 34 C76.06 34 103.12 34 131 34 C131 34.33 131 34.66 131 35 C88.43 35 45.86 35 2 35 C0.9876724 23.35823259 0 11.68569876 0 0 Z " fill="#E54C20" transform="translate(151,174)"/>
<path d="M0 0 C17.16 0 34.32 0 52 0 C52 6.27 52 12.54 52 19 C46.72 19 41.44 19 36 19 C36 30.88 36 42.76 36 55 C29.4 55 22.8 55 16 55 C16 43.12 16 31.24 16 19 C10.72 19 5.44 19 0 19 C0 12.73 0 6.46 0 0 Z " fill="#070707" transform="translate(144,0)"/>
<path d="M0 0 C6.6 0 13.2 0 20 0 C20.33 11.55 20.66 23.1 21 35 C28.85342779 34.96041007 28.85342779 34.96041007 36.70678711 34.90991211 C37.6788208 34.90741455 38.65085449 34.90491699 39.65234375 34.90234375 C41.15269165 34.89448853 41.15269165 34.89448853 42.68334961 34.88647461 C45 35 45 35 46 36 C46 42.27 46 48.54 46 55 C30.82 55 15.64 55 0 55 C0 36.85 0 18.7 0 0 Z " fill="#0B0B0B" transform="translate(271,0)"/>
</svg>
