<?xml version="1.0" encoding="UTF-8"?>
<svg version="1.1" xmlns="http://www.w3.org/2000/svg" width="400" height="400">
<path d="M0 0 C87.45 0 174.9 0 265 0 C265 9.5475009 264.98612202 18.61973949 263.98403931 28.0464325 C263.91167683 28.73711004 263.83931435 29.42778759 263.76475906 30.13939476 C263.6902792 30.85007418 263.61579933 31.56075359 263.5390625 32.29296875 C263.38609274 33.81480333 263.23396334 35.33672258 263.08261108 36.85871887 C262.68559078 40.8347489 262.28001751 44.8098508 261.87164307 48.784729 C261.14650412 55.84895686 260.43284382 62.91433219 259.7265625 69.98046875 C259.64929239 70.75100334 259.57202229 71.52153793 259.49241066 72.31542206 C258.35722451 83.68848765 257.4614422 95.05929358 256.73072815 106.46638489 C255.93077526 118.68222914 254.70590392 130.84762961 253.45675659 143.0244751 C251.57782509 161.37514496 249.7551498 179.724158 248.4375 198.125 C247.40074779 212.49725877 246.14880999 226.84379564 244.77249146 241.18768311 C244.55071569 243.50468121 244.33166198 245.82194161 244.115448 248.13946533 C243.81307262 251.36857296 243.49996447 254.59645601 243.18359375 257.82421875 C243.04932983 259.28064537 243.04932983 259.28064537 242.91235352 260.76649475 C242.77676025 262.11124123 242.77676025 262.11124123 242.63842773 263.4831543 C242.56309311 264.26264938 242.48775848 265.04214447 242.41014099 265.84526062 C241.95308508 268.24647483 241.32775842 269.94555181 240 272 C237.48012686 273.01583334 235.17479135 273.76481715 232.5625 274.4375 C231.91990234 274.61603516 231.27730469 274.79457031 230.61523438 274.97851562 C227.42594016 275.8547602 224.22388685 276.68129364 221.02319336 277.51477051 C208.93360678 280.66637554 196.89297517 283.96094555 184.875 287.375 C182.32014332 288.0987469 179.76511959 288.82190192 177.21008301 289.54501343 C175.52407325 290.02221231 173.83811869 290.49960629 172.15222168 290.97720337 C163.83129276 293.33368499 155.50282416 295.66287369 147.17138672 297.98193359 C146.25373535 298.23797363 145.33608398 298.49401367 144.390625 298.7578125 C143.60719727 298.9758252 142.82376953 299.19383789 142.01660156 299.41845703 C140.33192087 299.90428142 138.66335713 300.44554762 137 301 C129.82000481 301.81244112 123.69446193 299.99773343 116.9375 297.75 C109.73493803 295.40451162 102.51932534 293.33194926 95.16218567 291.53334045 C87.93379124 289.75897038 80.78140236 287.73079594 73.625 285.6875 C62.19194287 282.43663029 50.74228752 279.27558418 39.23486328 276.2956543 C37.31427903 275.78938691 35.39910296 275.26186836 33.49169922 274.70800781 C31.0674379 273.97667827 31.0674379 273.97667827 28.80908203 273.59667969 C26.91015625 273.1171875 26.91015625 273.1171875 24 271 C23.32884216 268.44525146 23.32884216 268.44525146 22.90795898 265.24902344 C22.75101059 264.07520111 22.59406219 262.90137878 22.43235779 261.69198608 C21.73841908 255.76631033 21.11787335 249.83869798 20.5625 243.8984375 C20.4358763 242.56920039 20.30899819 241.23998749 20.18188477 239.91079712 C19.91736291 237.13606469 19.65543292 234.36110422 19.39550781 231.5859375 C19.07055582 228.1179431 18.7398459 224.65052887 18.40730286 221.1832552 C17.13852615 207.934717 15.93825667 194.68706591 15 181.41015625 C13.85857997 165.28169086 12.21766168 149.20529282 10.60449219 133.1184082 C9.23662981 119.43554171 7.93107062 105.76381659 7.0078125 92.04296875 C6.33819152 82.09811368 5.48686945 72.18317969 4.4921875 62.265625 C4.42638741 61.60701414 4.36058731 60.94840328 4.29279327 60.26983452 C3.68872089 54.23170418 3.07568999 48.1945047 2.45361328 42.15820312 C2.17515875 39.45287648 1.90108913 36.74716684 1.63137817 34.04095459 C1.38206615 31.54243876 1.12666722 29.04451826 0.86349487 26.54742432 C-0.02442896 17.56654712 0 9.14509475 0 0 Z " fill="#E3A129" transform="translate(68,90)"/>
<path d="M0 0 C43.89 0 87.78 0 133 0 C134.16780273 2.33560545 134.26258671 4.01957548 134.46484375 6.62304688 C134.58001343 8.06726013 134.58001343 8.06726013 134.69750977 9.54064941 C134.77670654 10.58942261 134.85590332 11.6381958 134.9375 12.71875 C135.02249756 13.80522827 135.10749512 14.89170654 135.19506836 16.0111084 C135.37518872 18.32447241 135.55326795 20.63799609 135.72949219 22.95166016 C135.99469338 26.43039138 136.2662863 29.90857424 136.5390625 33.38671875 C137.51307152 45.91932791 138.35893814 58.44587189 139 71 C127.78 71 116.56 71 105 71 C103.74706661 59.5669828 102.65716141 48.50413949 103 37 C101.85337891 37.01740234 101.85337891 37.01740234 100.68359375 37.03515625 C94.9122552 37.08377162 89.22148206 36.97911317 83.46875 36.5 C73.00568673 35.77107175 62.54564573 35.89239107 52.0625 35.9375 C50.01106881 35.94252842 47.95963642 35.94708893 45.90820312 35.95117188 C40.93877177 35.9620634 35.96939958 35.97925294 31 36 C31.01732178 37.29309082 31.03464355 38.58618164 31.05249023 39.91845703 C31.05054178 44.75735843 30.66899402 49.49598379 30.16015625 54.3046875 C30.07374374 55.1504837 29.98733124 55.99627991 29.89830017 56.8677063 C29.71639065 58.63761848 29.53224831 60.4073025 29.34594727 62.17675781 C29.06112605 64.88807913 28.78495978 67.6001864 28.50976562 70.3125 C28.33123889 72.03911528 28.15222009 73.76567977 27.97265625 75.4921875 C27.89032242 76.30154755 27.80798859 77.11090759 27.72315979 77.9447937 C27.3858717 81.11303883 27.01094318 83.96717047 26 87 C63.29 87 100.58 87 139 87 C138.67 92.28 138.34 97.56 138 103 C137.85820312 105.3821875 137.71640625 107.764375 137.5703125 110.21875 C135.95721161 136.91402385 133.56233187 163.4867819 130 190 C128.98421875 190.24234375 127.9684375 190.4846875 126.921875 190.734375 C120.48702764 192.29321952 114.12914431 193.86761738 107.875 196.0625 C103.73258557 197.50455018 99.67903422 198.53097494 95.375 199.375 C89.66198352 200.51254753 84.35169655 202.19504025 78.875 204.125 C63.18095325 209.42798893 53.28065999 206.97671809 37.76464844 201.875 C34.00456377 200.68494848 30.21185396 199.71847667 26.375 198.8125 C20.64986141 197.43705603 15.05181228 195.84926294 9.453125 194.02734375 C4.34675256 192.50814018 -0.82570471 191.26521289 -6 190 C-6.71743234 183.57765412 -7.42887476 177.15466464 -8.13623047 170.73120117 C-8.37737607 168.54778149 -8.61987359 166.36451066 -8.86376953 164.18139648 C-9.21485418 161.03668111 -9.56101376 157.89145589 -9.90625 154.74609375 C-10.0156189 153.7760289 -10.12498779 152.80596405 -10.2376709 151.8065033 C-10.77828428 146.83571555 -11.12084573 141.99999228 -11 137 C-6.17619198 136.9753481 -1.35242033 136.95716307 3.47143555 136.94506836 C5.11369464 136.94002826 6.75594923 136.93319622 8.39819336 136.92456055 C10.75375479 136.91248074 13.10925709 136.90676861 15.46484375 136.90234375 C16.20339096 136.89718246 16.94193817 136.89202118 17.7028656 136.88670349 C19.46898088 136.8865075 21.23497146 136.93805281 23 137 C24.77490546 138.77490546 24.23499973 141.37784902 24.31640625 143.78515625 C24.35830078 144.95498047 24.40019531 146.12480469 24.44335938 147.33007812 C24.48267578 148.56177734 24.52199219 149.79347656 24.5625 151.0625 C24.60568359 152.29806641 24.64886719 153.53363281 24.69335938 154.80664062 C24.79984198 157.87097335 24.90185424 160.93539073 25 164 C25.88812378 164.0462854 25.88812378 164.0462854 26.79418945 164.09350586 C33.68231575 164.59869327 39.68796446 166.29730645 46.1875 168.5625 C56.20171732 172.05075157 63.09641786 172.55150787 73.3125 169.6875 C74.57163208 169.34682495 74.57163208 169.34682495 75.85620117 168.99926758 C80.91035119 167.62121931 85.9328613 166.16538856 90.89453125 164.48046875 C93.61995239 163.85852664 96.21267606 163.97081957 99 164 C99.05534912 162.98164063 99.11069824 161.96328125 99.16772461 160.9140625 C99.37552375 157.10449688 99.58700973 153.29514305 99.79956055 149.48583984 C99.89072236 147.84299097 99.98090919 146.20008768 100.07006836 144.55712891 C100.1990398 142.18376628 100.33161759 139.81062715 100.46484375 137.4375 C100.50343002 136.71320801 100.5420163 135.98891602 100.58177185 135.24267578 C100.64172081 134.19249268 100.64172081 134.19249268 100.70288086 133.12109375 C100.75284462 132.21508423 100.75284462 132.21508423 100.80381775 131.29077148 C101.09848518 127.85001301 101.57166426 124.4266859 102 121 C65.04 121 28.08 121 -10 121 C-10 102.63497583 -10 102.63497583 -9.16015625 95.21484375 C-9.07374374 94.38521622 -8.98733124 93.55558868 -8.89830017 92.70082092 C-8.62744818 90.11215336 -8.34570024 87.5248428 -8.0625 84.9375 C-7.69516066 81.50953702 -7.33289402 78.08105966 -6.97265625 74.65234375 C-6.88529205 73.83099945 -6.79792786 73.00965515 -6.70791626 72.16342163 C-6.035454 65.70792924 -5.58508785 59.25651419 -5.24389648 52.77563477 C-5 50 -5 50 -4 48 C-3.79936927 45.9623153 -3.65403556 43.91908399 -3.53515625 41.875 C-3.45716797 40.60914063 -3.37917969 39.34328125 -3.29882812 38.0390625 C-3.21952727 36.69273914 -3.1407517 35.34638474 -3.0625 34 C-2.39763448 22.59900169 -1.26381862 11.3743676 0 0 Z " fill="#ECEBEA" transform="translate(138,125)"/>
<path d="M0 0 C35.97 0 71.94 0 109 0 C105.57139156 44.57190966 105.57139156 44.57190966 104.23580933 57.20385742 C103.89208185 60.45972664 103.5617547 63.71693807 103.22984314 66.97402954 C102.97867609 69.43706106 102.72597588 71.89993181 102.47314453 74.36279297 C100.44138202 94.21858382 98.74313874 114.08036014 97.31222534 133.98733521 C96.51644439 144.99419183 95.51497936 155.92866811 94.12719727 166.87915039 C92.64201029 179.07827615 91.89302535 191.34373976 91.08984375 203.60327148 C90.47146806 212.83426657 89.63960391 221.88338847 88 231 C81.23278157 233.62981969 74.60158071 235.61339734 67.5078125 237.15625 C63.67344516 238.07854771 59.9375116 239.22629354 56.1875 240.4375 C50.29370716 242.33454698 44.38749347 243.95907284 38.36328125 245.40551758 C31.72028114 247.02031481 25.16838457 248.9320597 18.62036133 250.89428711 C12.38327343 252.72587539 6.48497374 253.82091387 0 255 C-0.33 243.78 -0.66 232.56 -1 221 C2.63 220.01 6.26 219.02 10 218 C13.23280766 217.03093296 16.4613975 216.05309559 19.6875 215.0625 C25.92366515 213.16468959 32.16181382 211.39832762 38.5 209.875 C43.23215638 208.73718775 47.78894579 207.44037421 52.375 205.8125 C57.59127235 203.99037747 62.50711648 203.30317417 68 203 C68.05551025 202.18805176 68.11102051 201.37610352 68.16821289 200.53955078 C68.83514889 190.9763211 69.61475853 181.42588234 70.4375 171.875 C70.53646072 170.71931519 70.53646072 170.71931519 70.63742065 169.5402832 C71.44622547 160.10467467 72.30650153 150.67885506 73.29833984 141.26049805 C74.15321734 132.92051387 74.72707194 124.55852834 75.30297852 116.1953125 C75.37959717 115.10347656 75.45621582 114.01164062 75.53515625 112.88671875 C75.600979 111.91951904 75.66680176 110.95231934 75.73461914 109.95581055 C76.03376625 106.62391167 76.52690299 103.31167909 77 100 C39.71 100 2.42 100 -36 100 C-32 58 -32 58 -31 49 C-6.92115681 47.09814497 16.96371255 47.93966851 41 50 C41.34285445 53.41577869 41.67243725 56.83272373 42 60.25 C42.09539062 61.19875 42.19078125 62.1475 42.2890625 63.125 C42.37929687 64.07890625 42.46953125 65.0328125 42.5625 66.015625 C42.64628906 66.87446289 42.73007813 67.73330078 42.81640625 68.61816406 C43.09436745 73.73826846 43 78.87235615 43 84 C54.22 84 65.44 84 77 84 C76.566875 80.266875 76.13375 76.53375 75.6875 72.6875 C73.48011153 52.84192108 72.32387303 32.92113703 71 13 C47.57 13 24.14 13 0 13 C0 8.71 0 4.42 0 0 Z " fill="#F0BE25" transform="translate(200,112)"/>
<path d="M0 0 C25.41 0 50.82 0 77 0 C76.67 4.95 76.34 9.9 76 15 C75.78449367 18.5715276 75.56898905 22.14305531 75.35375977 25.71459961 C73.78541835 51.23822632 71.40593972 76.6507552 68 102 C66.98421875 102.24234375 65.9684375 102.4846875 64.921875 102.734375 C58.48702764 104.29321952 52.12914431 105.86761738 45.875 108.0625 C41.73258557 109.50455018 37.67903422 110.53097494 33.375 111.375 C27.66198352 112.51254753 22.35169655 114.19504025 16.875 116.125 C1.18095325 121.42798893 -8.71934001 118.97671809 -24.23535156 113.875 C-27.99543623 112.68494848 -31.78814604 111.71847667 -35.625 110.8125 C-41.35013859 109.43705603 -46.94818772 107.84926294 -52.546875 106.02734375 C-57.65324744 104.50814018 -62.82570471 103.26521289 -68 102 C-68.71743234 95.57765412 -69.42887476 89.15466464 -70.13623047 82.73120117 C-70.37737607 80.54778149 -70.61987359 78.36451066 -70.86376953 76.18139648 C-71.21485418 73.03668111 -71.56101376 69.89145589 -71.90625 66.74609375 C-72.0156189 65.7760289 -72.12498779 64.80596405 -72.2376709 63.8065033 C-72.77828428 58.83571555 -73.12084573 53.99999228 -73 49 C-68.17619198 48.9753481 -63.35242033 48.95716307 -58.52856445 48.94506836 C-56.88630536 48.94002826 -55.24405077 48.93319622 -53.60180664 48.92456055 C-51.24624521 48.91248074 -48.89074291 48.90676861 -46.53515625 48.90234375 C-45.79660904 48.89718246 -45.05806183 48.89202118 -44.2971344 48.88670349 C-42.53101912 48.8865075 -40.76502854 48.93805281 -39 49 C-37.22509454 50.77490546 -37.76500027 53.37784902 -37.68359375 55.78515625 C-37.64169922 56.95498047 -37.59980469 58.12480469 -37.55664062 59.33007812 C-37.51732422 60.56177734 -37.47800781 61.79347656 -37.4375 63.0625 C-37.39431641 64.29806641 -37.35113281 65.53363281 -37.30664062 66.80664062 C-37.20015802 69.87097335 -37.09814576 72.93539073 -37 76 C-36.11187622 76.0462854 -36.11187622 76.0462854 -35.20581055 76.09350586 C-28.31768425 76.59869327 -22.31203554 78.29730645 -15.8125 80.5625 C-5.79828268 84.05075157 1.09641786 84.55150787 11.3125 81.6875 C12.15192139 81.4603833 12.99134277 81.2332666 13.85620117 80.99926758 C18.91035119 79.62121931 23.9328613 78.16538856 28.89453125 76.48046875 C31.61995239 75.85852664 34.21267606 75.97081957 37 76 C37.07516846 74.90667358 37.07516846 74.90667358 37.15185547 73.79125977 C37.38872433 70.3813687 37.63185674 66.97194921 37.875 63.5625 C37.95363281 62.41716797 38.03226562 61.27183594 38.11328125 60.09179688 C38.79236235 50.66301701 39.89212066 41.41697437 41 32 C27.47 32 13.94 32 0 32 C0 21.44 0 10.88 0 0 Z " fill="#FEFEFD" transform="translate(200,213)"/>
<path d="M0 0 C17.42950592 -0.04010881 17.42950592 -0.04010881 24.83398438 -0.04882812 C29.89511152 -0.05481611 34.95622064 -0.06191521 40.01733398 -0.07543945 C44.09568543 -0.08626991 48.17401757 -0.09227717 52.25238228 -0.09487724 C53.81177639 -0.09673121 55.3711694 -0.10035127 56.93055534 -0.10573006 C59.10729162 -0.11294262 61.28394714 -0.11399085 63.46069336 -0.11352539 C65.32267616 -0.11685631 65.32267616 -0.11685631 67.22227478 -0.12025452 C70 0 70 0 71 1 C71.20529726 2.4971284 71.34810404 4.00289869 71.46484375 5.50952148 C71.58001343 6.95384804 71.58001343 6.95384804 71.69750977 8.42735291 C71.77670654 9.48128738 71.85590332 10.53522186 71.9375 11.62109375 C72.02249756 12.70898697 72.10749512 13.79688019 72.19506836 14.91773987 C72.37536378 17.23706703 72.55343355 19.55656808 72.72949219 21.8762207 C72.99440539 25.36384602 73.26607823 28.85088882 73.5390625 32.33789062 C74.51247156 44.88671078 75.35777613 57.42980579 76 70 C64.78 70 53.56 70 42 70 C40.7452148 58.55008506 39.72922816 47.51526545 40 36 C38.84141479 36.01740234 38.84141479 36.01740234 37.65942383 36.03515625 C29.2864728 36.10528042 21.03026702 35.6746257 12.6875 35 C8.500625 34.67 4.31375 34.34 0 34 C0 22.78 0 11.56 0 0 Z " fill="#FEFEFD" transform="translate(201,126)"/>
<path d="M0 0 C4.82380802 -0.0246519 9.64757967 -0.04283693 14.47143555 -0.05493164 C16.11369464 -0.05997174 17.75594923 -0.06680378 19.39819336 -0.07543945 C21.75375479 -0.08751926 24.10925709 -0.09323139 26.46484375 -0.09765625 C27.20339096 -0.10281754 27.94193817 -0.10797882 28.7028656 -0.11329651 C30.46898088 -0.1134925 32.23497146 -0.06194719 34 0 C35.77490546 1.77490546 35.23499973 4.37784902 35.31640625 6.78515625 C35.35830078 7.95498047 35.40019531 9.12480469 35.44335938 10.33007812 C35.48267578 11.56177734 35.52199219 12.79347656 35.5625 14.0625 C35.60568359 15.29806641 35.64886719 16.53363281 35.69335938 17.80664062 C35.79984198 20.87097335 35.90185424 23.93539073 36 27 C36.59135742 27.03158203 37.18271484 27.06316406 37.79199219 27.09570312 C44.67978161 27.60590975 50.73536801 29.27178109 57.25 31.5 C59.14975843 32.13924304 61.0507707 32.77477406 62.953125 33.40625 C63.77973633 33.68791016 64.60634766 33.96957031 65.45800781 34.25976562 C68.53810417 35.21090261 68.53810417 35.21090261 74 36 C73.67 47.55 73.34 59.1 73 71 C69.23809609 70.37301602 65.96973344 69.79075112 62.3828125 68.73046875 C61.53654297 68.48345215 60.69027344 68.23643555 59.81835938 67.98193359 C58.48514648 67.58868896 58.48514648 67.58868896 57.125 67.1875 C50.60993876 65.29161265 44.09512402 63.47114731 37.5 61.875 C31.73830044 60.46956519 26.09228774 58.86243442 20.453125 57.02734375 C15.34675256 55.50814018 10.17429529 54.26521289 5 53 C4.28256766 46.57765412 3.57112524 40.15466464 2.86376953 33.73120117 C2.62262393 31.54778149 2.38012641 29.36451066 2.13623047 27.18139648 C1.78514582 24.03668111 1.43898624 20.89145589 1.09375 17.74609375 C0.9843811 16.7760289 0.87501221 15.80596405 0.7623291 14.8065033 C0.22171572 9.83571555 -0.12084573 4.99999228 0 0 Z " fill="#EBEBEB" transform="translate(127,262)"/>
<path d="M0 0 C15.51 0 31.02 0 47 0 C47 5.28 47 10.56 47 16 C41.06 16.33 35.12 16.66 29 17 C30.835625 18.98 32.67125 20.96 34.5625 23 C35.66348285 24.20897791 36.76388869 25.41848202 37.86328125 26.62890625 C39.6417114 28.57167978 41.40755519 30.37240947 43.35546875 32.15234375 C45.25 33.9375 45.25 33.9375 48 38 C48 42.62 48 47.24 48 52 C32.16 52 16.32 52 0 52 C0 46.72 0 41.44 0 36 C9.9 35.505 9.9 35.505 20 35 C18.494375 33.515 16.98875 32.03 15.4375 30.5 C11.61928746 26.68719569 7.96594361 22.80267074 4.47265625 18.69140625 C3.05388828 17.06189291 1.52777883 15.52777883 0 14 C0 9.38 0 4.76 0 0 Z " fill="#171717" transform="translate(201,17)"/>
<path d="M0 0 C13.2 0 26.4 0 40 0 C39.87625 4.49625 39.7525 8.9925 39.625 13.625 C39.59100098 15.01154785 39.55700195 16.3980957 39.52197266 17.82666016 C39.25596697 26.36171146 38.38773848 34.57735696 37 43 C35.96609131 43.25595947 34.93218262 43.51191895 33.86694336 43.77563477 C25.26205419 45.90815822 16.68181325 48.11779723 8.12182617 50.42456055 C2.21624595 52 2.21624595 52 0 52 C0 34.84 0 17.68 0 0 Z " fill="#F1BF26" transform="translate(200,246)"/>
<path d="M0 0 C0 16.83 0 33.66 0 51 C-11.88 51.33 -23.76 51.66 -36 52 C-35.44932021 46.18328467 -34.89819242 40.36661526 -34.34594727 34.55004883 C-34.15851352 32.57448747 -33.97133477 30.5989019 -33.78442383 28.62329102 C-33.51451843 25.77093078 -33.24367255 22.91866112 -32.97265625 20.06640625 C-32.89032242 19.19415909 -32.80798859 18.32191193 -32.72315979 17.42323303 C-32.20122929 11.94222367 -31.62073999 6.47072406 -31 1 C-28.45861157 0.82770248 -25.91704079 0.66216467 -23.375 0.5 C-22.68148437 0.45230469 -21.98796875 0.40460938 -21.2734375 0.35546875 C-14.14340244 -0.09015844 -7.19678985 0 0 0 Z " fill="#E5A227" transform="translate(200,160)"/>
<path d="M0 0 C6.27 0 12.54 0 19 0 C19 17.16 19 34.32 19 52 C5.14 52 -8.72 52 -23 52 C-23 45.73 -23 39.46 -23 33 C-15.41 33 -7.82 33 0 33 C0 22.11 0 11.22 0 0 Z " fill="#0F1111" transform="translate(175,17)"/>
</svg>
