<svg xmlns="http://www.w3.org/2000/svg" width="400" height="400"><path d="M68 90h265l-1 28v4l-1 5-1 12-2 21-1 2-2 34-4 37-5 55-3 43-1 7-1 10v5l-1 3-2 6-7 2-2 1-10 3-36 9-8 3-5 1-25 7-3 1h-2l-5 2c-7 1-13-1-20-3-7-3-14-5-22-6l-21-6-35-10-6-1-4-1-5-3-1-6-1-3-1-18-1-4-1-8-1-11-3-40-4-48-4-41-3-30v-2l-2-18v-8l-1-7-1-27z" fill="#E3A129"/><path d="M138 125h133l1 7 1 3v6l1 7 1 10 2 38h-34l-2-34h-20l-31-1h-21v4l-1 14v3l-1 5v8l-1 5v3l-2 9h113l-1 16v7c-2 27-4 53-8 80l-3 1-19 5c-4 2-8 3-13 3l-16 5c-16 5-26 3-41-2l-12-3-17-5-15-4-2-19-1-7-1-9v-3l-1-15h34c2 2 1 4 1 7v3l1 4v13h2c7 1 13 2 19 5 10 3 17 4 27 1l3-1 15-5h8v-3l1-12v-4-8l1-2v-2-2l1-10H128l1-26v-2l1-8 1-10v-3l2-19 1-5v-6l1-4v-4l3-34z" fill="#ECEBEA"/><path d="M200 112h109l-5 57-1 10-1 7-5 60-3 33-3 37-3 27c-7 3-13 5-20 6l-12 3-18 5-19 6-19 4-1-34 11-3 10-3 19-5 13-4 16-3v-2l2-29 1-2 2-29 2-25 1-3v-3l1-10H164l5-51c24-2 48-1 72 1l1 10v3l1 3v18h34l-1-11c-3-20-4-40-5-60h-71v-13z" fill="#F0BE25"/><path d="M200 213h77l-1 15-1 11c-1 25-4 51-7 76l-3 1-19 5c-4 2-8 3-13 3l-16 5c-16 5-26 3-41-2l-12-3-17-5-15-4-2-19-1-7-1-9v-3l-1-15h34c2 2 1 4 1 7v3l1 4v13h2c7 1 13 2 19 5 10 3 17 4 27 1l3-1 15-5h8v-2l1-10v-4l3-28h-41v-32zM201 126h67l4 1v5l1 2v7l1 7 1 10 2 38h-34l-2-34h-2l-25-1-13-1v-34z" fill="#FEFEFD"/><path d="M127 262h34c2 2 1 4 1 7v3l1 4v13h2l19 4 6 2 2 1 9 2-1 35-11-2-2-1-3-1-19-5-18-5-15-4-2-19-1-7-1-9v-3l-1-15z" fill="#EBEBEB"/><path d="M201 17h47v16l-18 1 6 6 3 4 5 5 5 6v14h-48V53l20-1-5-4-11-12-4-5V17z" fill="#171717"/><path d="M200 246h40v18l-3 25-3 1-26 6-8 2v-52z" fill="#F1BF26"/><path d="M200 160v51l-36 1 2-17v-6l1-9v-3l2-16h8l2-1h21z" fill="#E5A227"/><path d="M175 17h19v52h-42V50h23V17z" fill="#0F1111"/></svg>