<?xml version="1.0" encoding="UTF-8"?>
<svg version="1.1" xmlns="http://www.w3.org/2000/svg" width="400" height="400">
<path d="M0 0 C3.81908757 0.02145418 7.63629073 0.00004839 11.45532227 -0.02539062 C45.33612828 -0.06209009 84.7604782 4.08406893 111.88696289 26.52148438 C130.37232071 48.32472693 126.72902415 89.16008401 124.57446289 115.54101562 C122.59618134 137.12842429 117.1497386 157.55674965 106.87036133 176.66748047 C105.14513888 179.92004732 103.52324425 183.22346839 101.88696289 186.52148438 C101.22696289 186.52148438 100.56696289 186.52148438 99.88696289 186.52148438 C98.89696289 189.49148437 98.89696289 189.49148437 97.88696289 192.52148438 C97.22696289 192.52148438 96.56696289 192.52148438 95.88696289 192.52148438 C95.6459082 193.23304688 95.40485352 193.94460937 95.15649414 194.67773438 C93.6978889 197.94501012 91.86701045 200.27813334 89.57446289 203.02148438 C88.81520508 203.93929687 88.05594727 204.85710937 87.27368164 205.80273438 C84.91185966 208.49312406 82.42377746 210.99718699 79.88696289 213.52148438 C78.97276272 214.61049284 78.07240384 215.71163172 77.19946289 216.83398438 C76.43633789 217.72085938 75.67321289 218.60773438 74.88696289 219.52148438 C74.22696289 219.52148438 73.56696289 219.52148438 72.88696289 219.52148438 C72.55696289 220.51148438 72.22696289 221.50148437 71.88696289 222.52148438 C70.42602539 224.02929688 70.42602539 224.02929688 68.51196289 225.64648438 C67.7965332 226.25105469 67.08110352 226.855625 66.34399414 227.47851562 C65.53317383 228.15269531 64.72235352 228.826875 63.88696289 229.52148438 C62.96270508 230.30910156 62.03844727 231.09671875 61.08618164 231.90820312 C60.13356445 232.70871094 59.18094727 233.50921875 58.19946289 234.33398438 C57.3087207 235.08292969 56.41797852 235.831875 55.50024414 236.60351562 C53.00395941 238.43561697 50.80409233 239.52808354 47.88696289 240.52148438 C47.88696289 241.18148437 47.88696289 241.84148437 47.88696289 242.52148438 C44.91696289 243.51148438 44.91696289 243.51148438 41.88696289 244.52148438 C41.88696289 245.18148437 41.88696289 245.84148437 41.88696289 246.52148438 C36.24067783 250.87758636 29.43104856 253.79542071 23.01196289 256.83398438 C22.27469971 257.18348145 21.53743652 257.53297852 20.77783203 257.89306641 C12.2498822 261.85787495 3.39162995 263.24922863 -5.80053711 260.27148438 C-7.2493692 259.7168948 -8.68699014 259.13228227 -10.11303711 258.52148438 C-10.95608398 258.16183594 -11.79913086 257.8021875 -12.66772461 257.43164062 C-14.82845929 256.4858985 -16.97498094 255.51722212 -19.11303711 254.52148438 C-19.11303711 253.86148438 -19.11303711 253.20148438 -19.11303711 252.52148438 C-20.02053711 252.23273438 -20.92803711 251.94398438 -21.86303711 251.64648438 C-24.43506619 250.75616662 -26.72650477 249.80654025 -29.11303711 248.52148438 C-29.11303711 247.86148438 -29.11303711 247.20148438 -29.11303711 246.52148438 C-29.68538086 246.40675781 -30.25772461 246.29203125 -30.84741211 246.17382812 C-33.32775367 245.45966081 -35.17672408 244.44840565 -37.36303711 243.08398438 C-38.06944336 242.65214844 -38.77584961 242.2203125 -39.50366211 241.77539062 C-40.30030273 241.15470703 -40.30030273 241.15470703 -41.11303711 240.52148438 C-41.11303711 239.86148438 -41.11303711 239.20148438 -41.11303711 238.52148438 C-41.67764648 238.26496094 -42.24225586 238.0084375 -42.82397461 237.74414062 C-68.43563909 224.06419014 -89.11765039 194.04766732 -101.11303711 168.52148438 C-101.85360352 167.04035156 -101.85360352 167.04035156 -102.60913086 165.52929688 C-106.1925384 157.9157193 -108.38417 150.24498342 -110.36303711 142.08398438 C-110.73235352 140.56671753 -110.73235352 140.56671753 -111.10913086 139.01879883 C-114.57597718 124.03450486 -115.46146292 109.56138524 -115.42871094 94.24316406 C-115.42554942 91.15849465 -115.44910213 88.0747862 -115.47436523 84.99023438 C-115.5349991 65.93601818 -114.56750308 42.04080774 -102.11303711 26.52148438 C-77.65259396 2.15829945 -32.17050564 -0.2139352 0 0 Z " fill="#40301F" transform="translate(194.113037109375,34.478515625)"/>
<path d="M0 0 C3.81908757 0.02145418 7.63629073 0.00004839 11.45532227 -0.02539062 C45.33612828 -0.06209009 84.7604782 4.08406893 111.88696289 26.52148438 C130.37232071 48.32472693 126.72902415 89.16008401 124.57446289 115.54101562 C122.59618134 137.12842429 117.1497386 157.55674965 106.87036133 176.66748047 C105.14513888 179.92004732 103.52324425 183.22346839 101.88696289 186.52148438 C101.22696289 186.52148438 100.56696289 186.52148438 99.88696289 186.52148438 C98.89696289 189.49148437 98.89696289 189.49148437 97.88696289 192.52148438 C97.22696289 192.52148438 96.56696289 192.52148438 95.88696289 192.52148438 C95.6459082 193.23304688 95.40485352 193.94460937 95.15649414 194.67773438 C93.6978889 197.94501012 91.86701045 200.27813334 89.57446289 203.02148438 C88.81520508 203.93929687 88.05594727 204.85710937 87.27368164 205.80273438 C84.91185966 208.49312406 82.42377746 210.99718699 79.88696289 213.52148438 C78.97276272 214.61049284 78.07240384 215.71163172 77.19946289 216.83398438 C76.43633789 217.72085938 75.67321289 218.60773438 74.88696289 219.52148438 C74.22696289 219.52148438 73.56696289 219.52148438 72.88696289 219.52148438 C72.55696289 220.51148438 72.22696289 221.50148437 71.88696289 222.52148438 C70.42602539 224.02929688 70.42602539 224.02929688 68.51196289 225.64648438 C67.7965332 226.25105469 67.08110352 226.855625 66.34399414 227.47851562 C65.53317383 228.15269531 64.72235352 228.826875 63.88696289 229.52148438 C62.96270508 230.30910156 62.03844727 231.09671875 61.08618164 231.90820312 C60.13356445 232.70871094 59.18094727 233.50921875 58.19946289 234.33398438 C57.3087207 235.08292969 56.41797852 235.831875 55.50024414 236.60351562 C53.00395941 238.43561697 50.80409233 239.52808354 47.88696289 240.52148438 C47.88696289 241.18148437 47.88696289 241.84148437 47.88696289 242.52148438 C44.91696289 243.51148438 44.91696289 243.51148438 41.88696289 244.52148438 C41.88696289 245.18148437 41.88696289 245.84148437 41.88696289 246.52148438 C36.24067783 250.87758636 29.43104856 253.79542071 23.01196289 256.83398438 C22.27469971 257.18348145 21.53743652 257.53297852 20.77783203 257.89306641 C12.2498822 261.85787495 3.39162995 263.24922863 -5.80053711 260.27148438 C-7.2493692 259.7168948 -8.68699014 259.13228227 -10.11303711 258.52148438 C-10.95608398 258.16183594 -11.79913086 257.8021875 -12.66772461 257.43164062 C-14.82845929 256.4858985 -16.97498094 255.51722212 -19.11303711 254.52148438 C-19.11303711 253.86148438 -19.11303711 253.20148438 -19.11303711 252.52148438 C-20.02053711 252.23273438 -20.92803711 251.94398438 -21.86303711 251.64648438 C-24.43506619 250.75616662 -26.72650477 249.80654025 -29.11303711 248.52148438 C-29.11303711 247.86148438 -29.11303711 247.20148438 -29.11303711 246.52148438 C-29.68538086 246.40675781 -30.25772461 246.29203125 -30.84741211 246.17382812 C-33.32775367 245.45966081 -35.17672408 244.44840565 -37.36303711 243.08398438 C-38.06944336 242.65214844 -38.77584961 242.2203125 -39.50366211 241.77539062 C-40.30030273 241.15470703 -40.30030273 241.15470703 -41.11303711 240.52148438 C-41.11303711 239.86148438 -41.11303711 239.20148438 -41.11303711 238.52148438 C-41.67764648 238.26496094 -42.24225586 238.0084375 -42.82397461 237.74414062 C-68.43563909 224.06419014 -89.11765039 194.04766732 -101.11303711 168.52148438 C-101.85360352 167.04035156 -101.85360352 167.04035156 -102.60913086 165.52929688 C-106.1925384 157.9157193 -108.38417 150.24498342 -110.36303711 142.08398438 C-110.73235352 140.56671753 -110.73235352 140.56671753 -111.10913086 139.01879883 C-114.57597718 124.03450486 -115.46146292 109.56138524 -115.42871094 94.24316406 C-115.42554942 91.15849465 -115.44910213 88.0747862 -115.47436523 84.99023438 C-115.5349991 65.93601818 -114.56750308 42.04080774 -102.11303711 26.52148438 C-77.65259396 2.15829945 -32.17050564 -0.2139352 0 0 Z M-34.11303711 31.52148438 C-35.21131836 31.63105469 -36.30959961 31.740625 -37.44116211 31.85351562 C-44.52461831 32.66330773 -51.10927409 34.62930906 -57.86303711 36.83398438 C-58.73887451 37.11781982 -59.61471191 37.40165527 -60.51708984 37.6940918 C-67.70881894 40.1416885 -76.49406223 43.16036512 -81.11303711 49.52148438 C-82.01101223 52.12988829 -82.70803656 54.53648188 -83.30053711 57.20898438 C-83.46489258 57.87865234 -83.62924805 58.54832031 -83.79858398 59.23828125 C-91.45164808 91.67859747 -86.60853726 131.13218241 -71.11303711 160.52148438 C-70.81139648 161.09592285 -70.50975586 161.67036133 -70.19897461 162.26220703 C-63.29806951 175.26101557 -54.18400948 185.88734406 -44.11303711 196.52148438 C-43.22487305 197.46378906 -42.33670898 198.40609375 -41.42163086 199.37695312 C-29.76585576 211.40598449 -16.53808207 220.19447996 -2.11303711 228.52148438 C-1.07018555 229.16214844 -0.02733398 229.8028125 1.04711914 230.46289062 C3.86609698 231.79832854 3.86609698 231.79832854 6.86352539 230.91992188 C22.89146443 223.50648237 37.19155252 212.7254595 49.88696289 200.52148438 C50.35553711 200.07869141 50.82411133 199.63589844 51.30688477 199.1796875 C78.0485665 173.82899051 94.36305456 140.0996887 96.04370117 103.06787109 C97.36095006 75.06661896 97.36095006 75.06661896 89.88696289 48.52148438 C86.13937487 44.86231494 81.89145579 42.96253489 77.13696289 40.95898438 C76.13922852 40.52295898 76.13922852 40.52295898 75.12133789 40.078125 C66.60234885 36.41659798 58.20722042 33.99647693 49.07446289 32.39648438 C48.16631836 32.22761719 47.25817383 32.05875 46.32250977 31.88476562 C33.0380333 29.50349744 19.83961624 29.31998885 6.38696289 29.33398438 C5.49778168 29.33392395 4.60860046 29.33386353 3.69247437 29.33380127 C-9.02577623 29.34613141 -21.5076799 29.70785645 -34.11303711 31.52148438 Z " fill="#81C165" transform="translate(194.113037109375,34.478515625)"/>
<path d="M0 0 C3.81908757 0.02145418 7.63629073 0.00004839 11.45532227 -0.02539062 C45.33612828 -0.06209009 84.7604782 4.08406893 111.88696289 26.52148438 C130.37232071 48.32472693 126.72902415 89.16008401 124.57446289 115.54101562 C122.59618134 137.12842429 117.1497386 157.55674965 106.87036133 176.66748047 C105.14513888 179.92004732 103.52324425 183.22346839 101.88696289 186.52148438 C101.22696289 186.52148438 100.56696289 186.52148438 99.88696289 186.52148438 C98.89696289 189.49148437 98.89696289 189.49148437 97.88696289 192.52148438 C97.22696289 192.52148438 96.56696289 192.52148438 95.88696289 192.52148438 C95.6459082 193.23304688 95.40485352 193.94460937 95.15649414 194.67773438 C93.6978889 197.94501012 91.86701045 200.27813334 89.57446289 203.02148438 C88.81520508 203.93929687 88.05594727 204.85710937 87.27368164 205.80273438 C84.91185966 208.49312406 82.42377746 210.99718699 79.88696289 213.52148438 C78.97276272 214.61049284 78.07240384 215.71163172 77.19946289 216.83398438 C76.43633789 217.72085938 75.67321289 218.60773438 74.88696289 219.52148438 C74.22696289 219.52148438 73.56696289 219.52148438 72.88696289 219.52148438 C72.55696289 220.51148438 72.22696289 221.50148437 71.88696289 222.52148438 C70.42602539 224.02929688 70.42602539 224.02929688 68.51196289 225.64648438 C67.7965332 226.25105469 67.08110352 226.855625 66.34399414 227.47851562 C65.53317383 228.15269531 64.72235352 228.826875 63.88696289 229.52148438 C62.96270508 230.30910156 62.03844727 231.09671875 61.08618164 231.90820312 C60.13356445 232.70871094 59.18094727 233.50921875 58.19946289 234.33398438 C57.3087207 235.08292969 56.41797852 235.831875 55.50024414 236.60351562 C53.00395941 238.43561697 50.80409233 239.52808354 47.88696289 240.52148438 C47.88696289 241.18148437 47.88696289 241.84148437 47.88696289 242.52148438 C44.91696289 243.51148438 44.91696289 243.51148438 41.88696289 244.52148438 C41.88696289 245.18148437 41.88696289 245.84148437 41.88696289 246.52148438 C36.24067783 250.87758636 29.43104856 253.79542071 23.01196289 256.83398438 C22.27469971 257.18348145 21.53743652 257.53297852 20.77783203 257.89306641 C12.2498822 261.85787495 3.39162995 263.24922863 -5.80053711 260.27148438 C-7.2493692 259.7168948 -8.68699014 259.13228227 -10.11303711 258.52148438 C-10.95608398 258.16183594 -11.79913086 257.8021875 -12.66772461 257.43164062 C-14.82845929 256.4858985 -16.97498094 255.51722212 -19.11303711 254.52148438 C-19.11303711 253.86148438 -19.11303711 253.20148438 -19.11303711 252.52148438 C-20.02053711 252.23273438 -20.92803711 251.94398438 -21.86303711 251.64648438 C-24.43506619 250.75616662 -26.72650477 249.80654025 -29.11303711 248.52148438 C-29.11303711 247.86148438 -29.11303711 247.20148438 -29.11303711 246.52148438 C-29.68538086 246.40675781 -30.25772461 246.29203125 -30.84741211 246.17382812 C-33.32775367 245.45966081 -35.17672408 244.44840565 -37.36303711 243.08398438 C-38.06944336 242.65214844 -38.77584961 242.2203125 -39.50366211 241.77539062 C-40.30030273 241.15470703 -40.30030273 241.15470703 -41.11303711 240.52148438 C-41.11303711 239.86148438 -41.11303711 239.20148438 -41.11303711 238.52148438 C-41.67764648 238.26496094 -42.24225586 238.0084375 -42.82397461 237.74414062 C-68.43563909 224.06419014 -89.11765039 194.04766732 -101.11303711 168.52148438 C-101.85360352 167.04035156 -101.85360352 167.04035156 -102.60913086 165.52929688 C-106.1925384 157.9157193 -108.38417 150.24498342 -110.36303711 142.08398438 C-110.73235352 140.56671753 -110.73235352 140.56671753 -111.10913086 139.01879883 C-114.57597718 124.03450486 -115.46146292 109.56138524 -115.42871094 94.24316406 C-115.42554942 91.15849465 -115.44910213 88.0747862 -115.47436523 84.99023438 C-115.5349991 65.93601818 -114.56750308 42.04080774 -102.11303711 26.52148438 C-77.65259396 2.15829945 -32.17050564 -0.2139352 0 0 Z M-53.11303711 17.52148438 C-54.08837402 17.78380859 -55.06371094 18.04613281 -56.06860352 18.31640625 C-77.21716739 24.14175012 -77.21716739 24.14175012 -93.98413086 37.37695312 C-102.0036338 52.6112338 -103.61946896 69.55622252 -103.44921875 86.45727539 C-103.42558791 88.9536179 -103.4286939 91.44888571 -103.43530273 93.9453125 C-103.41192904 108.07362705 -102.45061459 122.06518946 -98.80053711 135.77148438 C-98.58179932 136.61227539 -98.36306152 137.45306641 -98.13769531 138.31933594 C-91.49017716 163.1742371 -78.52566721 184.26102524 -61.26928711 203.14257812 C-59.31688275 205.29658946 -57.43026352 207.49176164 -55.55053711 209.70898438 C-52.03722965 213.71734879 -48.22981513 217.14344303 -44.11303711 220.52148438 C-43.1269043 221.34519531 -42.14077148 222.16890625 -41.12475586 223.01757812 C-32.0242132 230.48365525 -22.34185174 236.7147529 -12.11303711 242.52148438 C-11.36570312 242.94719727 -10.61836914 243.37291016 -9.84838867 243.81152344 C-7.70119903 245.01549343 -5.53852076 246.18206298 -3.36303711 247.33398438 C-2.39841553 247.8680188 -2.39841553 247.8680188 -1.41430664 248.4128418 C1.59288823 249.94345234 3.43045788 250.60392598 6.78540039 249.99804688 C7.80891602 249.51078125 8.83243164 249.02351562 9.88696289 248.52148438 C10.54374023 248.21202881 11.20051758 247.90257324 11.87719727 247.58374023 C42.41389241 232.82274855 68.50906309 210.36089298 87.88696289 182.52148438 C88.3574707 181.84730469 88.82797852 181.173125 89.31274414 180.47851562 C95.38256538 171.63880413 99.86623396 162.80559132 103.18823242 152.61523438 C103.90399374 150.47045132 104.68502655 148.35801915 105.47680664 146.24023438 C116.67283211 115.23220021 118.38168911 70.0808586 105.01196289 39.52148438 C101.25472159 32.9463121 93.38248138 29.85119728 86.88696289 26.52148438 C85.58952148 25.82539062 85.58952148 25.82539062 84.26586914 25.11523438 C71.60257517 18.79371803 57.32393033 15.5153529 43.34790039 13.87304688 C42.27417175 13.74675903 41.20044312 13.62047119 40.09417725 13.49035645 C27.78467526 12.15079234 15.5084385 11.97155293 3.13696289 12.02148438 C1.96062286 12.02324677 0.78428284 12.02500916 -0.42770386 12.02682495 C-18.42938391 12.08681173 -35.64581121 12.78839173 -53.11303711 17.52148438 Z " fill="#FAFDF9" transform="translate(194.113037109375,34.478515625)"/>
<path d="M0 0 C0.66 0 1.32 0 2 0 C2.18433594 0.53367187 2.36867187 1.06734375 2.55859375 1.6171875 C5.34044705 8.76345954 9.80680767 13.47148565 15 19 C25.32996515 30.57192661 32.66462193 44.12680515 37 59 C37.25821533 59.87962402 37.51643066 60.75924805 37.7824707 61.66552734 C39.770566 68.90901191 40.5137872 75.62638266 40.4375 83.125 C40.42775146 84.21103516 40.41800293 85.29707031 40.40795898 86.41601562 C39.85052613 112.03903095 29.52152494 130.59951324 11.62890625 148.63671875 C10 150 10 150 8 150 C5.65079126 154.68886785 5.56954075 159.1774349 5.375 164.3125 C5.31699219 165.56643555 5.31699219 165.56643555 5.2578125 166.84570312 C5.16404841 168.89679259 5.08095755 170.94836515 5 173 C3.35 172.67 1.7 172.34 0 172 C-0.04898438 171.05898437 -0.09796875 170.11796875 -0.1484375 169.1484375 C-0.22320312 167.90320313 -0.29796875 166.65796875 -0.375 165.375 C-0.47941406 163.53035156 -0.47941406 163.53035156 -0.5859375 161.6484375 C-1.08326848 157.26629472 -1.60373993 153.54358727 -4.62890625 150.19921875 C-5.26699219 149.70035156 -5.90507812 149.20148438 -6.5625 148.6875 C-22.52899497 135.43012151 -31.62681038 120.04054505 -37 100 C-37.17273438 99.40477539 -37.34546875 98.80955078 -37.5234375 98.19628906 C-42.81114138 73.82734228 -34.63150225 47.63165313 -22 27 C-17.461281 20.32931488 -11.89944218 14.69856613 -6.03613281 9.1965332 C-3.0563625 6.34067701 -1.2005402 3.97046126 0 0 Z " fill="#559D4A" transform="translate(198,77)"/>
<path d="M0 0 C3.81908757 0.02145418 7.63629073 0.00004839 11.45532227 -0.02539062 C45.33612828 -0.06209009 84.7604782 4.08406893 111.88696289 26.52148438 C130.37232071 48.32472693 126.72902415 89.16008401 124.57446289 115.54101562 C122.59618134 137.12842429 117.1497386 157.55674965 106.87036133 176.66748047 C105.14513888 179.92004732 103.52324425 183.22346839 101.88696289 186.52148438 C101.22696289 186.52148438 100.56696289 186.52148438 99.88696289 186.52148438 C98.89696289 189.49148437 98.89696289 189.49148437 97.88696289 192.52148438 C97.22696289 192.52148438 96.56696289 192.52148438 95.88696289 192.52148438 C95.6459082 193.23304688 95.40485352 193.94460937 95.15649414 194.67773438 C93.6978889 197.94501012 91.86701045 200.27813334 89.57446289 203.02148438 C88.81520508 203.93929687 88.05594727 204.85710937 87.27368164 205.80273438 C84.91185966 208.49312406 82.42377746 210.99718699 79.88696289 213.52148438 C78.97276272 214.61049284 78.07240384 215.71163172 77.19946289 216.83398438 C76.43633789 217.72085938 75.67321289 218.60773438 74.88696289 219.52148438 C74.22696289 219.52148438 73.56696289 219.52148438 72.88696289 219.52148438 C72.55696289 220.51148438 72.22696289 221.50148437 71.88696289 222.52148438 C70.42602539 224.02929688 70.42602539 224.02929688 68.51196289 225.64648438 C67.7965332 226.25105469 67.08110352 226.855625 66.34399414 227.47851562 C65.53317383 228.15269531 64.72235352 228.826875 63.88696289 229.52148438 C62.96270508 230.30910156 62.03844727 231.09671875 61.08618164 231.90820312 C60.13356445 232.70871094 59.18094727 233.50921875 58.19946289 234.33398438 C57.3087207 235.08292969 56.41797852 235.831875 55.50024414 236.60351562 C53.00395941 238.43561697 50.80409233 239.52808354 47.88696289 240.52148438 C47.88696289 241.18148437 47.88696289 241.84148437 47.88696289 242.52148438 C44.91696289 243.51148438 44.91696289 243.51148438 41.88696289 244.52148438 C41.88696289 245.18148437 41.88696289 245.84148437 41.88696289 246.52148438 C36.24067783 250.87758636 29.43104856 253.79542071 23.01196289 256.83398438 C22.27469971 257.18348145 21.53743652 257.53297852 20.77783203 257.89306641 C12.2498822 261.85787495 3.39162995 263.24922863 -5.80053711 260.27148438 C-7.2493692 259.7168948 -8.68699014 259.13228227 -10.11303711 258.52148438 C-10.95608398 258.16183594 -11.79913086 257.8021875 -12.66772461 257.43164062 C-14.82845929 256.4858985 -16.97498094 255.51722212 -19.11303711 254.52148438 C-19.11303711 253.86148438 -19.11303711 253.20148438 -19.11303711 252.52148438 C-20.02053711 252.23273438 -20.92803711 251.94398438 -21.86303711 251.64648438 C-24.43506619 250.75616662 -26.72650477 249.80654025 -29.11303711 248.52148438 C-29.11303711 247.86148438 -29.11303711 247.20148438 -29.11303711 246.52148438 C-29.68538086 246.40675781 -30.25772461 246.29203125 -30.84741211 246.17382812 C-33.32775367 245.45966081 -35.17672408 244.44840565 -37.36303711 243.08398438 C-38.06944336 242.65214844 -38.77584961 242.2203125 -39.50366211 241.77539062 C-40.30030273 241.15470703 -40.30030273 241.15470703 -41.11303711 240.52148438 C-41.11303711 239.86148438 -41.11303711 239.20148438 -41.11303711 238.52148438 C-41.67764648 238.26496094 -42.24225586 238.0084375 -42.82397461 237.74414062 C-68.43563909 224.06419014 -89.11765039 194.04766732 -101.11303711 168.52148438 C-101.85360352 167.04035156 -101.85360352 167.04035156 -102.60913086 165.52929688 C-106.1925384 157.9157193 -108.38417 150.24498342 -110.36303711 142.08398438 C-110.73235352 140.56671753 -110.73235352 140.56671753 -111.10913086 139.01879883 C-114.57597718 124.03450486 -115.46146292 109.56138524 -115.42871094 94.24316406 C-115.42554942 91.15849465 -115.44910213 88.0747862 -115.47436523 84.99023438 C-115.5349991 65.93601818 -114.56750308 42.04080774 -102.11303711 26.52148438 C-77.65259396 2.15829945 -32.17050564 -0.2139352 0 0 Z M-52.11303711 6.77148438 C-53.03673096 6.98764404 -53.9604248 7.20380371 -54.91210938 7.42651367 C-69.95029856 11.06572691 -92.14770636 16.67600023 -102.11303711 29.52148438 C-118.63341121 57.90732054 -117.19183501 104.56672696 -109.61303711 135.45898438 C-109.12566258 137.15017399 -108.62748847 138.83833374 -108.11303711 140.52148438 C-107.77125282 141.8735428 -107.43727003 143.22760999 -107.11303711 144.58398438 C-105.86521459 149.58584923 -104.48328382 154.55205629 -103.11303711 159.52148438 C-102.45303711 159.52148438 -101.79303711 159.52148438 -101.11303711 159.52148438 C-101.02666992 160.53210938 -100.94030273 161.54273438 -100.85131836 162.58398438 C-100.25537755 166.73365278 -98.47400641 169.9871314 -96.30053711 173.52148438 C-95.60652669 174.68815104 -94.91251628 175.85481771 -94.21850586 177.02148438 C-93.86892822 177.59850098 -93.51935059 178.17551758 -93.15917969 178.77001953 C-92.11895142 180.51158255 -91.12561762 182.27394569 -90.13647461 184.04492188 C-82.73837372 197.03547321 -72.60073416 210.52705153 -60.96459961 219.95898438 C-59.11303711 221.52148437 -59.11303711 221.52148437 -56.73022461 223.91210938 C-42.51952948 238.08038452 -16.92365534 259.51590286 4.19946289 259.70898438 C4.8968457 259.72316406 5.59422852 259.73734375 6.31274414 259.75195312 C13.25672406 259.13026145 18.90994788 256.81570073 24.94946289 253.52148438 C25.68044189 253.12775635 26.4114209 252.73402832 27.16455078 252.32836914 C44.50657354 242.81581191 60.08407393 230.68760725 73.88696289 216.52148438 C74.91370117 215.52761719 74.91370117 215.52761719 75.96118164 214.51367188 C76.69981445 213.794375 77.43844727 213.07507813 78.19946289 212.33398438 C78.8968457 211.65980469 79.59422852 210.985625 80.31274414 210.29101562 C82.10851986 208.66717535 82.10851986 208.66717535 81.88696289 206.52148438 C82.54696289 206.52148438 83.20696289 206.52148438 83.88696289 206.52148438 C83.88696289 205.86148438 83.88696289 205.20148438 83.88696289 204.52148438 C84.54696289 204.52148438 85.20696289 204.52148438 85.88696289 204.52148438 C87.29401169 203.00165635 87.29401169 203.00165635 88.67993164 201.00976562 C89.21150879 200.27580566 89.74308594 199.5418457 90.29077148 198.78564453 C90.81751465 198.03847168 91.34425781 197.29129883 91.88696289 196.52148438 C92.34022949 195.87872559 92.79349609 195.2359668 93.26049805 194.57373047 C114.22596735 164.23786769 123.07621629 130.1957676 123.07226562 93.54150391 C123.07444638 91.28854287 123.09266325 89.03607785 123.11157227 86.78320312 C123.17561901 70.2828926 122.3730755 51.49370959 114.88696289 36.52148438 C114.65879883 35.89113281 114.43063477 35.26078125 114.19555664 34.61132812 C110.39891581 25.09221416 100.11982344 20.1412626 91.28930664 15.95898438 C63.28224197 4.12591916 33.74279828 2.1408332 3.64794922 2.26074219 C0.42600056 2.27156317 -2.79540085 2.26070769 -6.01733398 2.24804688 C-21.69028846 2.23636729 -36.81226039 3.15344391 -52.11303711 6.77148438 Z " fill="#DCDCDC" transform="translate(194.113037109375,34.478515625)"/>
<path d="M0 0 C0.33 0 0.66 0 1 0 C1.73480638 3.29168733 2.12417821 6.3309149 2.12025452 9.70137024 C2.12162918 10.6169722 2.12300385 11.53257416 2.12442017 12.47592163 C2.12082489 13.46782501 2.11722961 14.45972839 2.11352539 15.48168945 C2.11367142 16.53580521 2.11381744 17.58992096 2.1139679 18.67597961 C2.11327205 22.1551012 2.10549493 25.63416903 2.09765625 29.11328125 C2.09579091 31.52752147 2.09436755 33.94176207 2.09336853 36.35600281 C2.08955251 42.70668586 2.07973001 49.05734601 2.06866455 55.40802002 C2.05843078 61.88984874 2.05386669 68.37168116 2.04882812 74.85351562 C2.03810694 87.56902018 2.02123401 100.28450887 2 113 C-0.78598841 111.60700579 -0.83692962 110.17321749 -1.83984375 107.2578125 C-2.18080078 106.27296875 -2.52175781 105.288125 -2.87304688 104.2734375 C-3.22431641 103.23445313 -3.57558594 102.19546875 -3.9375 101.125 C-4.28490234 100.1246875 -4.63230469 99.124375 -4.99023438 98.09375 C-6.99101877 92.2609548 -8.76898578 86.41658044 -10.3034668 80.44384766 C-11.25156662 77.1173565 -12.56692119 73.99009738 -13.89453125 70.80078125 C-16.19735108 64.96642853 -18.05442499 58.96118943 -20 53 C-20.53999435 51.35361723 -21.08135072 49.7076795 -21.625 48.0625 C-21.84929687 47.37800781 -22.07359375 46.69351563 -22.3046875 45.98828125 C-23.04427673 43.87338846 -23.896866 41.82134786 -24.75 39.75 C-26.0594413 35.82167609 -26.16853443 34.81043836 -25 31 C-20.21488722 22.36779903 -13.81802703 15.42044174 -6.69848633 8.67016602 C-6.1186499 8.11772217 -5.53881348 7.56527832 -4.94140625 6.99609375 C-4.42263916 6.51325928 -3.90387207 6.0304248 -3.36938477 5.53295898 C-1.83442141 3.8146429 -0.94244472 2.09322526 0 0 Z " fill="#7EC163" transform="translate(198,78)"/>
<path d="M0 0 C1.27617187 -0.02416992 1.27617187 -0.02416992 2.578125 -0.04882812 C9.23310694 -0.05393164 14.94443457 0.86378903 20.2421875 5.109375 C25.50864951 11.40897071 27.73421441 16.94245576 27 25.3125 C25.6059357 32.28282148 21.74863761 36.31395166 16 40.3125 C12.46173745 41.49192085 9.65851274 41.42539189 5.92578125 41.41015625 C4.90003242 41.40803383 4.90003242 41.40803383 3.8535614 41.40586853 C1.67316278 41.40027876 -0.50713251 41.38772822 -2.6875 41.375 C-4.16731622 41.36998367 -5.64713406 41.365421 -7.12695312 41.36132812 C-10.75133557 41.35031271 -14.3756577 41.33305512 -18 41.3125 C-18 39.9925 -18 38.6725 -18 37.3125 C-15.525 36.8175 -15.525 36.8175 -13 36.3125 C-12.67 26.4125 -12.34 16.5125 -12 6.3125 C-13.98 6.3125 -15.96 6.3125 -18 6.3125 C-18 4.9925 -18 3.6725 -18 2.3125 C-11.88101116 0.53487708 -6.35800358 -0.02408335 0 0 Z M-2 4.3125 C-2.0740719 8.69071909 -2.12856375 13.06860782 -2.16479492 17.44726562 C-2.179896 18.93723909 -2.20037858 20.42716801 -2.22631836 21.91699219 C-2.26264584 24.0567523 -2.27971221 26.19592566 -2.29296875 28.3359375 C-2.3086792 29.62419434 -2.32438965 30.91245117 -2.34057617 32.23974609 C-2.22818604 33.25375488 -2.1157959 34.26776367 -2 35.3125 C1.70407329 37.78188219 4.70378886 37.97539195 9 37.3125 C12.59114202 35.36079238 13.73105373 33.95284826 15.3125 30.1875 C16.67061742 22.53265635 16.85604603 16.19829647 13 9.3125 C10.64500093 6.51593861 9.48686467 5.47478822 6 4.3125 C4.60560336 4.24584624 3.20830125 4.22711801 1.8125 4.25 C0.554375 4.270625 -0.70375 4.29125 -2 4.3125 Z " fill="#866C46" transform="translate(266,294.6875)"/>
<path d="M0 0 C4.54144994 -0.11647041 9.08251394 -0.18734502 13.625 -0.25 C15.55279297 -0.30027344 15.55279297 -0.30027344 17.51953125 -0.3515625 C29.40921574 -0.47477167 29.40921574 -0.47477167 34 4 C35.54586876 7.09173752 35.29359521 9.59429552 35 13 C33 15.4375 33 15.4375 31 17 C31.433125 17.4125 31.86625 17.825 32.3125 18.25 C35.25945997 21.30610663 37.44363851 23.69822016 37.6875 28.0625 C36.81062262 33.08461592 35.69620871 34.5502052 32 38 C28.11028227 39.96843165 24.9352002 40.23635261 20.60546875 40.1953125 C19.40341797 40.18886719 18.20136719 40.18242187 16.96289062 40.17578125 C15.71701172 40.15902344 14.47113281 40.14226562 13.1875 40.125 C11.28967773 40.11146484 11.28967773 40.11146484 9.35351562 40.09765625 C6.23548436 40.07412394 3.11783903 40.04124545 0 40 C0 38.68 0 37.36 0 36 C1.65 36 3.3 36 5 36 C5 25.44 5 14.88 5 4 C3.35 4 1.7 4 0 4 C0 2.68 0 1.36 0 0 Z M15 4 C15 7.96 15 11.92 15 16 C20.0285342 16.4070647 20.0285342 16.4070647 24.5 14.375 C26.28753852 12.02763047 26.28753852 12.02763047 25.9375 8.875 C25.23305313 5.70825068 25.23305313 5.70825068 22 4 C19.66800612 3.92094936 17.33167378 3.91201231 15 4 Z M15 20 C15 25.28 15 30.56 15 36 C21.34635893 36.41880893 21.34635893 36.41880893 24.4375 35.0625 C26.6426188 32.15174319 26.4395449 29.72694231 26.43359375 26.15625 C25.89535087 23.4795827 25.1963648 22.59780592 23 21 C20.95899762 20.42982192 20.95899762 20.42982192 18.8125 20.3125 C16.9253125 20.1578125 16.9253125 20.1578125 15 20 Z " fill="#846A43" transform="translate(297,296)"/>
<path d="M0 0 C1.32 0 2.64 0 4 0 C4 0.99 4 1.98 4 3 C4.99 2.34 5.98 1.68 7 1 C11.20884445 0.4031657 14.85784706 0.33142267 18.5625 2.5 C19.036875 2.995 19.51125 3.49 20 4 C20.495 3.505 20.99 3.01 21.5 2.5 C24.32818956 0.80308627 26.63377489 0.56220557 29.90234375 0.40625 C33.43226582 1.40540857 34.83097914 3.07930123 37 6 C37.59230813 9.13248988 37.47530523 12.13905032 37.3125 15.3125 C37.28994141 16.14845703 37.26738281 16.98441406 37.24414062 17.84570312 C37.1855061 19.89791149 37.09583215 21.94919202 37 24 C38.32 24.33 39.64 24.66 41 25 C41 25.66 41 26.32 41 27 C35.72 27 30.44 27 25 27 C25 26.01 25 25.02 25 24 C25.99 24 26.98 24 28 24 C27.67 18.39 27.34 12.78 27 7 C25.35 7.33 23.7 7.66 22 8 C21.67 13.28 21.34 18.56 21 24 C21.99 24.33 22.98 24.66 24 25 C24 25.66 24 26.32 24 27 C18.72 27 13.44 27 8 27 C8 26.01 8 25.02 8 24 C9.32 24 10.64 24 12 24 C11.67 18.72 11.34 13.44 11 8 C8.525 7.505 8.525 7.505 6 7 C3.94077598 9.05922402 4.58572421 13.21708124 4.4375 16.0625 C4.39431641 16.82111328 4.35113281 17.57972656 4.30664062 18.36132812 C4.20026367 20.24065438 4.09960066 22.12030244 4 24 C4.99 24 5.98 24 7 24 C7 24.99 7 25.98 7 27 C2.05 27 -2.9 27 -8 27 C-8 26.01 -8 25.02 -8 24 C-7.01 24 -6.02 24 -5 24 C-5.11341491 21.51979503 -5.24014686 19.04155031 -5.375 16.5625 C-5.4059375 15.85544922 -5.436875 15.14839844 -5.46875 14.41992188 C-5.57280629 12.60760812 -5.77919892 10.80182012 -6 9 C-6.66 8.67 -7.32 8.34 -8 8 C-8 6.68 -8 5.36 -8 4 C-6.865625 3.525625 -5.73125 3.05125 -4.5625 2.5625 C-1.24259834 1.36377917 -1.24259834 1.36377917 0 0 Z " fill="#3E2C1C" transform="translate(73,309)"/>
<path d="M0 0 C1.32 0 2.64 0 4 0 C5.125 4.75 5.125 4.75 4 7 C2.68 7 1.36 7 0 7 C-0.0928125 8.60875 -0.0928125 8.60875 -0.1875 10.25 C-1 14 -1 14 -3.4375 16.375 C-7.89633469 19.20255371 -11.35057067 19.33892322 -16.56640625 19.71875 C-18.94543305 19.73834922 -18.94543305 19.73834922 -20 21 C-17.53962341 22.2301883 -15.44956076 22.09320642 -12.7421875 22.13745117 C-4.17659897 22.3460949 -4.17659897 22.3460949 -0.86328125 24.1875 C1.4257746 26.70611733 1.99090813 28.77270318 2.125 32.125 C0.51005096 36.252092 -2.11105707 38.05552853 -6 40 C-8.78441955 40.15129552 -11.52712487 40.23138429 -14.3125 40.25 C-15.07240234 40.270625 -15.83230469 40.29125 -16.61523438 40.3125 C-21.21514536 40.34447158 -24.29893625 40.04581705 -28 37 C-28.8125 34.3125 -28.8125 34.3125 -29 32 C-27.68 31.01 -26.36 30.02 -25 29 C-25.495 28.608125 -25.99 28.21625 -26.5 27.8125 C-28 26 -28 26 -28.4375 23.5 C-28 21 -28 21 -26.125 19.1875 C-24 18 -24 18 -22 18 C-22.66 17.154375 -23.32 16.30875 -24 15.4375 C-26.34795692 11.40194904 -26.89999651 9.58180039 -26 5 C-20.48482051 -4.05922985 -8.94650405 -1.82243601 0 0 Z M-15 2 C-17.24324836 3.81193006 -17.24324836 3.81193006 -17.1953125 6.3828125 C-17.17210937 7.28773438 -17.14890625 8.19265625 -17.125 9.125 C-17.10695312 10.03507812 -17.08890625 10.94515625 -17.0703125 11.8828125 C-17.04710937 12.58148438 -17.02390625 13.28015625 -17 14 C-14.525 14.99 -14.525 14.99 -12 16 C-10.33358994 15.009245 -10.33358994 15.009245 -9 13 C-8.36227549 8.56365558 -8.48243165 5.77635253 -11 2 C-12.32 2 -13.64 2 -15 2 Z M-22 32 C-22 33.32 -22 34.64 -22 36 C-19.44080818 37.27959591 -17.54515972 37.16816536 -14.6875 37.1875 C-13.74261719 37.20167969 -12.79773438 37.21585937 -11.82421875 37.23046875 C-8.85593118 36.98824335 -6.69132835 36.24026607 -4 35 C-4.33 33.68 -4.66 32.36 -5 31 C-13.66355552 29.77495073 -13.66355552 29.77495073 -22 32 Z " fill="#3F2D1D" transform="translate(211,311)"/>
<path d="M0 0 C0.99 0 1.98 0 3 0 C3.33 1.32 3.66 2.64 4 4 C4.99 3.34 5.98 2.68 7 2 C14.06306306 1.32732733 14.06306306 1.32732733 17.4375 3.75 C20.47302166 8.12115119 20.12601854 12.58056831 20.0625 17.75 C20.05798828 18.44738281 20.05347656 19.14476562 20.04882812 19.86328125 C20.0371002 21.57555803 20.01916653 23.28779033 20 25 C20.99 25 21.98 25 23 25 C23 25.99 23 26.98 23 28 C17.72 28 12.44 28 7 28 C7 27.01 7 26.02 7 25 C7.99 24.67 8.98 24.34 10 24 C10.02692484 21.70839681 10.04636124 19.41670454 10.0625 17.125 C10.07410156 15.84882813 10.08570313 14.57265625 10.09765625 13.2578125 C10.23176569 10.11335348 10.23176569 10.11335348 9 8 C7.35 8.33 5.7 8.66 4 9 C3.67 13.95 3.34 18.9 3 24 C3.99 24.33 4.98 24.66 6 25 C6 25.99 6 26.98 6 28 C1.05 28 -3.9 28 -9 28 C-9 27.01 -9 26.02 -9 25 C-8.34 24.67 -7.68 24.34 -7 24 C-6.68758629 21.45058627 -6.48696579 18.99638487 -6.375 16.4375 C-6.33632812 15.72658203 -6.29765625 15.01566406 -6.2578125 14.28320312 C-6.16328217 12.52257575 -6.08054183 10.76132272 -6 9 C-6.99 9 -7.98 9 -9 9 C-8.9375 6.6875 -8.9375 6.6875 -8 4 C-4.5 2.25 -4.5 2.25 -1 1 C-0.67 0.67 -0.34 0.34 0 0 Z " fill="#3E2C1C" transform="translate(158,308)"/>
<path d="M0 0 C3.54284522 1.60084117 5.35085284 3.98394358 7.4375 7.25 C8.39272624 11.91999495 8.3557961 16.61218001 5.953125 20.84375 C3.70642429 23.67292867 1.49078779 26.00263206 -2 27 C-8.83641725 27.55132397 -12.586066 26.30671216 -18.3125 22.4375 C-20.98085664 18.58320707 -21.18263478 14.61700717 -21 10 C-17.56481149 -0.30556552 -9.74571667 -1.42023007 0 0 Z M-10.63671875 4.66015625 C-12.36080421 7.61925994 -12.36785904 9.59329002 -12.3125 13 C-12.30863281 14.03125 -12.30476562 15.0625 -12.30078125 16.125 C-12.00474855 18.95461129 -11.53348191 20.62857976 -10 23 C-8.22286468 24.25695267 -8.22286468 24.25695267 -6 24 C-3.00342211 22.34297199 -3.00342211 22.34297199 -1 19 C-0.19191718 14.00185813 -0.41926141 9.55882465 -2.1875 4.8125 C-3.88520294 2.79178436 -3.88520294 2.79178436 -6.5 2.4375 C-9.07923436 2.78115881 -9.07923436 2.78115881 -10.63671875 4.66015625 Z " fill="#3E2D1D" transform="translate(237,310)"/>
<path d="M0 0 C1.03769531 -0.02578125 2.07539063 -0.0515625 3.14453125 -0.078125 C7.29918631 0.36987375 9.91446189 1.74802315 12.62109375 4.94140625 C15.28108874 9.89914011 15.55832988 13.51708178 14.1640625 18.9765625 C12.34439907 23.21273895 9.26654979 25.21047511 5.1875 27.25 C-0.93698912 28.13944863 -5.04358345 27.09874538 -10.18359375 23.734375 C-12.71884279 21.42407611 -13.63412742 19.2739272 -14.21875 15.91796875 C-14.40384786 11.02058778 -14.17846151 8.01341554 -10.9375 4.1875 C-7.38255885 0.53810389 -5.08696078 0.07526946 0 0 Z M-4.8125 6.25 C-5.25259707 9.5761985 -5.25259707 9.5761985 -5.125 13.25 C-5.12113281 14.4875 -5.11726563 15.725 -5.11328125 17 C-5.0588688 20.3957482 -5.0588688 20.3957482 -2.8125 23.25 C0.14470628 23.91680368 0.14470628 23.91680368 3.1875 23.25 C6.17747097 20.26002903 6.4171432 17.30787736 6.5625 13.25 C6.42326891 9.1941377 6.11877474 6.28235317 3.1875 3.25 C-0.65525391 2.48144922 -2.54698277 3.08217075 -4.8125 6.25 Z " fill="#3E2C1C" transform="translate(130.8125,309.75)"/>
<path d="M0 0 C0.33 0 0.66 0 1 0 C1.10957031 0.67546875 1.21914062 1.3509375 1.33203125 2.046875 C1.49058594 2.93890625 1.64914063 3.8309375 1.8125 4.75 C1.96332031 5.63171875 2.11414063 6.5134375 2.26953125 7.421875 C2.83644425 10.06965747 2.83644425 10.06965747 4.63671875 12.015625 C6 14 6 14 5.72265625 16.16796875 C5.48417969 17.10253906 5.24570313 18.03710938 5 19 C4.72053245 22.0988233 4.58711237 25.20497742 4.4375 28.3125 C4.39431641 29.14845703 4.35113281 29.98441406 4.30664062 30.84570312 C4.20114693 32.89696935 4.10012685 34.9484648 4 37 C2.35 36.67 0.7 36.34 -1 36 C-2.91968658 12.51811949 -2.91968658 12.51811949 -1 1 C-0.67 0.67 -0.34 0.34 0 0 Z " fill="#B0B293" transform="translate(199,213)"/>
<path d="M0 0 C0.33 0 0.66 0 1 0 C2.70174622 7.47515517 3.56018954 14.86116995 4.125 22.5 C4.21136719 23.56347656 4.29773438 24.62695312 4.38671875 25.72265625 C4.88451527 32.16240486 5.11364983 38.54180334 5 45 C4.34 44.67 3.68 44.34 3 44 C2.61758925 41.6297441 2.36370733 39.35284829 2.18359375 36.96484375 C2.12220718 36.2527626 2.06082062 35.54068146 1.99757385 34.80702209 C1.80198964 32.51782875 1.61937058 30.22781997 1.4375 27.9375 C1.24937121 25.67246802 1.05858174 23.40767775 0.86671448 21.14295959 C0.74816668 19.7329016 0.63222225 18.32262129 0.51939392 16.91209412 C0.24009813 13.48501314 -0.12047491 10.09235589 -0.60522461 6.68969727 C-1 3 -1 3 0 0 Z " fill="#DADADA" transform="translate(315,85)"/>
<path d="M0 0 C0.33 0 0.66 0 1 0 C1.02685095 2.47923801 1.04676547 4.9581884 1.0625 7.4375 C1.07087891 8.14455078 1.07925781 8.85160156 1.08789062 9.58007812 C1.09653588 11.38693559 1.05220011 13.19387603 1 15 C0.67 15.33 0.34 15.66 0 16 C-0.15888092 18.28988781 -0.25138073 20.58443441 -0.31640625 22.87890625 C-0.33718735 23.5655687 -0.35796844 24.25223114 -0.37937927 24.95970154 C-0.44494143 27.16052935 -0.50379015 29.36147975 -0.5625 31.5625 C-0.60567892 33.05144514 -0.649293 34.54037773 -0.69335938 36.02929688 C-0.8006293 39.68606553 -0.90187772 43.34297318 -1 47 C-1.33 47 -1.66 47 -2 47 C-2.04963288 41.43157229 -2.08582963 35.86327489 -2.10986328 30.29467773 C-2.11988815 28.40240229 -2.13351155 26.51014222 -2.15087891 24.61791992 C-2.17528222 21.8897725 -2.18651845 19.16183085 -2.1953125 16.43359375 C-2.20563507 15.59477158 -2.21595764 14.7559494 -2.22659302 13.89170837 C-2.22754087 8.8701288 -1.61591021 4.76106417 0 0 Z " fill="#CFCFCF" transform="translate(81,95)"/>
<path d="M0 0 C0.99 0 1.98 0 3 0 C3 2 3 2 0.8125 4.3125 C-0.99861313 6.04311921 -2.811013 7.77239334 -4.625 9.5 C-6.8925369 11.88688095 -8.36000106 14.16727456 -10 17 C-11.6875 18.8125 -11.6875 18.8125 -13 20 C-13.66 19.67 -14.32 19.34 -15 19 C-13.65285534 15.96232088 -12.17833297 14.00331798 -9.75 11.75 C-6.47560228 8.60521386 -3.89701267 5.26046538 -1.359375 1.50390625 C-0.91078125 1.00761719 -0.4621875 0.51132813 0 0 Z " fill="#7EB065" transform="translate(261,215)"/>
<path d="M0 0 C5.48633727 0.62344742 10.69676841 1.87825714 16.03515625 3.28125 C19.01056571 4.00256138 21.97528551 4.53258498 25 5 C25 5.33 25 5.66 25 6 C16.33941636 6.39566118 8.84606757 6.19131279 1.4375 1.3125 C0.963125 0.879375 0.48875 0.44625 0 0 Z " fill="#CECECE" transform="translate(180,290)"/>
<path d="M0 0 C0.33 0 0.66 0 1 0 C1.67453101 7.68483539 2.1567564 15.28410183 2 23 C1.34 22.67 0.68 22.34 0 22 C-1.36310062 14.5649057 -0.75206793 7.4859685 0 0 Z " fill="#B6B6B6" transform="translate(318,107)"/>
<path d="M0 0 C0.99 0.33 1.98 0.66 3 1 C1.02 5.29 -0.96 9.58 -3 14 C-3.33 14 -3.66 14 -4 14 C-4.35233003 9.77203962 -3.55682984 8.27274219 -1 5 C-0.28566879 2.35065178 -0.28566879 2.35065178 0 0 Z " fill="#3B3A1D" transform="translate(171,107)"/>
<path d="M0 0 C2.31 0.33 4.62 0.66 7 1 C7 1.66 7 2.32 7 3 C8.98 3 10.96 3 13 3 C11.296875 4.1171875 11.296875 4.1171875 9 5 C6.640625 4.3203125 6.640625 4.3203125 4.25 3.125 C3.45078125 2.73570312 2.6515625 2.34640625 1.828125 1.9453125 C0.92320312 1.47738281 0.92320312 1.47738281 0 1 C0 0.67 0 0.34 0 0 Z " fill="#9EC88B" transform="translate(189,280)"/>
<path d="M0 0 C4.59306496 1.4859916 7.43569245 3.85014682 11 7 C10.01 7.495 10.01 7.495 9 8 C7.49460339 7.05016642 5.99579653 6.08988109 4.5 5.125 C3.6646875 4.59132812 2.829375 4.05765625 1.96875 3.5078125 C1.3190625 3.01023438 0.669375 2.51265625 0 2 C0 1.34 0 0.68 0 0 Z " fill="#84AD67" transform="translate(159,241)"/>
<path d="M0 0 C4.875 2.625 4.875 2.625 6 6 C4 6 4 6 2.375 4.5 C1.92125 4.005 1.4675 3.51 1 3 C1 3.66 1 4.32 1 5 C0.01 5 -0.98 5 -2 5 C-2 4.01 -2 3.02 -2 2 C-1.34 2 -0.68 2 0 2 C0 1.34 0 0.68 0 0 Z " fill="#89C477" transform="translate(292,68)"/>
<path d="M0 0 C0.99 0.33 1.98 0.66 3 1 C2.38125 1.598125 1.7625 2.19625 1.125 2.8125 C-1.13676954 5.00811144 -1.13676954 5.00811144 -3 8 C-3.1875 5.125 -3.1875 5.125 -3 2 C-2.01 1.34 -1.02 0.68 0 0 Z " fill="#82B067" transform="translate(115,79)"/>
<path d="" fill="#F0F0F0" transform="translate(0,0)"/>
</svg>
