<svg xmlns="http://www.w3.org/2000/svg" width="400" height="283"><path d="M172.8 42.3C180 46 186.5 51 193 56l7 5 2.3-2c13.3-11.4 28.4-22.5 46.7-22.3 6 .6 10 3 14.3 7.4 9 11.5 9 28.6 7.5 42.6-.8 5-1.8 10.2-2.8 15.3l1.8.3c16.2 3.9 33.5 13 43.2 26.7 3.2 5.6 4 10.7 3 17-4.2 12.8-14.5 20-26 26l-8.4 4-2 .8c-3.8 1.7-7.4 2.7-11.6 3.2l.7 2.7c3.7 16.8 5.9 37.3-3.1 52.8-3.6 5-7.4 8.2-13.6 9.5-18 1.8-32.4-8.5-46-19l-7-5-1.4 1.4c-13.5 12.6-29.4 23-48.4 22.9-6-.5-9.3-3.1-13.4-7.3-8.7-10.8-8.6-25.8-7.8-39 .8-6.4 1.8-12.7 3-19l-2.4-.3c-4.4-1-8.2-2.4-12.2-4.2l-2.4-1.2c-12.4-5.6-24.2-12.8-30.1-25.7-2.1-6.3-1.6-11.7 1.2-17.8 8.4-15 25.4-22.3 40.9-27.8l5-1-.6-3c-3.1-14.7-5.5-32.7.6-47l.8-2c2.8-5.4 7.2-9.5 12.6-12.1 9.8-3.3 19.4.3 28.4 4.4zM145 50.9c-4.8 7-5.6 15-5.3 23.4V77c0 6.8.7 13.3 2.2 19.9 4.5 1.3 8.3.6 12.8-.4s8.4-1.7 13-1.4c3.6-.3 4.4-1.4 7-4l7-9.4c2.7-3.8 6-7.3 9.2-10.8-3-4.1-6.4-7-10.5-10l-1.8-1.2c-8.8-6.1-23-15.8-33.6-9zm62.9 19c3.6 5 7.3 9.7 11.4 14.2 1.5 1.8 2.7 3.7 3.9 5.8 2 2.9 3.5 3.7 7 4.4l5.7.7 4 .8 2.2.5 4.2.8c3.8.8 6.8 1 10.6-.1 3-14.5 5.5-33.2-3-46.1-15-9.5-36 9.5-46 19zm-9 9l-3.2 3.2-2 1.8c-2.3 2.6-2.3 2.6-5.8 8h23c-5.5-7.2-5.5-7.2-12-13zm-23.7 29L174 110l-1.5 2.5-1.5 2.7-1.6 2.8-3.1 5.4-3.7 6.5-2 3.3-1.7 3c-1.4 4-1 6.7.8 10.5l3.2 6.2 1 2.2c6.6 12 6.6 12 15 22.8 5.6.3 11.3.3 16.9.3h5.7c2.7.2 5.5.2 8.2.2h2.6c4.2 0 6 0 9.5-2.7 1.9-2.5 3.5-4.7 5-7.3.9-1.2.9-1.2 1.6-2.5l1.5-2.7 1.6-2.5 4.4-7.8 1.5-2.7c2.8-5 2.8-5 3.6-10.4-1.4-3.8-3.1-7.3-5-10.8l-1.3-2.2c-2.8-5.3-5.8-10.4-9-15.4l-1.2-2c-2.3-3.3-2.3-3.3-5.8-5.2-5.6-.6-11.3-.5-17-.5h-15.2c-4.4.3-8.1.6-11.3 4zm60.7-1c.6 1 1 2 1.7 3l2 3.7 1.2 1.9c2.2 3.8 4.2 7.6 6 11.5 2-3 3-5.6 4.2-9l1-3.3c1-2.5 1-2.5.9-4.7l-5.7-1.5-3.2-.8c-2.8-.6-5.3-.8-8.1-.7zm-84.2 1.6l-3.3.8-2.5.7c1.2 5.9 2.8 11.4 5 17 2.8-3.5 5-7.2 7-11.1l1.2-2 3.8-7c-4-.1-7.4.6-11.2 1.6zM264 113l-.6 1.9-2.8 8.4-1 2.9-.8 2.8-1 2.6c-.8 2.4-.8 2.4-2 4.6-1.8 3.9-1 7.3.4 11.3l1.6 3.8 1.6 4 .8 1.9c1 2.5 2.2 5 3.2 7.8l1 2.3.6 1.7c14.8-4.3 30.3-10.5 39-24 .7-4.1.9-6.4-1.2-10-6.3-7.7-14.5-12.6-23.4-16.8l-2-1c-4.3-2-8.6-3.1-13.4-4.2zM99 132c-2.8 2.9-4 4.6-4.5 8.7 0 4.7 2.3 7.2 5.5 10.4 9.8 9.2 21.8 15 35 17.9l1.2-3.7 1.6-4.8.8-2.5c1.2-3.7 2.5-7.1 4.2-10.6 2.7-7.3-.5-14.1-3.2-21.1l-1-2.6c-1.4-3.6-2.8-7.2-4.6-10.7-11.6 0-27.2 11.7-35 19zm148 23c-1.2 2.4-2.6 4.8-4 7.2-.2.7-.6 1.3-1 2-2 3.6-3.6 7-5 10.8 5.6-.4 10.8-1 16-3-1.2-6-2.7-11.4-5-17h-1zm-96 1l-2.5 6.8-.7 2c-1.6 4-1.6 4-.8 8.2l4.8 1 2.5.6c2.7.4 5 .5 7.7.4-1.6-4.4-3.8-8.3-6.2-12.3l-1-2c-1-1.5-2-3.1-2.8-4.7h-1zm-8 28c-.2 1-.6 2-1 3l-.4 1.8c-2.8 11.5-4.2 28.5 1.4 39.2 1.8 3.3 1.8 3.3 5 5 10.6 2 20.2-3.7 29-9 5-3.4 9.6-7.7 14-12-3.7-5.2-7.7-10-12.1-14.7-2-2.3-2-2.3-3.3-5.4-4.3-4.8-10-4.8-16.1-5.8l-3.8-.6c-6.3-1.1-6.3-1.1-12.7-1.5zm104.5.8l-3.2.5-3.3.6-3.4.6c-9.3 1.4-9.3 1.4-15.8 8-4.2 5.8-8.8 11.2-13.8 16.5 8 10.4 22.8 20.6 36.2 22.3 4 .2 6.2 0 9.6-2.2 5.2-7.3 5.7-14.8 5.5-23.5v-3c0-6.6-1-13-2.3-19.6-3.4-1.1-6-1-9.5-.2zM188 190c5 7 5 7 11 13h2c1.6-1.7 3-3.5 4.6-5.4l2.4-3c2-2.3 2-2.3 3-4.6h-23z" fill="#63D5F4"/><path d="M209.3 120.5c5.6 3.3 9.6 8 12.1 14 1.2 7.6.6 13-3.4 19.5-4.2 4.5-8.7 8.5-14.9 9.5-8.2.1-13.9-1-20.2-6.5-4.4-5.5-6.4-10.7-6.2-17.8 1-7.3 4.7-12.1 10.3-16.7 6.5-4.5 15-5.2 22.2-2z" fill="#62D7F7"/></svg>