<?xml version="1.0" encoding="UTF-8"?>
<svg version="1.1" xmlns="http://www.w3.org/2000/svg" width="400" height="283">
<path d="M0 0 C7.33263706 3.78220791 13.70863985 8.68430409 20.21875 13.71484375 C22.53611727 15.40589554 24.87353048 17.06253 27.21875 18.71484375 C27.95738281 18.07417969 28.69601563 17.43351562 29.45703125 16.7734375 C42.84298157 5.29912996 57.89671803 -5.7810143 76.1796875 -5.55859375 C82.20038349 -5.01688588 86.31359145 -2.52252182 90.46875 1.77734375 C99.60259991 13.32531748 99.50007676 30.39436374 97.91992188 44.35498047 C97.18244467 49.50670276 96.24276264 54.61306647 95.21875 59.71484375 C95.8271875 59.83859375 96.435625 59.96234375 97.0625 60.08984375 C113.15897921 63.87725062 130.49985045 73.06408171 140.21875 86.71484375 C143.41568711 92.28370194 144.19674479 97.42370417 143.21875 103.71484375 C139.05534274 116.45564097 128.6508357 123.72986309 117.21875 129.71484375 C114.43310612 131.09078099 111.62059643 132.39125105 108.78125 133.65234375 C108.11931641 133.9469751 107.45738281 134.24160645 106.77539062 134.54516602 C102.94049807 136.18043491 99.35601092 137.20967588 95.21875 137.71484375 C95.4353125 138.59140625 95.651875 139.46796875 95.875 140.37109375 C99.56255814 157.16996974 101.79478915 177.7214177 92.79296875 193.16015625 C89.21220284 198.32312105 85.44341744 201.41148378 79.21875 202.71484375 C61.16197033 204.52646145 46.83480475 194.2363406 33.21875 183.71484375 C30.90138273 182.02379196 28.56396952 180.3671575 26.21875 178.71484375 C25.50525391 179.40707031 25.50525391 179.40707031 24.77734375 180.11328125 C11.26740129 192.70265673 -4.61182781 203.20051961 -23.5859375 202.98828125 C-29.4987507 202.48229479 -32.88336494 199.85907688 -36.96875 195.65234375 C-45.66669045 184.86131603 -45.5913276 169.87360421 -44.78125 156.71484375 C-44.0727751 150.33509672 -42.95614121 144.02289061 -41.78125 137.71484375 C-42.99941406 137.57755859 -42.99941406 137.57755859 -44.2421875 137.4375 C-48.60196404 136.54725865 -52.36083731 134.97138744 -56.40625 133.15234375 C-57.19878174 132.79664307 -57.99131348 132.44094238 -58.80786133 132.07446289 C-71.2110989 126.35656911 -83.05130427 119.1521166 -88.89453125 106.3203125 C-91.07220584 99.92159466 -90.49985267 94.63468218 -87.71875 88.52734375 C-79.31167666 73.61756174 -62.27132412 66.18767751 -46.78125 60.71484375 C-45.12463147 60.33470703 -43.46062549 59.97673466 -41.78125 59.71484375 C-41.9978125 58.74289063 -42.214375 57.7709375 -42.4375 56.76953125 C-45.50893652 41.98072835 -47.89169901 23.99011687 -41.78125 9.71484375 C-41.5028125 9.05742188 -41.224375 8.4 -40.9375 7.72265625 C-38.22924909 2.28280744 -33.82524721 -1.83728095 -28.375 -4.4296875 C-18.59717413 -7.65460296 -8.92865005 -4.12573858 0 0 Z M-27.65625 8.58984375 C-32.50925312 15.72661304 -33.26258696 23.65190416 -33.09375 32.08984375 C-33.08537109 33.00016357 -33.07699219 33.9104834 -33.06835938 34.84838867 C-32.94783783 41.62471226 -32.31554916 48.09817861 -30.78125 54.71484375 C-26.28160941 56.0228788 -22.50551584 55.30826089 -18.03125 54.33984375 C-13.53353126 53.3757205 -9.58673865 52.64252951 -4.96875 52.90234375 C-1.43049404 52.59848589 -0.59644464 51.51962306 1.921875 48.859375 C4.37406562 45.82794991 6.64334598 42.67357238 8.90527344 39.49902344 C11.72562244 35.667962 14.99513636 32.20632213 18.21875 28.71484375 C15.22949869 24.60462319 11.84926388 21.67029081 7.71875 18.77734375 C7.10725098 18.34494385 6.49575195 17.91254395 5.86572266 17.46704102 C-2.89038365 11.4097346 -17.07121564 1.68656047 -27.65625 8.58984375 Z M35.21875 27.71484375 C38.78146619 32.62173491 42.50311301 37.26644059 46.578125 41.7578125 C48.14323778 43.62476846 49.2998872 45.49565983 50.53125 47.58984375 C52.56480047 50.47070692 54.08619848 51.26434994 57.53125 51.96484375 C59.42654644 52.21888198 61.32247295 52.46823196 63.21875 52.71484375 C64.56445459 52.97444018 65.90812603 53.24471648 67.25 53.5234375 C67.95600342 53.66813477 68.66200684 53.81283203 69.3894043 53.96191406 C70.79268902 54.25047278 72.19523393 54.54265852 73.59692383 54.83886719 C77.4397958 55.5893875 80.43876002 55.80424125 84.21875 54.71484375 C87.17662426 40.24238754 89.67219435 21.49278973 81.15625 8.58984375 C66.29999949 -0.89286934 45.31737701 18.1262484 35.21875 27.71484375 Z M26.21875 36.71484375 C25.12884937 37.74963705 24.04719537 38.79311736 22.96875 39.83984375 C22.06382812 40.70996094 22.06382812 40.70996094 21.140625 41.59765625 C18.67530221 44.20820969 18.67530221 44.20820969 15.21875 49.71484375 C22.80875 49.71484375 30.39875 49.71484375 38.21875 49.71484375 C32.74538 42.41457901 32.74538 42.41457901 26.21875 36.71484375 Z M2.54711914 65.5715332 C2.12035889 66.3162085 1.69359863 67.06088379 1.25390625 67.828125 C0.76688232 68.65812012 0.2798584 69.48811523 -0.22192383 70.34326172 C-0.71587646 71.22900879 -1.2098291 72.11475586 -1.71875 73.02734375 C-2.23655029 73.92855957 -2.75435059 74.82977539 -3.2878418 75.75830078 C-4.32165111 77.56573196 -5.34728629 79.37786574 -6.36425781 81.19482422 C-7.59747274 83.38800901 -8.86215651 85.55647696 -10.1484375 87.71875 C-11.11136719 89.38744141 -11.11136719 89.38744141 -12.09375 91.08984375 C-12.64675781 92.04632813 -13.19976562 93.0028125 -13.76953125 93.98828125 C-15.24946502 97.97667419 -14.65257434 100.66447525 -13.00561523 104.54003906 C-12.00853806 106.61246668 -10.94292431 108.63223962 -9.84375 110.65234375 C-9.25400391 111.75255859 -9.25400391 111.75255859 -8.65234375 112.875 C-2.22014301 125.00765711 -2.22014301 125.00765711 6.21875 135.71484375 C11.84579846 136.00768751 17.47543497 136.02895111 23.109375 136.06494141 C25.00858836 136.08148169 26.90773996 136.10874634 28.80664062 136.14697266 C31.54329765 136.20180115 34.27849232 136.22362622 37.015625 136.23828125 C38.28463654 136.27228531 38.28463654 136.27228531 39.57928467 136.30697632 C43.84366109 136.2917314 45.64813632 136.15899163 49.11035156 133.46411133 C50.93346683 131.08684164 52.6264741 128.77630783 54.15625 126.203125 C54.91035156 124.94145508 54.91035156 124.94145508 55.6796875 123.65429688 C56.18757813 122.78740234 56.69546875 121.92050781 57.21875 121.02734375 C57.98058594 119.75600586 57.98058594 119.75600586 58.7578125 118.45898438 C60.27847093 115.89531023 61.75698464 113.31250633 63.21875 110.71484375 C63.97285156 109.39685791 63.97285156 109.39685791 64.7421875 108.05224609 C67.45410551 103.08824275 67.45410551 103.08824275 68.27734375 97.5859375 C66.88436941 93.80794436 65.20589503 90.31154424 63.28125 86.77734375 C62.88518555 86.04386719 62.48912109 85.31039062 62.08105469 84.5546875 C59.21319417 79.33468806 56.18952275 74.22473101 52.96875 69.21484375 C52.56922119 68.57426025 52.16969238 67.93367676 51.75805664 67.27368164 C49.543379 63.85937904 49.543379 63.85937904 46.03979492 62.05151367 C40.40981547 61.37961911 34.73448009 61.52893195 29.07202148 61.52954102 C26.79196517 61.52735403 24.51239279 61.5091706 22.23242188 61.49023438 C20.77083497 61.48729992 19.30924579 61.48531547 17.84765625 61.484375 C16.52838135 61.48026611 15.20910645 61.47615723 13.84985352 61.47192383 C9.35188567 61.77283676 5.66809084 62.10505303 2.54711914 65.5715332 Z M63.21875 64.71484375 C63.76144531 65.65585938 64.30414063 66.596875 64.86328125 67.56640625 C65.58602516 68.82416838 66.30867648 70.08198372 67.03125 71.33984375 C67.56588867 72.26603516 67.56588867 72.26603516 68.11132812 73.2109375 C70.27788172 76.98749881 72.3091799 80.79932147 74.21875 84.71484375 C76.24100194 81.68146585 77.21222524 79.10139886 78.34375 75.65234375 C78.69695312 74.58886719 79.05015625 73.52539062 79.4140625 72.4296875 C80.31347742 69.86718523 80.31347742 69.86718523 80.21875 67.71484375 C78.32489563 67.20739952 76.42856334 66.70919801 74.53125 66.21484375 C73.47550781 65.93640625 72.41976562 65.65796875 71.33203125 65.37109375 C68.50732328 64.77567225 66.09038292 64.58697883 63.21875 64.71484375 Z M-21.09375 66.21484375 C-22.16238281 66.49328125 -23.23101562 66.77171875 -24.33203125 67.05859375 C-25.14027344 67.27515625 -25.94851562 67.49171875 -26.78125 67.71484375 C-25.61473574 73.64348092 -24.02605642 79.10282769 -21.78125 84.71484375 C-19.00206634 81.23649439 -16.83404886 77.45882707 -14.65625 73.58984375 C-14.11677734 72.64044922 -14.11677734 72.64044922 -13.56640625 71.671875 C-12.2627169 69.37210839 -10.96371806 67.07977987 -9.78125 64.71484375 C-13.80926583 64.53548869 -17.20336143 65.1888072 -21.09375 66.21484375 Z M91.21875 70.71484375 C91.01717285 71.33004883 90.8155957 71.94525391 90.60791016 72.57910156 C89.68969802 75.37540296 88.76677549 78.17012768 87.84375 80.96484375 C87.36808594 82.41697266 87.36808594 82.41697266 86.8828125 83.8984375 C86.41875 85.30029297 86.41875 85.30029297 85.9453125 86.73046875 C85.66252441 87.58930664 85.37973633 88.44814453 85.08837891 89.33300781 C84.21875 91.71484375 84.21875 91.71484375 83.12939453 93.8515625 C81.20346409 97.79223304 82.05021669 101.20924382 83.390625 105.23046875 C83.90620451 106.47963003 84.43265635 107.72434799 84.96875 108.96484375 C85.51826373 110.28383977 86.06774277 111.60285024 86.6171875 112.921875 C86.88885742 113.56334473 87.16052734 114.20481445 87.44042969 114.86572266 C88.52703193 117.44725509 89.56124029 120.0487851 90.59375 122.65234375 C90.91085937 123.44511719 91.22796875 124.23789063 91.5546875 125.0546875 C91.88339844 125.87646484 91.88339844 125.87646484 92.21875 126.71484375 C106.95106306 122.37070016 122.52421595 116.17130722 131.21875 102.71484375 C131.90224335 98.61388363 132.1372338 96.26036938 130 92.6640625 C123.68525427 84.99402936 115.45234246 80.10797154 106.59375 75.90234375 C105.68012695 75.46716431 105.68012695 75.46716431 104.74804688 75.02319336 C100.30294197 72.9993815 95.95914277 71.78744918 91.21875 70.71484375 Z M-73.78515625 89.6640625 C-76.63858409 92.59566645 -77.71939416 94.30934437 -78.34375 98.40234375 C-78.21362185 103.1303331 -76.03682114 105.55931096 -72.81640625 108.84375 C-62.90509804 117.95606599 -50.94273863 123.89452476 -37.78125 126.71484375 C-37.38292969 125.49667969 -36.98460937 124.27851563 -36.57421875 123.0234375 C-36.03922544 121.39968589 -35.50406004 119.77599097 -34.96875 118.15234375 C-34.70771484 117.35248047 -34.44667969 116.55261719 -34.17773438 115.72851562 C-32.95960943 112.04406362 -31.73455881 108.61970139 -30.01953125 105.125 C-27.34637764 97.76328676 -30.53980074 90.91592594 -33.21875 83.96484375 C-33.68764648 82.70994141 -33.68764648 82.70994141 -34.16601562 81.4296875 C-35.55118242 77.75738485 -36.98013868 74.20594131 -38.78125 70.71484375 C-50.42211441 70.71484375 -65.91025802 82.36875678 -73.78515625 89.6640625 Z M74.21875 112.71484375 C72.92381805 115.10896212 71.63272828 117.50502255 70.34375 119.90234375 C69.97894531 120.57587891 69.61414063 121.24941406 69.23828125 121.94335938 C67.34515594 125.47145655 65.60794466 128.94939508 64.21875 132.71484375 C69.82336531 132.29394379 74.93961547 131.79871264 80.21875 129.71484375 C79.05223574 123.78620658 77.46355642 118.32685981 75.21875 112.71484375 C74.88875 112.71484375 74.55875 112.71484375 74.21875 112.71484375 Z M-21.78125 113.71484375 C-22.6467547 115.981927 -23.49884315 118.25259454 -24.34375 120.52734375 C-24.59060547 121.16994141 -24.83746094 121.81253906 -25.09179688 122.47460938 C-26.62913661 126.52999104 -26.62913661 126.52999104 -25.78125 130.71484375 C-24.22008181 131.05435994 -22.65723662 131.38616919 -21.09375 131.71484375 C-20.22363281 131.90046875 -19.35351562 132.08609375 -18.45703125 132.27734375 C-15.84412036 132.70456422 -13.42311962 132.79100576 -10.78125 132.71484375 C-12.37748144 128.32100669 -14.56149333 124.42488568 -16.90625 120.40234375 C-17.27878906 119.75716797 -17.65132812 119.11199219 -18.03515625 118.44726562 C-18.94757213 116.8680843 -19.86400509 115.29122511 -20.78125 113.71484375 C-21.11125 113.71484375 -21.44125 113.71484375 -21.78125 113.71484375 Z M-29.78125 141.71484375 C-30.090625 142.72546875 -30.4 143.73609375 -30.71875 144.77734375 C-30.89277344 145.34582031 -31.06679687 145.91429687 -31.24609375 146.5 C-34.01790118 157.97164099 -35.35943732 174.9439536 -29.78125 185.71484375 C-27.92483251 188.98884085 -27.92483251 188.98884085 -24.78125 190.71484375 C-14.15913836 192.8128053 -4.64050987 187.04083309 4.16796875 181.796875 C9.32638832 178.27646831 13.75945546 174.07757876 18.21875 169.71484375 C14.47990324 164.51728026 10.49830312 159.68753367 6.1484375 154.98828125 C4.21875 152.71484375 4.21875 152.71484375 2.82421875 149.62109375 C-1.47413957 144.82652315 -7.17799555 144.77511663 -13.34375 143.83984375 C-14.58833984 143.6284375 -15.83292969 143.41703125 -17.11523438 143.19921875 C-23.41621588 142.1034484 -23.41621588 142.1034484 -29.78125 141.71484375 Z M74.68359375 142.45703125 C73.09901367 142.72580078 73.09901367 142.72580078 71.48242188 143 C69.8359668 143.29197266 69.8359668 143.29197266 68.15625 143.58984375 C67.05474609 143.77675781 65.95324219 143.96367187 64.81835938 144.15625 C55.50167332 145.60346943 55.50167332 145.60346943 49.09375 152.15234375 C44.8396061 158.03053883 40.17924454 163.41426803 35.21875 168.71484375 C43.33489807 179.11786227 58.05981749 189.3174819 71.40234375 190.98828125 C75.50806009 191.17328753 77.60535685 191.12821739 81.09375 188.77734375 C86.15173607 181.48789324 86.67494737 174.00766919 86.53125 165.33984375 C86.53447266 164.375625 86.53769531 163.41140625 86.54101562 162.41796875 C86.49126621 155.67013853 85.62678029 149.30929356 84.21875 142.71484375 C80.78198651 141.57957044 78.22653857 141.84618889 74.68359375 142.45703125 Z M15.21875 147.71484375 C20.3285397 154.68170035 20.3285397 154.68170035 26.21875 160.71484375 C26.87875 160.71484375 27.53875 160.71484375 28.21875 160.71484375 C29.8017705 158.97787813 31.31228724 157.17427878 32.78125 155.33984375 C33.58691406 154.34210938 34.39257812 153.344375 35.22265625 152.31640625 C37.20120095 149.90798973 37.20120095 149.90798973 38.21875 147.71484375 C30.62875 147.71484375 23.03875 147.71484375 15.21875 147.71484375 Z " fill="#63D5F4" transform="translate(172.78125,42.28515625)"/>
<path d="M0 0 C5.66968119 3.30148102 9.74452503 8.00817072 12.1875 14.0625 C13.41359871 21.55532543 12.84294798 27.05360692 8.75 33.5 C4.55874502 38.02621183 0.11762455 42.0254296 -6.1328125 42.90625 C-14.31610017 43.14287519 -20.01008555 42.00785745 -26.25 36.5 C-30.74288501 31.08363517 -32.6643063 25.79175354 -32.51953125 18.7109375 C-31.62340183 11.36007879 -27.87594737 6.55919629 -22.34765625 1.91015625 C-15.74440365 -2.52890183 -7.32280489 -3.22603101 0 0 Z " fill="#62D7F7" transform="translate(209.25,120.5)"/>
</svg>
