<?xml version="1.0" encoding="UTF-8"?>
<svg version="1.1" xmlns="http://www.w3.org/2000/svg" width="400" height="300">
<path d="M0 0 C10.03134372 9.19254536 14.2249039 19.57620325 14.95703125 32.98486328 C15.34415611 51.14013927 6.46243491 68.4298033 -5 82 C-5.64453125 82.79019531 -6.2890625 83.58039063 -6.953125 84.39453125 C-28.24082662 109.42729149 -60.04015808 120.3532222 -92 123 C-108.59839363 123.91577344 -124.78917735 121.74447683 -138 111 C-145.96009803 102.99509841 -145.96009803 102.99509841 -146.0625 97.875 C-146.041875 96.92625 -146.02125 95.9775 -146 95 C-144.23046875 94.30078125 -144.23046875 94.30078125 -142 94 C-140.17578125 95.29296875 -140.17578125 95.29296875 -138.3125 97.1875 C-128.79176089 106.03826117 -116.89934403 107.56238272 -104.3125 107.25 C-74.23130241 105.88515437 -45.36969604 92.243289 -24.4609375 70.83984375 C-17.96419889 63.34281364 -12.25133715 54.76280782 -10 45 C-9.6596875 43.7315625 -9.6596875 43.7315625 -9.3125 42.4375 C-8.42087665 35.48283787 -8.71560388 29.29996267 -12 23 C-20.00178203 13.22004418 -33.15994716 11.34435621 -45 10 C-93.73452042 6.18778593 -145.028437 33.05541038 -181.15234375 63.6484375 C-193.87778362 74.69811566 -204.7883817 88.70290409 -206.25390625 105.99609375 C-206.75171031 119.6295016 -201.72682448 129.41878457 -192.81640625 139.4609375 C-186.14225664 146.40906698 -178.63669174 152.1732901 -171 158 C-161.93335486 164.94879884 -153.2974509 172.1432562 -145 180 C-141.01200348 177.88486438 -141.01200348 177.88486438 -137.03271484 175.75341797 C-132.70558605 173.42601467 -128.3545972 171.15613981 -123.9765625 168.92578125 C-121.85917522 167.82590534 -119.74198769 166.72564482 -117.625 165.625 C-116.11099609 164.86860229 -116.11099609 164.86860229 -114.56640625 164.09692383 C-108.10445504 160.70152605 -103.60438738 156.93687249 -98.93237305 151.32080078 C-92.2818754 143.33348169 -83.83967817 138.27989272 -74 135 C-68.76496164 134.60490277 -65.40071276 135.06619149 -61 138 C-56.80951612 143.32304708 -55.85843733 147.10873588 -55.9375 153.75 C-55.94652344 154.73484375 -55.95554688 155.7196875 -55.96484375 156.734375 C-55.98224609 157.85585938 -55.98224609 157.85585938 -56 159 C-55.113125 158.773125 -54.22625 158.54625 -53.3125 158.3125 C-49.35162293 157.93883235 -48.06016687 158.53486558 -45 161 C-43.63135731 163.14879124 -42.95861515 164.41193849 -43.13912964 166.97697449 C-43.32121979 167.66930679 -43.50330994 168.3616391 -43.69091797 169.07495117 C-43.89127655 169.86645065 -44.09163513 170.65795013 -44.29806519 171.47343445 C-44.52712555 172.32138077 -44.75618591 173.16932709 -44.9921875 174.04296875 C-45.21697784 174.92600174 -45.44176819 175.80903473 -45.67337036 176.71882629 C-46.39395022 179.54533888 -47.13267733 182.36662575 -47.875 185.1875 C-48.60905432 187.99075742 -49.33866056 190.79482849 -50.0552063 193.60261536 C-50.50099226 195.34840077 -50.95669856 197.09169434 -51.42404175 198.83183289 C-52.84208615 204.37095438 -53.20727761 209.28121788 -53 215 C-45.19487867 199.17541215 -37.66423587 183.25045017 -30.5 167.125 C-30.16774414 166.37939819 -29.83548828 165.63379639 -29.49316406 164.86560059 C-20.82830721 145.43532928 -20.82830721 145.43532928 -14.0546875 125.29296875 C-13 123 -13 123 -11.05078125 121.71484375 C-4.77522093 119.52736273 2.62742635 118.94607073 9 120.9375 C11 122 11 122 12 123 C11.6035685 128.05450168 10.57291862 132.76394456 9.375 137.6875 C7.03184363 148.47987047 7.9369566 158.12706537 13 168 C13.33 168.33 13.66 168.66 14 169 C29.00678827 143.61078214 29.00678827 143.61078214 39.14111328 116.09887695 C39.98130793 112.99658962 40.46260205 111.33400776 43.25 109.6015625 C51.27812973 107.84540912 58.69890979 106.75518011 66 111 C66.29073672 114.7795773 65.876186 117.62396303 64.5625 121.125 C60.23400375 133.43029649 61.77596414 145.57822671 67.125 157.25 C68.06885473 159.17383787 69.02203488 161.09327555 70 163 C71.45019531 162.49339844 71.45019531 162.49339844 72.9296875 161.9765625 C74.24467757 161.52570876 75.55978838 161.07520705 76.875 160.625 C77.50664062 160.40328125 78.13828125 160.1815625 78.7890625 159.953125 C97.19059862 153.69660272 118.17468867 153.46329983 136.07421875 161.35546875 C147.84596742 167.34573103 156.05887195 175.97325393 160.9375 188.375 C163.09158901 195.94818087 163.28997415 204.05347509 160.0625 211.3125 C156.24078796 217.98688598 150.41542356 223.65334697 143 226 C141.68 226 140.36 226 139 226 C138.67 225.01 138.34 224.02 138 223 C138.75925781 222.38253906 139.51851563 221.76507813 140.30078125 221.12890625 C147.80052637 214.92095068 147.80052637 214.92095068 151.8359375 206.2890625 C152.44776784 197.7525725 149.20988199 190.74486232 143.75 184.375 C131.01947571 173.38045629 114.92726819 170.49091476 98.453125 170.734375 C90.93114585 171.31298878 83.16252841 172.61249053 76 175 C76.33 176.258125 76.66 177.51625 77 178.8125 C79.03366333 188.10297638 78.80254764 195.63655292 73.8515625 203.921875 C66.9200328 214.25906958 55.45761371 220.47901356 43.640625 223.62890625 C40.36613742 224.21363618 38.2601463 224.10983955 35.1875 222.8125 C30.30207827 218.76457913 30.30207827 218.76457913 29.6796875 215.12890625 C29.03221427 203.0211569 35.79073743 193.09740277 43 184 C45.87799971 180.85680696 48.85610412 177.87633027 52 175 C50.8778233 171.49880868 49.67478805 168.17727673 48.0625 164.875 C45.91979064 160.18982208 44.74633642 155.41954437 43.61328125 150.40625 C43.23443235 148.0642442 43.23443235 148.0642442 42 147 C41.48953125 148.00675781 40.9790625 149.01351562 40.453125 150.05078125 C39.72028863 151.47214852 38.98577043 152.89264933 38.25 154.3125 C37.86038086 155.07071045 37.47076172 155.8289209 37.06933594 156.61010742 C34.81091131 160.90453607 32.40872815 164.9607455 29.625 168.9375 C23.49311216 176.95366455 23.49311216 176.95366455 20.90625 186.33984375 C21.69869028 189.26492734 21.69869028 189.26492734 22.890625 192.0390625 C25.32741502 198.54288938 25.10632429 206.31225237 23.12109375 212.9296875 C21.9403561 215.49379765 20.633927 217.70071098 19 220 C18.34257813 220.93199219 18.34257813 220.93199219 17.671875 221.8828125 C10.49584273 230.30520827 -3.14057875 236.11515827 -14 237 C-18.54810784 237.29823658 -21.97319028 237.23711651 -26 235 C-27.875 233.25 -27.875 233.25 -29 231 C-28.69886969 225.79999374 -26.90006726 223.01699 -23.6875 219 C-23.24889648 218.44602539 -22.81029297 217.89205078 -22.35839844 217.32128906 C-19.42807509 213.65581802 -16.38421988 210.0921572 -13.30688477 206.54980469 C-11.77193497 204.77535747 -10.26037837 202.98286956 -8.75 201.1875 C-7.10438084 199.23730492 -5.4858891 197.51294757 -3.625 195.75 C-1.40535132 193.38237474 -0.47952933 192.23326212 0 189 C-1.22551197 184.300428 -3.49121382 180.06607034 -5.74609375 175.79296875 C-8.48534849 170.4540171 -9.74260322 164.83751565 -11 159 C-11.35191406 159.79470703 -11.70382813 160.58941406 -12.06640625 161.40820312 C-24.88267369 190.30336484 -24.88267369 190.30336484 -30.84814453 201.75683594 C-32.28004906 204.54537744 -33.66688247 207.35525148 -35.05859375 210.1640625 C-36.18412451 212.40142985 -37.31042924 214.63840802 -38.4375 216.875 C-38.95119141 217.92204102 -39.46488281 218.96908203 -39.99414062 220.04785156 C-44.30235504 228.50023478 -49.85669913 236.78497888 -58 242 C-63.03893151 242.81273089 -63.03893151 242.81273089 -66 242 C-69.45037727 239.21743768 -71.60312189 236.19063432 -73 232 C-73.22718496 229.43365139 -73.41608184 226.88321893 -73.5625 224.3125 C-73.60568359 223.61060547 -73.64886719 222.90871094 -73.69335938 222.18554688 C-73.7991736 220.45724794 -73.90006581 218.7286489 -74 217 C-74.26627197 217.59425781 -74.53254395 218.18851563 -74.80688477 218.80078125 C-76.04442937 221.54058303 -77.30325147 224.27010956 -78.5625 227 C-78.98080078 227.93457031 -79.39910156 228.86914062 -79.83007812 229.83203125 C-83.05954753 236.77660455 -86.84552252 243.26679113 -93.375 247.5625 C-98.15089041 248.35848174 -102.5468251 248.25893154 -106.92578125 246.01171875 C-115.46538551 239.59281444 -118.68661013 228.47955427 -120.53125 218.421875 C-121.92870219 208.22047402 -120.4956829 198.84146739 -118.65625 188.80859375 C-117.91509731 185.15138097 -117.91509731 185.15138097 -118 182 C-119.13179688 182.6496875 -120.26359375 183.299375 -121.4296875 183.96875 C-122.91133076 184.81272401 -124.39310858 185.65646181 -125.875 186.5 C-126.99455078 187.14388672 -126.99455078 187.14388672 -128.13671875 187.80078125 C-128.85214844 188.20683594 -129.56757813 188.61289063 -130.3046875 189.03125 C-130.96452637 189.40830078 -131.62436523 189.78535156 -132.30419922 190.17382812 C-134 191 -134 191 -136 191 C-135.72285156 191.85980469 -135.44570312 192.71960938 -135.16015625 193.60546875 C-129.50290093 212.06704573 -129.80039672 230.28300006 -138 248 C-147.79831453 265.9709996 -162.6037733 277.20507795 -182 283 C-191.23671833 285.37301056 -205.51402673 285.86014833 -214 281 C-219.83320681 276.15903971 -223.84843879 270.54663901 -225 263 C-226.23633593 249.05600869 -223.67678277 238.5070933 -215.0546875 227.453125 C-200.89916527 210.55261557 -180.33918108 199.05498624 -161 189 C-169.67554099 182.67963817 -178.36187699 176.39396294 -187.25 170.375 C-208.00485683 156.23210607 -229.70186792 139.93698653 -237.62890625 115.0234375 C-240.67075069 98.43738046 -233.91922547 83.49936827 -225 70 C-222.16597438 66.17431711 -219.14941135 62.56861627 -216 59 C-215.24460938 58.1234375 -214.48921875 57.246875 -213.7109375 56.34375 C-209.12730407 51.11431255 -204.39401258 46.38376273 -199 42 C-197.98164063 41.16726562 -196.96328125 40.33453125 -195.9140625 39.4765625 C-164.1515859 13.82944572 -125.02890506 -5.66911113 -85 -14 C-83.88882813 -14.24492187 -82.77765625 -14.48984375 -81.6328125 -14.7421875 C-54.50049944 -19.68148639 -22.49117586 -17.19709908 0 0 Z M-79 156 C-90.81546739 166.15093272 -97.90359114 184.07533794 -99.19824219 199.33691406 C-99.33537366 201.74789937 -99.40751253 204.14788884 -99.4375 206.5625 C-99.44789307 207.30040771 -99.45828613 208.03831543 -99.46899414 208.79858398 C-99.3852744 213.86622638 -98.24919537 217.459847 -96 222 C-94.09982446 221.97650272 -94.09982446 221.97650272 -92 221 C-90.57839355 218.9103335 -89.51337702 217.01533303 -88.4375 214.75 C-88.10451904 214.06470215 -87.77153809 213.3794043 -87.4284668 212.67333984 C-73.25333594 183.90871099 -73.25333594 183.90871099 -68 153 C-72.32825283 150.92243864 -75.54049923 153.39623198 -79 156 Z M57.36328125 184.51171875 C51.41946923 190.81782026 45.32831217 198.92622477 44.84375 207.890625 C44.8953125 208.58671875 44.946875 209.2828125 45 210 C51.61338032 207.21023659 55.87701586 204.33442596 59.125 197.703125 C60.14347992 194.55674953 60.19751351 191.98686471 60.125 188.6875 C60.10695313 187.61886719 60.08890625 186.55023438 60.0703125 185.44921875 C60.04710937 184.64097656 60.02390625 183.83273438 60 183 C58.75109439 182.88691691 58.75109439 182.88691691 57.36328125 184.51171875 Z M-187 225 C-187.65742188 225.64453125 -188.31484375 226.2890625 -188.9921875 226.953125 C-196.29187656 234.66009285 -199.55229893 242.77649815 -199.56640625 253.37109375 C-198.83560728 256.76300897 -197.77896131 257.9523443 -195 260 C-186.63445896 262.11080989 -179.28816016 258.97761453 -172.125 254.90625 C-161.46352441 248.40274989 -153.45456346 237.85988776 -149.6484375 225.8828125 C-147.5921483 216.74099665 -147.48227836 208.03050573 -150 199 C-160.7761547 199 -179.90130135 218.02851817 -187 225 Z M5 203 C3.19713896 205.06211544 1.43339518 207.14047077 -0.3125 209.25 C-5.54324721 215.55460922 -5.54324721 215.55460922 -8.35546875 218.296875 C-10.23154132 219.84520551 -10.23154132 219.84520551 -10 222 C-3.12960259 219.64443517 1.51839843 215.29939583 5 209 C5.8680417 205.73289124 5.8680417 205.73289124 6 203 C5.67 203 5.34 203 5 203 Z " fill="#C96897" transform="translate(238,16)"/>
<path d="M0 0 C0.66 0.33 1.32 0.66 2 1 C-5.26 8.26 -12.52 15.52 -20 23 C-20 18.83257256 -17.72202211 17.11751103 -15 14.25 C-14.50322754 13.71721436 -14.00645508 13.18442871 -13.49462891 12.63549805 C-9.56393488 8.47154154 -5.41485784 4.64756972 -1 1 C-0.67 0.67 -0.34 0.34 0 0 Z " fill="#B86E92" transform="translate(40,57)"/>
</svg>
