<svg xmlns="http://www.w3.org/2000/svg" width="400" height="300"><path d="M238 16c10 9.2 14.2 19.6 15 33 .3 18.1-8.5 35.4-20 49l-2 2.4c-21.2 25-53 36-85 38.6-16.6 1-32.8-1.3-46-12-8-8-8-8-8-13.1V111c1.8-.7 1.8-.7 4-1 1.8 1.3 1.8 1.3 3.7 3.2 9.5 8.8 21.4 10.4 34 10.1 30.1-1.4 58.9-15.1 79.8-36.5 6.5-7.5 12.2-16 14.5-25.8l.7-2.6c.9-6.9.6-13.1-2.7-19.4-8-9.8-21.2-11.7-33-13-48.7-3.8-100 23-136.2 53.6-12.7 11.1-23.6 25.1-25.1 42.4-.5 13.6 4.6 23.4 13.5 33.5 6.7 6.9 14.2 12.7 21.8 18.5 9 7 17.7 14.1 26 22l8-4.2c4.3-2.4 8.6-4.6 13-6.8l6.4-3.4 3-1.5c6.5-3.4 11-7.1 15.6-12.8 6.7-8 15.2-13 25-16.3 5.2-.4 8.6 0 13 3 4.2 5.3 5.1 9.1 5 15.8V175l2.7-.7c3.9-.3 5.3.2 8.3 2.7 1.4 2.1 2 3.4 1.9 6l-.6 2c-.2.9-.3 1.7-.6 2.5l-.7 2.5-.7 2.7-2.2 8.5-2.1 8.4-1.4 5.2c-1.4 5.6-1.8 10.5-1.6 16.2 7.8-15.8 15.3-31.7 22.5-47.9l1-2.2c8.7-19.5 8.7-19.5 15.5-39.6 1-2.3 1-2.3 3-3.6 6.2-2.2 13.6-2.7 20-.7 2 1 2 1 3 2-.4 5-1.4 9.8-2.6 14.7-2.4 10.8-1.4 20.4 3.6 30.3l1 1c15-25.4 15-25.4 25.1-52.9.9-3.1 1.4-4.8 4.2-6.5 8-1.8 15.4-2.8 22.7 1.4.3 3.8-.1 6.6-1.4 10.1-4.4 12.3-2.8 24.5 2.5 36.2l2.9 5.7 3-1 3.9-1.4 1.9-.6c18.4-6.3 39.4-6.5 57.2 1.4 11.8 5.9 20 14.6 25 27 2 7.6 2.3 15.6-1 22.9-3.8 6.7-9.6 12.4-17 14.7h-4l-1-3 2.3-1.9c7.5-6.1 7.5-6.1 11.5-14.8.6-8.5-2.6-15.6-8-21.9-12.8-11-28.8-13.9-45.3-13.7-7.5.6-15.3 1.9-22.5 4.3l1 3.8c2 9.3 1.8 16.8-3.1 25.2-6.9 10.3-18.4 16.5-30.3 19.6-3.2.6-5.3.5-8.4-.8-4.9-4-4.9-4-5.5-7.7-.7-12.1 6.1-22 13.3-31.1 2.9-3.1 5.9-6.1 9-9-1.1-3.5-2.3-6.8-4-10.1-2-4.7-3.3-9.5-4.4-14.5-.4-2.4-.4-2.4-1.6-3.4l-1.5 3-2.2 4.3-1.3 2.3c-2.2 4.3-4.6 8.4-7.4 12.4-6.1 8-6.1 8-8.6 17.3.7 3 .7 3 1.9 5.7 2.4 6.5 2.2 14.3.2 21-1.1 2.5-2.5 4.7-4.1 7l-1.3 1.9c-7.2 8.4-20.8 14.2-31.7 15.1-4.5.3-8 .2-12-2-1.9-1.7-1.9-1.7-3-4 .3-5.2 2.1-8 5.3-12l1.3-1.7c3-3.6 6-7.3 9.1-10.8l4.5-5.3c1.7-2 3.3-3.7 5.2-5.4 2.2-2.4 3.1-3.6 3.6-6.8-1.2-4.7-3.5-9-5.7-13.2-2.8-5.3-4-11-5.3-16.8l-1 2.4c-12.9 28.9-12.9 28.9-18.8 40.4-1.5 2.7-2.9 5.6-4.2 8.4l-3.4 6.7-1.6 3.1c-4.3 8.5-9.9 16.8-18 22-5 .8-5 .8-8 0-3.5-2.8-5.6-5.8-7-10l-.6-7.7-.1-2.1-.3-5.2-.8 1.8-3.8 8.2-1.2 2.8c-3.2 7-7 13.5-13.6 17.8-4.8.8-9.1.7-13.6-1.6-8.5-6.4-11.7-17.5-13.5-27.6-1.5-10.2 0-19.6 1.8-29.6.7-3.6.7-3.6.7-6.8l-3.4 2-4.5 2.5-2.2 1.3-2.2 1.2-2 1.2c-1.7.8-1.7.8-3.7.8l.8 2.6c5.7 18.4 5.4 36.7-2.8 54.4-9.8 18-24.6 29.2-44 35-9.2 2.4-23.5 2.9-32-2-5.8-4.8-9.8-10.5-11-18-1.2-14 1.3-24.5 10-35.5C37.1 226.6 57.7 215 77 205c-8.7-6.3-17.4-12.6-26.3-18.6C30 172.2 8.3 156 .4 131-2.7 114.4 4 99.5 13 86c2.8-3.8 5.9-7.4 9-11l2.3-2.7c4.6-5.2 9.3-9.9 14.7-14.3l3-2.5C73.8 29.8 113 10.3 153 2l3.4-.7c27.1-5 59.1-2.5 81.6 14.7zm-79 156c-11.8 10.2-18.9 28-20.2 43.3l-.2 7.3-.1 2.2c.1 5.1 1.3 8.7 3.5 13.2 1.9 0 1.9 0 4-1 1.4-2 2.5-4 3.6-6.2l1-2.1C164.7 200 164.7 200 170 169c-4.3-2-7.5.4-11 3zm136.4 28.5c-6 6.3-12.1 14.5-12.6 23.4l.2 2.1c6.6-2.8 10.9-5.7 14.1-12.3 1-3.1 1.1-5.7 1-9l-.1-3.3V199c-1.2-.1-1.2-.1-2.6 1.5zM51 241l-2 2c-7.3 7.7-10.6 15.8-10.6 26.4.8 3.4 1.8 4.6 4.6 6.6 8.4 2.1 15.7-1 22.9-5 10.6-6.6 18.6-17.1 22.5-29.1 2-9.2 2.1-17.9-.4-26.9-10.8 0-29.9 19-37 26zm192-22c-1.8 2-3.6 4.1-5.3 6.3-5.2 6.3-5.2 6.3-8.1 9-1.8 1.5-1.8 1.5-1.6 3.7 6.9-2.4 11.5-6.7 15-13 .9-3.3.9-3.3 1-6h-1z" fill="#C96897"/><path d="M40 57l2 1-22 22c0-4.2 2.3-5.9 5-8.7l1.5-1.7c3.9-4.1 8.1-8 12.5-11.6l1-1z" fill="#B86E92"/></svg>