<svg width="410" height="404" fill="none" xmlns="http://www.w3.org/2000/svg"><path d="M399.6 59.5l-184 329c-3.8 6.8-13.6 6.9-17.4.1L10.6 59.6C6.4 52.2 12.7 43.3 21 44.8l184.2 32.9c1.2.2 2.4.2 3.6 0l180.3-32.9c8.3-1.5 14.7 7.3 10.5 14.7z" fill="url(#paint0_linear)"/><path d="M293 1.6L156.8 28.3c-2.2.4-3.8 2.3-4 4.6l-8.4 141.4c-.2 3.4 2.9 5.9 6.1 5.2l37.9-8.8c3.6-.7 6.8 2.3 6 5.9l-11.2 55.2c-.8 3.7 2.8 6.9 6.3 5.8l23.5-7.2c3.6-1.1 7 2.1 6.3 5.8l-17.9 86.7c-1.1 5.4 6.1 8.3 9.1 3.7l2-3.1 111-221.5c1.8-3.6-1.4-7.9-5.5-7l-39 7.5c-3.7.7-6.8-2.8-5.7-6.3l25.4-88.3c1.1-3.6-2.1-7-5.7-6.3z" fill="url(#paint1_linear)"/><defs><linearGradient id="paint0_linear" x1="6" y1="33" x2="235" y2="344" gradientUnits="userSpaceOnUse"><stop stop-color="#41D1FF"/><stop offset="1" stop-color="#BD34FE"/></linearGradient><linearGradient id="paint1_linear" x1="194.651" y1="8.818" x2="236.076" y2="292.989" gradientUnits="userSpaceOnUse"><stop stop-color="#FFEA83"/><stop offset=".083" stop-color="#FFDD35"/><stop offset="1" stop-color="#FFA800"/></linearGradient></defs></svg>